%TF.GenerationSoftware,KiCad,Pcbnew,8.0.6*%
%TF.CreationDate,2025-06-26T12:50:08+02:00*%
%TF.ProjectId,PCF8583 1v3,50434638-3538-4332-9031-76332e6b6963,rev?*%
%TF.SameCoordinates,Original*%
%TF.FileFunction,Legend,Bot*%
%TF.FilePolarity,Positive*%
%FSLAX46Y46*%
G04 Gerber Fmt 4.6, Leading zero omitted, Abs format (unit mm)*
G04 Created by KiCad (PCBNEW 8.0.6) date 2025-06-26 12:50:08*
%MOMM*%
%LPD*%
G01*
G04 APERTURE LIST*
%ADD10C,0.142240*%
G04 APERTURE END LIST*
D10*
X153815971Y-122283150D02*
X153660184Y-122205257D01*
X153660184Y-122205257D02*
X153426504Y-122205257D01*
X153426504Y-122205257D02*
X153192824Y-122283150D01*
X153192824Y-122283150D02*
X153037038Y-122438937D01*
X153037038Y-122438937D02*
X152959144Y-122594724D01*
X152959144Y-122594724D02*
X152881251Y-122906297D01*
X152881251Y-122906297D02*
X152881251Y-123139977D01*
X152881251Y-123139977D02*
X152959144Y-123451550D01*
X152959144Y-123451550D02*
X153037038Y-123607337D01*
X153037038Y-123607337D02*
X153192824Y-123763124D01*
X153192824Y-123763124D02*
X153426504Y-123841017D01*
X153426504Y-123841017D02*
X153582291Y-123841017D01*
X153582291Y-123841017D02*
X153815971Y-123763124D01*
X153815971Y-123763124D02*
X153893864Y-123685230D01*
X153893864Y-123685230D02*
X153893864Y-123139977D01*
X153893864Y-123139977D02*
X153582291Y-123139977D01*
X154594904Y-123841017D02*
X154594904Y-122205257D01*
X154594904Y-122205257D02*
X155529624Y-123841017D01*
X155529624Y-123841017D02*
X155529624Y-122205257D01*
X156308557Y-123841017D02*
X156308557Y-122205257D01*
X156308557Y-122205257D02*
X156698024Y-122205257D01*
X156698024Y-122205257D02*
X156931704Y-122283150D01*
X156931704Y-122283150D02*
X157087491Y-122438937D01*
X157087491Y-122438937D02*
X157165384Y-122594724D01*
X157165384Y-122594724D02*
X157243277Y-122906297D01*
X157243277Y-122906297D02*
X157243277Y-123139977D01*
X157243277Y-123139977D02*
X157165384Y-123451550D01*
X157165384Y-123451550D02*
X157087491Y-123607337D01*
X157087491Y-123607337D02*
X156931704Y-123763124D01*
X156931704Y-123763124D02*
X156698024Y-123841017D01*
X156698024Y-123841017D02*
X156308557Y-123841017D01*
M02*
