%TF.GenerationSoftware,KiCad,Pcbnew,8.0.6*%
%TF.CreationDate,2025-06-26T12:50:08+02:00*%
%TF.ProjectId,PCF8583 1v3,50434638-3538-4332-9031-76332e6b6963,rev?*%
%TF.SameCoordinates,Original*%
%TF.FileFunction,Soldermask,Top*%
%TF.FilePolarity,Negative*%
%FSLAX46Y46*%
G04 Gerber Fmt 4.6, Leading zero omitted, Abs format (unit mm)*
G04 Created by KiCad (PCBNEW 8.0.6) date 2025-06-26 12:50:08*
%MOMM*%
%LPD*%
G01*
G04 APERTURE LIST*
G04 Aperture macros list*
%AMFreePoly0*
4,1,25,0.333266,0.742596,0.345389,0.732242,0.732242,0.345389,0.760749,0.289441,0.762000,0.273547,0.762000,-0.273547,0.742596,-0.333266,0.732242,-0.345389,0.345389,-0.732242,0.289441,-0.760749,0.273547,-0.762000,-0.273547,-0.762000,-0.333266,-0.742596,-0.345389,-0.732242,-0.732242,-0.345389,-0.760749,-0.289441,-0.762000,-0.273547,-0.762000,0.273547,-0.742596,0.333266,-0.732242,0.345389,
-0.345389,0.732242,-0.289441,0.760749,-0.273547,0.762000,0.273547,0.762000,0.333266,0.742596,0.333266,0.742596,$1*%
%AMFreePoly1*
4,1,25,0.391131,0.882296,0.403254,0.871942,0.871942,0.403254,0.900449,0.347306,0.901700,0.331412,0.901700,-0.331412,0.882296,-0.391131,0.871942,-0.403254,0.403254,-0.871942,0.347306,-0.900449,0.331412,-0.901700,-0.331412,-0.901700,-0.391131,-0.882296,-0.403254,-0.871942,-0.871942,-0.403254,-0.900449,-0.347306,-0.901700,-0.331412,-0.901700,0.331412,-0.882296,0.391131,-0.871942,0.403254,
-0.403254,0.871942,-0.347306,0.900449,-0.331412,0.901700,0.331412,0.901700,0.391131,0.882296,0.391131,0.882296,$1*%
%AMFreePoly2*
4,1,25,0.585770,1.352196,0.597893,1.341842,1.341842,0.597893,1.370349,0.541945,1.371600,0.526051,1.371600,-0.526051,1.352196,-0.585770,1.341842,-0.597893,0.597893,-1.341842,0.541945,-1.370349,0.526051,-1.371600,-0.526051,-1.371600,-0.585770,-1.352196,-0.597893,-1.341842,-1.341842,-0.597893,-1.370349,-0.541945,-1.371600,-0.526051,-1.371600,0.526051,-1.352196,0.585770,-1.341842,0.597893,
-0.597893,1.341842,-0.541945,1.370349,-0.526051,1.371600,0.526051,1.371600,0.585770,1.352196,0.585770,1.352196,$1*%
G04 Aperture macros list end*
%ADD10O,2.844800X1.524000*%
%ADD11FreePoly0,0.000000*%
%ADD12C,1.803400*%
%ADD13FreePoly1,270.000000*%
%ADD14FreePoly0,180.000000*%
%ADD15FreePoly0,270.000000*%
%ADD16O,0.903200X1.603200*%
%ADD17O,3.048000X1.625600*%
%ADD18FreePoly2,0.000000*%
%ADD19O,3.803200X2.003200*%
G04 APERTURE END LIST*
D10*
%TO.C,IC1*%
X151206100Y-112618600D03*
X151206100Y-115158600D03*
X151206100Y-117698600D03*
X151206100Y-120238600D03*
X143586100Y-120238600D03*
X143586100Y-117698600D03*
X143586100Y-115158600D03*
X143586100Y-112618600D03*
%TD*%
D11*
%TO.C,R1*%
X151206100Y-110078600D03*
X143586100Y-110078600D03*
%TD*%
D12*
%TO.C,C1*%
X158826100Y-110078600D03*
D13*
X158826100Y-112618600D03*
%TD*%
D14*
%TO.C,R2*%
X143586100Y-125318600D03*
X151206100Y-125318600D03*
%TD*%
%TO.C,R5*%
X143586100Y-122778600D03*
X151206100Y-122778600D03*
%TD*%
D15*
%TO.C,C5*%
X153746100Y-115158600D03*
X153746100Y-112618600D03*
%TD*%
D16*
%TO.C,IC2*%
X143586100Y-83408600D03*
X144856100Y-83408600D03*
X146126100Y-83408600D03*
%TD*%
D17*
%TO.C,J2*%
X137236100Y-120238600D03*
X137236100Y-117698600D03*
X137236100Y-115158600D03*
%TD*%
D18*
%TO.C,VDD0*%
X158826100Y-96108600D03*
%TD*%
%TO.C,GND0*%
X137871100Y-96108600D03*
%TD*%
D19*
%TO.C,X2*%
X160096100Y-125318600D03*
X160096100Y-122778600D03*
X160096100Y-120238600D03*
X160096100Y-117698600D03*
%TD*%
D11*
%TO.C,R3*%
X151206100Y-127858600D03*
X143586100Y-127858600D03*
%TD*%
D16*
%TO.C,IC3*%
X149936100Y-83408600D03*
X151206100Y-83408600D03*
X152476100Y-83408600D03*
%TD*%
%TO.C,IC4*%
X156286100Y-83408600D03*
X157556100Y-83408600D03*
X158826100Y-83408600D03*
%TD*%
D11*
%TO.C,C2*%
X161366100Y-85948600D03*
X158826100Y-85948600D03*
%TD*%
M02*
