%TF.GenerationSoftware,KiCad,Pcbnew,8.0.6*%
%TF.CreationDate,2025-06-26T12:50:08+02:00*%
%TF.ProjectId,PCF8583 1v3,50434638-3538-4332-9031-76332e6b6963,rev?*%
%TF.SameCoordinates,Original*%
%TF.FileFunction,Copper,L1,Top*%
%TF.FilePolarity,Positive*%
%FSLAX46Y46*%
G04 Gerber Fmt 4.6, Leading zero omitted, Abs format (unit mm)*
G04 Created by KiCad (PCBNEW 8.0.6) date 2025-06-26 12:50:08*
%MOMM*%
%LPD*%
G01*
G04 APERTURE LIST*
G04 Aperture macros list*
%AMOutline5P*
0 Free polygon, 5 corners , with rotation*
0 The origin of the aperture is its center*
0 number of corners: always 5*
0 $1 to $10 corner X, Y*
0 $11 Rotation angle, in degrees counterclockwise*
0 create outline with 5 corners*
4,1,5,$1,$2,$3,$4,$5,$6,$7,$8,$9,$10,$1,$2,$11*%
%AMOutline6P*
0 Free polygon, 6 corners , with rotation*
0 The origin of the aperture is its center*
0 number of corners: always 6*
0 $1 to $12 corner X, Y*
0 $13 Rotation angle, in degrees counterclockwise*
0 create outline with 6 corners*
4,1,6,$1,$2,$3,$4,$5,$6,$7,$8,$9,$10,$11,$12,$1,$2,$13*%
%AMOutline7P*
0 Free polygon, 7 corners , with rotation*
0 The origin of the aperture is its center*
0 number of corners: always 7*
0 $1 to $14 corner X, Y*
0 $15 Rotation angle, in degrees counterclockwise*
0 create outline with 7 corners*
4,1,7,$1,$2,$3,$4,$5,$6,$7,$8,$9,$10,$11,$12,$13,$14,$1,$2,$15*%
%AMOutline8P*
0 Free polygon, 8 corners , with rotation*
0 The origin of the aperture is its center*
0 number of corners: always 8*
0 $1 to $16 corner X, Y*
0 $17 Rotation angle, in degrees counterclockwise*
0 create outline with 8 corners*
4,1,8,$1,$2,$3,$4,$5,$6,$7,$8,$9,$10,$11,$12,$13,$14,$15,$16,$1,$2,$17*%
G04 Aperture macros list end*
%ADD10C,0.142240*%
%TA.AperFunction,NonConductor*%
%ADD11C,0.142240*%
%TD*%
%TA.AperFunction,ComponentPad*%
%ADD12O,2.641600X1.320800*%
%TD*%
%TA.AperFunction,ComponentPad*%
%ADD13Outline8P,-0.660400X0.273547X-0.273547X0.660400X0.273547X0.660400X0.660400X0.273547X0.660400X-0.273547X0.273547X-0.660400X-0.273547X-0.660400X-0.660400X-0.273547X0.000000*%
%TD*%
%TA.AperFunction,ComponentPad*%
%ADD14C,1.600200*%
%TD*%
%TA.AperFunction,ComponentPad*%
%ADD15Outline8P,-0.800100X0.331412X-0.331412X0.800100X0.331412X0.800100X0.800100X0.331412X0.800100X-0.331412X0.331412X-0.800100X-0.331412X-0.800100X-0.800100X-0.331412X270.000000*%
%TD*%
%TA.AperFunction,ComponentPad*%
%ADD16Outline8P,-0.660400X0.273547X-0.273547X0.660400X0.273547X0.660400X0.660400X0.273547X0.660400X-0.273547X0.273547X-0.660400X-0.273547X-0.660400X-0.660400X-0.273547X180.000000*%
%TD*%
%TA.AperFunction,ComponentPad*%
%ADD17Outline8P,-0.660400X0.273547X-0.273547X0.660400X0.273547X0.660400X0.660400X0.273547X0.660400X-0.273547X0.273547X-0.660400X-0.273547X-0.660400X-0.660400X-0.273547X270.000000*%
%TD*%
%TA.AperFunction,ComponentPad*%
%ADD18O,0.700000X1.400000*%
%TD*%
%TA.AperFunction,ComponentPad*%
%ADD19O,2.844800X1.422400*%
%TD*%
%TA.AperFunction,ComponentPad*%
%ADD20Outline8P,-1.270000X0.526051X-0.526051X1.270000X0.526051X1.270000X1.270000X0.526051X1.270000X-0.526051X0.526051X-1.270000X-0.526051X-1.270000X-1.270000X-0.526051X0.000000*%
%TD*%
%TA.AperFunction,ComponentPad*%
%ADD21O,3.600000X1.800000*%
%TD*%
%TA.AperFunction,Conductor*%
%ADD22C,0.812800*%
%TD*%
%TA.AperFunction,Conductor*%
%ADD23C,0.406400*%
%TD*%
G04 APERTURE END LIST*
D10*
D11*
X152268517Y-106120835D02*
X151489584Y-106666088D01*
X152268517Y-107055555D02*
X150632757Y-107055555D01*
X150632757Y-107055555D02*
X150632757Y-106432408D01*
X150632757Y-106432408D02*
X150710650Y-106276622D01*
X150710650Y-106276622D02*
X150788544Y-106198728D01*
X150788544Y-106198728D02*
X150944330Y-106120835D01*
X150944330Y-106120835D02*
X151178010Y-106120835D01*
X151178010Y-106120835D02*
X151333797Y-106198728D01*
X151333797Y-106198728D02*
X151411690Y-106276622D01*
X151411690Y-106276622D02*
X151489584Y-106432408D01*
X151489584Y-106432408D02*
X151489584Y-107055555D01*
X150710650Y-104562968D02*
X150632757Y-104718755D01*
X150632757Y-104718755D02*
X150632757Y-104952435D01*
X150632757Y-104952435D02*
X150710650Y-105186115D01*
X150710650Y-105186115D02*
X150866437Y-105341902D01*
X150866437Y-105341902D02*
X151022224Y-105419795D01*
X151022224Y-105419795D02*
X151333797Y-105497688D01*
X151333797Y-105497688D02*
X151567477Y-105497688D01*
X151567477Y-105497688D02*
X151879050Y-105419795D01*
X151879050Y-105419795D02*
X152034837Y-105341902D01*
X152034837Y-105341902D02*
X152190624Y-105186115D01*
X152190624Y-105186115D02*
X152268517Y-104952435D01*
X152268517Y-104952435D02*
X152268517Y-104796648D01*
X152268517Y-104796648D02*
X152190624Y-104562968D01*
X152190624Y-104562968D02*
X152112730Y-104485075D01*
X152112730Y-104485075D02*
X151567477Y-104485075D01*
X151567477Y-104485075D02*
X151567477Y-104796648D01*
X152112730Y-101603022D02*
X152190624Y-101680915D01*
X152190624Y-101680915D02*
X152268517Y-101914595D01*
X152268517Y-101914595D02*
X152268517Y-102070382D01*
X152268517Y-102070382D02*
X152190624Y-102304062D01*
X152190624Y-102304062D02*
X152034837Y-102459849D01*
X152034837Y-102459849D02*
X151879050Y-102537742D01*
X151879050Y-102537742D02*
X151567477Y-102615635D01*
X151567477Y-102615635D02*
X151333797Y-102615635D01*
X151333797Y-102615635D02*
X151022224Y-102537742D01*
X151022224Y-102537742D02*
X150866437Y-102459849D01*
X150866437Y-102459849D02*
X150710650Y-102304062D01*
X150710650Y-102304062D02*
X150632757Y-102070382D01*
X150632757Y-102070382D02*
X150632757Y-101914595D01*
X150632757Y-101914595D02*
X150710650Y-101680915D01*
X150710650Y-101680915D02*
X150788544Y-101603022D01*
X151178010Y-100901982D02*
X152268517Y-100901982D01*
X151333797Y-100901982D02*
X151255904Y-100824089D01*
X151255904Y-100824089D02*
X151178010Y-100668302D01*
X151178010Y-100668302D02*
X151178010Y-100434622D01*
X151178010Y-100434622D02*
X151255904Y-100278835D01*
X151255904Y-100278835D02*
X151411690Y-100200942D01*
X151411690Y-100200942D02*
X152268517Y-100200942D01*
X151178010Y-99655689D02*
X151178010Y-99032542D01*
X150632757Y-99422009D02*
X152034837Y-99422009D01*
X152034837Y-99422009D02*
X152190624Y-99344116D01*
X152190624Y-99344116D02*
X152268517Y-99188329D01*
X152268517Y-99188329D02*
X152268517Y-99032542D01*
X152268517Y-98487289D02*
X151178010Y-98487289D01*
X151489584Y-98487289D02*
X151333797Y-98409396D01*
X151333797Y-98409396D02*
X151255904Y-98331502D01*
X151255904Y-98331502D02*
X151178010Y-98175716D01*
X151178010Y-98175716D02*
X151178010Y-98019929D01*
X150632757Y-96462063D02*
X152268517Y-95916810D01*
X152268517Y-95916810D02*
X150632757Y-95371556D01*
X152268517Y-92723183D02*
X152268517Y-93657903D01*
X152268517Y-93190543D02*
X150632757Y-93190543D01*
X150632757Y-93190543D02*
X150866437Y-93346330D01*
X150866437Y-93346330D02*
X151022224Y-93502117D01*
X151022224Y-93502117D02*
X151100117Y-93657903D01*
X152112730Y-92022143D02*
X152190624Y-91944250D01*
X152190624Y-91944250D02*
X152268517Y-92022143D01*
X152268517Y-92022143D02*
X152190624Y-92100036D01*
X152190624Y-92100036D02*
X152112730Y-92022143D01*
X152112730Y-92022143D02*
X152268517Y-92022143D01*
X150632757Y-91398997D02*
X150632757Y-90386383D01*
X150632757Y-90386383D02*
X151255904Y-90931637D01*
X151255904Y-90931637D02*
X151255904Y-90697957D01*
X151255904Y-90697957D02*
X151333797Y-90542170D01*
X151333797Y-90542170D02*
X151411690Y-90464277D01*
X151411690Y-90464277D02*
X151567477Y-90386383D01*
X151567477Y-90386383D02*
X151956944Y-90386383D01*
X151956944Y-90386383D02*
X152112730Y-90464277D01*
X152112730Y-90464277D02*
X152190624Y-90542170D01*
X152190624Y-90542170D02*
X152268517Y-90697957D01*
X152268517Y-90697957D02*
X152268517Y-91165317D01*
X152268517Y-91165317D02*
X152190624Y-91321103D01*
X152190624Y-91321103D02*
X152112730Y-91398997D01*
D12*
%TO.P,IC1,8*%
%TO.N,VDD*%
X151206100Y-112618600D03*
%TO.P,IC1,7*%
%TO.N,N/C*%
X151206100Y-115158600D03*
%TO.P,IC1,6*%
%TO.N,SCL*%
X151206100Y-117698600D03*
%TO.P,IC1,5*%
%TO.N,SDA*%
X151206100Y-120238600D03*
%TO.P,IC1,4*%
%TO.N,GND*%
X143586100Y-120238600D03*
%TO.P,IC1,3*%
%TO.N,N$2*%
X143586100Y-117698600D03*
%TO.P,IC1,2*%
%TO.N,N/C*%
X143586100Y-115158600D03*
%TO.P,IC1,1*%
%TO.N,CNT*%
X143586100Y-112618600D03*
%TD*%
D13*
%TO.P,R1,2*%
%TO.N,VDD*%
X151206100Y-110078600D03*
%TO.P,R1,1*%
%TO.N,CNT*%
X143586100Y-110078600D03*
%TD*%
D14*
%TO.P,C1,+*%
%TO.N,VDD*%
X158826100Y-110078600D03*
D15*
%TO.P,C1,-*%
%TO.N,GND*%
X158826100Y-112618600D03*
%TD*%
D16*
%TO.P,R2,2*%
%TO.N,VDD*%
X143586100Y-125318600D03*
%TO.P,R2,1*%
%TO.N,SCL*%
X151206100Y-125318600D03*
%TD*%
%TO.P,R5,2*%
%TO.N,VDD*%
X143586100Y-122778600D03*
%TO.P,R5,1*%
%TO.N,SDA*%
X151206100Y-122778600D03*
%TD*%
D17*
%TO.P,C5,2*%
%TO.N,GND*%
X153746100Y-115158600D03*
%TO.P,C5,1*%
%TO.N,VDD*%
X153746100Y-112618600D03*
%TD*%
D18*
%TO.P,IC2,3*%
%TO.N,CNT*%
X143586100Y-83408600D03*
%TO.P,IC2,2*%
%TO.N,GND*%
X144856100Y-83408600D03*
%TO.P,IC2,1*%
%TO.N,VDD*%
X146126100Y-83408600D03*
%TD*%
D19*
%TO.P,J2,3*%
%TO.N,VDD*%
X137236100Y-120238600D03*
%TO.P,J2,2*%
%TO.N,N$2*%
X137236100Y-117698600D03*
%TO.P,J2,1*%
%TO.N,GND*%
X137236100Y-115158600D03*
%TD*%
D20*
%TO.P,VDD0,1*%
%TO.N,VDD*%
X158826100Y-96108600D03*
%TD*%
%TO.P,GND0,1*%
%TO.N,GND*%
X137871100Y-96108600D03*
%TD*%
D21*
%TO.P,X2,4*%
%TO.N,N$1*%
X160096100Y-125318600D03*
%TO.P,X2,3*%
%TO.N,GND*%
X160096100Y-122778600D03*
%TO.P,X2,2*%
%TO.N,SDA*%
X160096100Y-120238600D03*
%TO.P,X2,1*%
%TO.N,SCL*%
X160096100Y-117698600D03*
%TD*%
D13*
%TO.P,R3,2*%
%TO.N,N$1*%
X151206100Y-127858600D03*
%TO.P,R3,1*%
%TO.N,VDD*%
X143586100Y-127858600D03*
%TD*%
D18*
%TO.P,IC3,3*%
%TO.N,CNT*%
X149936100Y-83408600D03*
%TO.P,IC3,2*%
%TO.N,GND*%
X151206100Y-83408600D03*
%TO.P,IC3,1*%
%TO.N,VDD*%
X152476100Y-83408600D03*
%TD*%
%TO.P,IC4,3*%
%TO.N,CNT*%
X156286100Y-83408600D03*
%TO.P,IC4,2*%
%TO.N,GND*%
X157556100Y-83408600D03*
%TO.P,IC4,1*%
%TO.N,VDD*%
X158826100Y-83408600D03*
%TD*%
D13*
%TO.P,C2,2*%
%TO.N,GND*%
X161366100Y-85948600D03*
%TO.P,C2,1*%
%TO.N,VDD*%
X158826100Y-85948600D03*
%TD*%
D22*
%TO.N,N$1*%
X160096100Y-126588600D02*
X160096100Y-125318600D01*
X158826100Y-127858600D02*
X160096100Y-126588600D01*
X151206100Y-127858600D02*
X158826100Y-127858600D01*
%TO.N,SCL*%
X151206100Y-117698600D02*
X160096100Y-117698600D01*
X149936100Y-125318600D02*
X151206100Y-125318600D01*
X148666100Y-124048600D02*
X149936100Y-125318600D01*
X148666100Y-118968600D02*
X148666100Y-124048600D01*
X149936100Y-117698600D02*
X148666100Y-118968600D01*
X151206100Y-117698600D02*
X149936100Y-117698600D01*
%TO.N,N$2*%
X143586100Y-117698600D02*
X137236100Y-117698600D01*
D23*
%TO.N,CNT*%
X144856100Y-80868600D02*
X149936100Y-80868600D01*
X143586100Y-82138600D02*
X144856100Y-80868600D01*
X143586100Y-83408600D02*
X143586100Y-82138600D01*
X149936100Y-80868600D02*
X149936100Y-83408600D01*
X155016100Y-80868600D02*
X149936100Y-80868600D01*
X156286100Y-82138600D02*
X155016100Y-80868600D01*
X156286100Y-83408600D02*
X156286100Y-82138600D01*
D22*
X143586100Y-110078600D02*
X143586100Y-112618600D01*
X143586100Y-83408600D02*
X143586100Y-110078600D01*
%TO.N,VDD*%
X152476100Y-85948600D02*
X158826100Y-85948600D01*
X152476100Y-83408600D02*
X152476100Y-85948600D01*
X147396100Y-85948600D02*
X152476100Y-85948600D01*
X146126100Y-84678600D02*
X147396100Y-85948600D01*
X146126100Y-83408600D02*
X146126100Y-84678600D01*
X158826100Y-85948600D02*
X158826100Y-96108600D01*
X158826100Y-83408600D02*
X158826100Y-85948600D01*
X151206100Y-112618600D02*
X153746100Y-112618600D01*
X151206100Y-110078600D02*
X151206100Y-112618600D01*
X158826100Y-110078600D02*
X151206100Y-110078600D01*
X158826100Y-96108600D02*
X158826100Y-110078600D01*
X143586100Y-125318600D02*
X143586100Y-127858600D01*
X144856100Y-122778600D02*
X143586100Y-122778600D01*
X146126100Y-121508600D02*
X144856100Y-122778600D01*
X146126100Y-113888600D02*
X146126100Y-121508600D01*
X147396100Y-112618600D02*
X146126100Y-113888600D01*
X151206100Y-112618600D02*
X147396100Y-112618600D01*
X138506100Y-122778600D02*
X143586100Y-122778600D01*
X137236100Y-121508600D02*
X138506100Y-122778600D01*
X137236100Y-120238600D02*
X137236100Y-121508600D01*
X143586100Y-125318600D02*
X143586100Y-122778600D01*
%TO.N,SDA*%
X151206100Y-120238600D02*
X160096100Y-120238600D01*
X151206100Y-120238600D02*
X151206100Y-122778600D01*
%TD*%
M02*
