M48
; DRILL file {KiCad 8.0.6} date 2025-06-26T12:50:18+0200
; FORMAT={-:-/ absolute / inch / decimal}
; #@! TF.CreationDate,2025-06-26T12:50:18+02:00
; #@! TF.GenerationSoftware,Kicad,Pcbnew,8.0.6
; #@! TF.FileFunction,Plated,1,2,PTH
FMAT,2
INCH
; #@! TA.AperFunction,Plated,PTH,ComponentDrill
T1C0.0236
; #@! TA.AperFunction,Plated,PTH,ComponentDrill
T2C0.0320
; #@! TA.AperFunction,Plated,PTH,ComponentDrill
T3C0.0360
; #@! TA.AperFunction,Plated,PTH,ComponentDrill
T4C0.0400
; #@! TA.AperFunction,Plated,PTH,ComponentDrill
T5C0.0472
%
G90
G05
T1
X5.653Y-3.2838
X5.703Y-3.2838
X5.753Y-3.2838
X5.903Y-3.2838
X5.953Y-3.2838
X6.003Y-3.2838
X6.153Y-3.2838
X6.203Y-3.2838
X6.253Y-3.2838
T2
X5.653Y-4.3338
X5.653Y-4.4338
X5.653Y-4.5338
X5.653Y-4.6338
X5.653Y-4.7338
X5.653Y-4.8338
X5.653Y-4.9338
X5.653Y-5.0338
X5.953Y-4.3338
X5.953Y-4.4338
X5.953Y-4.5338
X5.953Y-4.6338
X5.953Y-4.7338
X5.953Y-4.8338
X5.953Y-4.9338
X5.953Y-5.0338
X6.053Y-4.4338
X6.053Y-4.5338
X6.253Y-3.3838
X6.253Y-4.3338
X6.253Y-4.4338
X6.353Y-3.3838
T3
X5.403Y-4.5338
X5.403Y-4.6338
X5.403Y-4.7338
T4
X5.428Y-3.7838
X6.253Y-3.7838
T5
X6.303Y-4.6338
X6.303Y-4.7338
X6.303Y-4.8338
X6.303Y-4.9338
M30
