%TF.GenerationSoftware,KiCad,Pcbnew,8.0.6*%
%TF.CreationDate,2025-07-11T22:44:48+02:00*%
%TF.ProjectId,PCF8583 1v4,50434638-3538-4332-9031-76342e6b6963,rev?*%
%TF.SameCoordinates,Original*%
%TF.FileFunction,Copper,L1,Top*%
%TF.FilePolarity,Positive*%
%FSLAX46Y46*%
G04 Gerber Fmt 4.6, Leading zero omitted, Abs format (unit mm)*
G04 Created by KiCad (PCBNEW 8.0.6) date 2025-07-11 22:44:48*
%MOMM*%
%LPD*%
G01*
G04 APERTURE LIST*
G04 Aperture macros list*
%AMRoundRect*
0 Rectangle with rounded corners*
0 $1 Rounding radius*
0 $2 $3 $4 $5 $6 $7 $8 $9 X,Y pos of 4 corners*
0 Add a 4 corners polygon primitive as box body*
4,1,4,$2,$3,$4,$5,$6,$7,$8,$9,$2,$3,0*
0 Add four circle primitives for the rounded corners*
1,1,$1+$1,$2,$3*
1,1,$1+$1,$4,$5*
1,1,$1+$1,$6,$7*
1,1,$1+$1,$8,$9*
0 Add four rect primitives between the rounded corners*
20,1,$1+$1,$2,$3,$4,$5,0*
20,1,$1+$1,$4,$5,$6,$7,0*
20,1,$1+$1,$6,$7,$8,$9,0*
20,1,$1+$1,$8,$9,$2,$3,0*%
%AMRotRect*
0 Rectangle, with rotation*
0 The origin of the aperture is its center*
0 $1 length*
0 $2 width*
0 $3 Rotation angle, in degrees counterclockwise*
0 Add horizontal line*
21,1,$1,$2,0,0,$3*%
%AMOutline5P*
0 Free polygon, 5 corners , with rotation*
0 The origin of the aperture is its center*
0 number of corners: always 5*
0 $1 to $10 corner X, Y*
0 $11 Rotation angle, in degrees counterclockwise*
0 create outline with 5 corners*
4,1,5,$1,$2,$3,$4,$5,$6,$7,$8,$9,$10,$1,$2,$11*%
%AMOutline6P*
0 Free polygon, 6 corners , with rotation*
0 The origin of the aperture is its center*
0 number of corners: always 6*
0 $1 to $12 corner X, Y*
0 $13 Rotation angle, in degrees counterclockwise*
0 create outline with 6 corners*
4,1,6,$1,$2,$3,$4,$5,$6,$7,$8,$9,$10,$11,$12,$1,$2,$13*%
%AMOutline7P*
0 Free polygon, 7 corners , with rotation*
0 The origin of the aperture is its center*
0 number of corners: always 7*
0 $1 to $14 corner X, Y*
0 $15 Rotation angle, in degrees counterclockwise*
0 create outline with 7 corners*
4,1,7,$1,$2,$3,$4,$5,$6,$7,$8,$9,$10,$11,$12,$13,$14,$1,$2,$15*%
%AMOutline8P*
0 Free polygon, 8 corners , with rotation*
0 The origin of the aperture is its center*
0 number of corners: always 8*
0 $1 to $16 corner X, Y*
0 $17 Rotation angle, in degrees counterclockwise*
0 create outline with 8 corners*
4,1,8,$1,$2,$3,$4,$5,$6,$7,$8,$9,$10,$11,$12,$13,$14,$15,$16,$1,$2,$17*%
G04 Aperture macros list end*
%ADD10C,0.142240*%
%TA.AperFunction,NonConductor*%
%ADD11C,0.142240*%
%TD*%
%TA.AperFunction,SMDPad,CuDef*%
%ADD12RotRect,2.600000X3.600000X315.000000*%
%TD*%
%TA.AperFunction,ComponentPad*%
%ADD13R,1.500000X1.500000*%
%TD*%
%TA.AperFunction,ComponentPad*%
%ADD14O,1.500000X1.500000*%
%TD*%
%TA.AperFunction,ComponentPad*%
%ADD15O,0.700000X1.400000*%
%TD*%
%TA.AperFunction,ComponentPad*%
%ADD16Outline8P,-0.660400X0.273547X-0.273547X0.660400X0.273547X0.660400X0.660400X0.273547X0.660400X-0.273547X0.273547X-0.660400X-0.273547X-0.660400X-0.660400X-0.273547X0.000000*%
%TD*%
%TA.AperFunction,ComponentPad*%
%ADD17Outline8P,-0.660400X0.273547X-0.273547X0.660400X0.273547X0.660400X0.660400X0.273547X0.660400X-0.273547X0.273547X-0.660400X-0.273547X-0.660400X-0.660400X-0.273547X180.000000*%
%TD*%
%TA.AperFunction,ComponentPad*%
%ADD18C,1.600200*%
%TD*%
%TA.AperFunction,ComponentPad*%
%ADD19Outline8P,-0.800100X0.331412X-0.331412X0.800100X0.331412X0.800100X0.800100X0.331412X0.800100X-0.331412X0.331412X-0.800100X-0.331412X-0.800100X-0.800100X-0.331412X270.000000*%
%TD*%
%TA.AperFunction,ComponentPad*%
%ADD20Outline8P,-0.660400X0.273547X-0.273547X0.660400X0.273547X0.660400X0.660400X0.273547X0.660400X-0.273547X0.273547X-0.660400X-0.273547X-0.660400X-0.660400X-0.273547X270.000000*%
%TD*%
%TA.AperFunction,ComponentPad*%
%ADD21O,2.641600X1.320800*%
%TD*%
%TA.AperFunction,SMDPad,CuDef*%
%ADD22RoundRect,0.243750X0.243750X0.456250X-0.243750X0.456250X-0.243750X-0.456250X0.243750X-0.456250X0*%
%TD*%
%TA.AperFunction,ComponentPad*%
%ADD23O,3.600000X1.800000*%
%TD*%
%TA.AperFunction,ComponentPad*%
%ADD24O,2.844800X1.422400*%
%TD*%
%TA.AperFunction,ViaPad*%
%ADD25C,0.600000*%
%TD*%
%TA.AperFunction,Conductor*%
%ADD26C,0.812800*%
%TD*%
%TA.AperFunction,Conductor*%
%ADD27C,0.200000*%
%TD*%
%TA.AperFunction,Conductor*%
%ADD28C,0.406400*%
%TD*%
G04 APERTURE END LIST*
D10*
D11*
X136792417Y-111332235D02*
X136013484Y-111877488D01*
X136792417Y-112266955D02*
X135156657Y-112266955D01*
X135156657Y-112266955D02*
X135156657Y-111643808D01*
X135156657Y-111643808D02*
X135234550Y-111488022D01*
X135234550Y-111488022D02*
X135312444Y-111410128D01*
X135312444Y-111410128D02*
X135468230Y-111332235D01*
X135468230Y-111332235D02*
X135701910Y-111332235D01*
X135701910Y-111332235D02*
X135857697Y-111410128D01*
X135857697Y-111410128D02*
X135935590Y-111488022D01*
X135935590Y-111488022D02*
X136013484Y-111643808D01*
X136013484Y-111643808D02*
X136013484Y-112266955D01*
X135234550Y-109774368D02*
X135156657Y-109930155D01*
X135156657Y-109930155D02*
X135156657Y-110163835D01*
X135156657Y-110163835D02*
X135234550Y-110397515D01*
X135234550Y-110397515D02*
X135390337Y-110553302D01*
X135390337Y-110553302D02*
X135546124Y-110631195D01*
X135546124Y-110631195D02*
X135857697Y-110709088D01*
X135857697Y-110709088D02*
X136091377Y-110709088D01*
X136091377Y-110709088D02*
X136402950Y-110631195D01*
X136402950Y-110631195D02*
X136558737Y-110553302D01*
X136558737Y-110553302D02*
X136714524Y-110397515D01*
X136714524Y-110397515D02*
X136792417Y-110163835D01*
X136792417Y-110163835D02*
X136792417Y-110008048D01*
X136792417Y-110008048D02*
X136714524Y-109774368D01*
X136714524Y-109774368D02*
X136636630Y-109696475D01*
X136636630Y-109696475D02*
X136091377Y-109696475D01*
X136091377Y-109696475D02*
X136091377Y-110008048D01*
X136636630Y-106814422D02*
X136714524Y-106892315D01*
X136714524Y-106892315D02*
X136792417Y-107125995D01*
X136792417Y-107125995D02*
X136792417Y-107281782D01*
X136792417Y-107281782D02*
X136714524Y-107515462D01*
X136714524Y-107515462D02*
X136558737Y-107671249D01*
X136558737Y-107671249D02*
X136402950Y-107749142D01*
X136402950Y-107749142D02*
X136091377Y-107827035D01*
X136091377Y-107827035D02*
X135857697Y-107827035D01*
X135857697Y-107827035D02*
X135546124Y-107749142D01*
X135546124Y-107749142D02*
X135390337Y-107671249D01*
X135390337Y-107671249D02*
X135234550Y-107515462D01*
X135234550Y-107515462D02*
X135156657Y-107281782D01*
X135156657Y-107281782D02*
X135156657Y-107125995D01*
X135156657Y-107125995D02*
X135234550Y-106892315D01*
X135234550Y-106892315D02*
X135312444Y-106814422D01*
X135701910Y-106113382D02*
X136792417Y-106113382D01*
X135857697Y-106113382D02*
X135779804Y-106035489D01*
X135779804Y-106035489D02*
X135701910Y-105879702D01*
X135701910Y-105879702D02*
X135701910Y-105646022D01*
X135701910Y-105646022D02*
X135779804Y-105490235D01*
X135779804Y-105490235D02*
X135935590Y-105412342D01*
X135935590Y-105412342D02*
X136792417Y-105412342D01*
X135701910Y-104867089D02*
X135701910Y-104243942D01*
X135156657Y-104633409D02*
X136558737Y-104633409D01*
X136558737Y-104633409D02*
X136714524Y-104555516D01*
X136714524Y-104555516D02*
X136792417Y-104399729D01*
X136792417Y-104399729D02*
X136792417Y-104243942D01*
X136792417Y-103698689D02*
X135701910Y-103698689D01*
X136013484Y-103698689D02*
X135857697Y-103620796D01*
X135857697Y-103620796D02*
X135779804Y-103542902D01*
X135779804Y-103542902D02*
X135701910Y-103387116D01*
X135701910Y-103387116D02*
X135701910Y-103231329D01*
X135156657Y-101673463D02*
X136792417Y-101128210D01*
X136792417Y-101128210D02*
X135156657Y-100582956D01*
X136792417Y-97934583D02*
X136792417Y-98869303D01*
X136792417Y-98401943D02*
X135156657Y-98401943D01*
X135156657Y-98401943D02*
X135390337Y-98557730D01*
X135390337Y-98557730D02*
X135546124Y-98713517D01*
X135546124Y-98713517D02*
X135624017Y-98869303D01*
X136636630Y-97233543D02*
X136714524Y-97155650D01*
X136714524Y-97155650D02*
X136792417Y-97233543D01*
X136792417Y-97233543D02*
X136714524Y-97311436D01*
X136714524Y-97311436D02*
X136636630Y-97233543D01*
X136636630Y-97233543D02*
X136792417Y-97233543D01*
X135701910Y-95753570D02*
X136792417Y-95753570D01*
X135078764Y-96143037D02*
X136247164Y-96532503D01*
X136247164Y-96532503D02*
X136247164Y-95519890D01*
D12*
%TO.P,CR2032,1*%
%TO.N,N/C*%
X160609114Y-106609114D03*
%TO.P,CR2032,2*%
%TO.N,GND*%
X139890886Y-85890886D03*
%TD*%
D13*
%TO.P,D1,1*%
%TO.N,VDD*%
X143685000Y-128000000D03*
D14*
%TO.P,D1,2*%
%TO.N,N$1*%
X151305000Y-128000000D03*
%TD*%
D15*
%TO.P,IC4,1*%
%TO.N,VDD*%
X158826100Y-83408600D03*
%TO.P,IC4,2*%
%TO.N,GND*%
X157556100Y-83408600D03*
%TO.P,IC4,3*%
%TO.N,CNT*%
X156286100Y-83408600D03*
%TD*%
D16*
%TO.P,R1,1*%
%TO.N,CNT*%
X143586100Y-110078600D03*
%TO.P,R1,2*%
%TO.N,VDD*%
X151206100Y-110078600D03*
%TD*%
D15*
%TO.P,IC3,1*%
%TO.N,VDD*%
X152476100Y-83408600D03*
%TO.P,IC3,2*%
%TO.N,GND*%
X151206100Y-83408600D03*
%TO.P,IC3,3*%
%TO.N,CNT*%
X149936100Y-83408600D03*
%TD*%
D16*
%TO.P,C2,1*%
%TO.N,VDD*%
X158826100Y-85948600D03*
%TO.P,C2,2*%
%TO.N,GND*%
X161366100Y-85948600D03*
%TD*%
D15*
%TO.P,IC2,1*%
%TO.N,VDD*%
X146126100Y-83408600D03*
%TO.P,IC2,2*%
%TO.N,GND*%
X144856100Y-83408600D03*
%TO.P,IC2,3*%
%TO.N,CNT*%
X143586100Y-83408600D03*
%TD*%
D17*
%TO.P,R2,1*%
%TO.N,SDA*%
X151206100Y-122778600D03*
%TO.P,R2,2*%
%TO.N,VDD*%
X143586100Y-122778600D03*
%TD*%
D18*
%TO.P,C3,+*%
%TO.N,VDD*%
X159250000Y-111980000D03*
D19*
%TO.P,C3,-*%
%TO.N,GND*%
X159250000Y-114520000D03*
%TD*%
D17*
%TO.P,R3,1*%
%TO.N,SCL*%
X151206100Y-125318600D03*
%TO.P,R3,2*%
%TO.N,VDD*%
X143586100Y-125318600D03*
%TD*%
D20*
%TO.P,C1,1*%
%TO.N,VDD*%
X153746100Y-112618600D03*
%TO.P,C1,2*%
%TO.N,GND*%
X153746100Y-115158600D03*
%TD*%
D21*
%TO.P,IC1,1*%
%TO.N,CNT*%
X143586100Y-112618600D03*
%TO.P,IC1,2*%
%TO.N,N/C*%
X143586100Y-115158600D03*
%TO.P,IC1,3*%
%TO.N,N$2*%
X143586100Y-117698600D03*
%TO.P,IC1,4*%
%TO.N,GND*%
X143586100Y-120238600D03*
%TO.P,IC1,5*%
%TO.N,SDA*%
X151206100Y-120238600D03*
%TO.P,IC1,6*%
%TO.N,SCL*%
X151206100Y-117698600D03*
%TO.P,IC1,7*%
%TO.N,N/C*%
X151206100Y-115158600D03*
%TO.P,IC1,8*%
%TO.N,VDD*%
X151206100Y-112618600D03*
%TD*%
D22*
%TO.P,D2,2*%
%TO.N,VDD*%
X154375000Y-110250000D03*
%TO.P,D2,1*%
%TO.N,N/C*%
X156250000Y-110250000D03*
%TD*%
D23*
%TO.P,X2,1*%
%TO.N,SCL*%
X160096100Y-117698600D03*
%TO.P,X2,2*%
%TO.N,SDA*%
X160096100Y-120238600D03*
%TO.P,X2,3*%
%TO.N,GND*%
X160096100Y-122778600D03*
%TO.P,X2,4*%
%TO.N,N$1*%
X160096100Y-125318600D03*
%TD*%
D24*
%TO.P,J2,1*%
%TO.N,GND*%
X137236100Y-115158600D03*
%TO.P,J2,2*%
%TO.N,N$2*%
X137236100Y-117698600D03*
%TO.P,J2,3*%
%TO.N,VDD*%
X137236100Y-120238600D03*
%TD*%
D25*
%TO.N,GND*%
X139500000Y-86750000D03*
X139500000Y-85500000D03*
X140750000Y-85500000D03*
%TD*%
D26*
%TO.N,*%
X156250000Y-110250000D02*
X159890886Y-106609114D01*
D27*
X159890886Y-106609114D02*
X160609114Y-106609114D01*
D26*
%TO.N,VDD*%
X152476100Y-85948600D02*
X154250000Y-85948600D01*
D27*
X154375000Y-86073600D02*
X154250000Y-85948600D01*
D26*
X154375000Y-110250000D02*
X154375000Y-86073600D01*
X154375000Y-110250000D02*
X151377500Y-110250000D01*
D27*
X151377500Y-110250000D02*
X151206100Y-110078600D01*
D26*
X153746100Y-112618600D02*
X158611400Y-112618600D01*
X158611400Y-112618600D02*
X159250000Y-111980000D01*
X147396100Y-85948600D02*
X152476100Y-85948600D01*
X154250000Y-85948600D02*
X158826100Y-85948600D01*
%TO.N,SDA*%
X151206100Y-120238600D02*
X160096100Y-120238600D01*
X151206100Y-120238600D02*
X151206100Y-122778600D01*
%TO.N,VDD*%
X151206100Y-110078600D02*
X151206100Y-112618600D01*
X146126100Y-84678600D02*
X147396100Y-85948600D01*
X151206100Y-112618600D02*
X147396100Y-112618600D01*
X151206100Y-112618600D02*
X153746100Y-112618600D01*
X146126100Y-121508600D02*
X144856100Y-122778600D01*
X144856100Y-122778600D02*
X143586100Y-122778600D01*
X143586100Y-125318600D02*
X143586100Y-122778600D01*
X143500000Y-125318600D02*
X143500000Y-127858600D01*
X147396100Y-112618600D02*
X146126100Y-113888600D01*
X146126100Y-113888600D02*
X146126100Y-121508600D01*
X158826100Y-83408600D02*
X158826100Y-85948600D01*
X146126100Y-83408600D02*
X146126100Y-84678600D01*
X137236100Y-121508600D02*
X138506100Y-122778600D01*
X152476100Y-83408600D02*
X152476100Y-85948600D01*
X137236100Y-120238600D02*
X137236100Y-121508600D01*
X138506100Y-122778600D02*
X143586100Y-122778600D01*
%TO.N,CNT*%
X143586100Y-110078600D02*
X143586100Y-112618600D01*
X143586100Y-83408600D02*
X143586100Y-110078600D01*
D28*
X144856100Y-80868600D02*
X149936100Y-80868600D01*
X156286100Y-83408600D02*
X156286100Y-82138600D01*
X149936100Y-80868600D02*
X149936100Y-83408600D01*
X156286100Y-82138600D02*
X155016100Y-80868600D01*
X155016100Y-80868600D02*
X149936100Y-80868600D01*
X143586100Y-83408600D02*
X143586100Y-82138600D01*
X143586100Y-82138600D02*
X144856100Y-80868600D01*
D26*
%TO.N,N$2*%
X143586100Y-117698600D02*
X137236100Y-117698600D01*
%TO.N,SCL*%
X151206100Y-117698600D02*
X160096100Y-117698600D01*
X148666100Y-118968600D02*
X148666100Y-124048600D01*
X149936100Y-117698600D02*
X148666100Y-118968600D01*
X148666100Y-124048600D02*
X149936100Y-125318600D01*
X151206100Y-117698600D02*
X149936100Y-117698600D01*
X149936100Y-125318600D02*
X151206100Y-125318600D01*
%TO.N,N$1*%
X158826100Y-127858600D02*
X160096100Y-126588600D01*
X151206100Y-127858600D02*
X158826100Y-127858600D01*
X160096100Y-126588600D02*
X160096100Y-125318600D01*
%TD*%
M02*
