%TF.GenerationSoftware,KiCad,Pcbnew,8.0.6*%
%TF.CreationDate,2025-07-11T22:44:48+02:00*%
%TF.ProjectId,PCF8583 1v4,50434638-3538-4332-9031-76342e6b6963,rev?*%
%TF.SameCoordinates,Original*%
%TF.FileFunction,Copper,L2,Bot*%
%TF.FilePolarity,Positive*%
%FSLAX46Y46*%
G04 Gerber Fmt 4.6, Leading zero omitted, Abs format (unit mm)*
G04 Created by KiCad (PCBNEW 8.0.6) date 2025-07-11 22:44:48*
%MOMM*%
%LPD*%
G01*
G04 APERTURE LIST*
G04 Aperture macros list*
%AMOutline5P*
0 Free polygon, 5 corners , with rotation*
0 The origin of the aperture is its center*
0 number of corners: always 5*
0 $1 to $10 corner X, Y*
0 $11 Rotation angle, in degrees counterclockwise*
0 create outline with 5 corners*
4,1,5,$1,$2,$3,$4,$5,$6,$7,$8,$9,$10,$1,$2,$11*%
%AMOutline6P*
0 Free polygon, 6 corners , with rotation*
0 The origin of the aperture is its center*
0 number of corners: always 6*
0 $1 to $12 corner X, Y*
0 $13 Rotation angle, in degrees counterclockwise*
0 create outline with 6 corners*
4,1,6,$1,$2,$3,$4,$5,$6,$7,$8,$9,$10,$11,$12,$1,$2,$13*%
%AMOutline7P*
0 Free polygon, 7 corners , with rotation*
0 The origin of the aperture is its center*
0 number of corners: always 7*
0 $1 to $14 corner X, Y*
0 $15 Rotation angle, in degrees counterclockwise*
0 create outline with 7 corners*
4,1,7,$1,$2,$3,$4,$5,$6,$7,$8,$9,$10,$11,$12,$13,$14,$1,$2,$15*%
%AMOutline8P*
0 Free polygon, 8 corners , with rotation*
0 The origin of the aperture is its center*
0 number of corners: always 8*
0 $1 to $16 corner X, Y*
0 $17 Rotation angle, in degrees counterclockwise*
0 create outline with 8 corners*
4,1,8,$1,$2,$3,$4,$5,$6,$7,$8,$9,$10,$11,$12,$13,$14,$15,$16,$1,$2,$17*%
G04 Aperture macros list end*
%TA.AperFunction,ComponentPad*%
%ADD10R,1.500000X1.500000*%
%TD*%
%TA.AperFunction,ComponentPad*%
%ADD11O,1.500000X1.500000*%
%TD*%
%TA.AperFunction,ComponentPad*%
%ADD12O,0.700000X1.400000*%
%TD*%
%TA.AperFunction,ComponentPad*%
%ADD13Outline8P,-0.660400X0.273547X-0.273547X0.660400X0.273547X0.660400X0.660400X0.273547X0.660400X-0.273547X0.273547X-0.660400X-0.273547X-0.660400X-0.660400X-0.273547X0.000000*%
%TD*%
%TA.AperFunction,ComponentPad*%
%ADD14Outline8P,-0.660400X0.273547X-0.273547X0.660400X0.273547X0.660400X0.660400X0.273547X0.660400X-0.273547X0.273547X-0.660400X-0.273547X-0.660400X-0.660400X-0.273547X180.000000*%
%TD*%
%TA.AperFunction,ComponentPad*%
%ADD15C,1.600200*%
%TD*%
%TA.AperFunction,ComponentPad*%
%ADD16Outline8P,-0.800100X0.331412X-0.331412X0.800100X0.331412X0.800100X0.800100X0.331412X0.800100X-0.331412X0.331412X-0.800100X-0.331412X-0.800100X-0.800100X-0.331412X270.000000*%
%TD*%
%TA.AperFunction,ComponentPad*%
%ADD17Outline8P,-0.660400X0.273547X-0.273547X0.660400X0.273547X0.660400X0.660400X0.273547X0.660400X-0.273547X0.273547X-0.660400X-0.273547X-0.660400X-0.660400X-0.273547X270.000000*%
%TD*%
%TA.AperFunction,ComponentPad*%
%ADD18O,2.641600X1.320800*%
%TD*%
%TA.AperFunction,ComponentPad*%
%ADD19O,3.600000X1.800000*%
%TD*%
%TA.AperFunction,ComponentPad*%
%ADD20O,2.844800X1.422400*%
%TD*%
%TA.AperFunction,ViaPad*%
%ADD21C,0.600000*%
%TD*%
G04 APERTURE END LIST*
D10*
%TO.P,D1,1*%
%TO.N,VDD*%
X143685000Y-128000000D03*
D11*
%TO.P,D1,2*%
%TO.N,N$1*%
X151305000Y-128000000D03*
%TD*%
D12*
%TO.P,IC4,1*%
%TO.N,VDD*%
X158826100Y-83408600D03*
%TO.P,IC4,2*%
%TO.N,GND*%
X157556100Y-83408600D03*
%TO.P,IC4,3*%
%TO.N,CNT*%
X156286100Y-83408600D03*
%TD*%
D13*
%TO.P,R1,1*%
%TO.N,CNT*%
X143586100Y-110078600D03*
%TO.P,R1,2*%
%TO.N,VDD*%
X151206100Y-110078600D03*
%TD*%
D12*
%TO.P,IC3,1*%
%TO.N,VDD*%
X152476100Y-83408600D03*
%TO.P,IC3,2*%
%TO.N,GND*%
X151206100Y-83408600D03*
%TO.P,IC3,3*%
%TO.N,CNT*%
X149936100Y-83408600D03*
%TD*%
D13*
%TO.P,C2,1*%
%TO.N,VDD*%
X158826100Y-85948600D03*
%TO.P,C2,2*%
%TO.N,GND*%
X161366100Y-85948600D03*
%TD*%
D12*
%TO.P,IC2,1*%
%TO.N,VDD*%
X146126100Y-83408600D03*
%TO.P,IC2,2*%
%TO.N,GND*%
X144856100Y-83408600D03*
%TO.P,IC2,3*%
%TO.N,CNT*%
X143586100Y-83408600D03*
%TD*%
D14*
%TO.P,R2,1*%
%TO.N,SDA*%
X151206100Y-122778600D03*
%TO.P,R2,2*%
%TO.N,VDD*%
X143586100Y-122778600D03*
%TD*%
D15*
%TO.P,C3,+*%
%TO.N,VDD*%
X159250000Y-111980000D03*
D16*
%TO.P,C3,-*%
%TO.N,GND*%
X159250000Y-114520000D03*
%TD*%
D14*
%TO.P,R3,1*%
%TO.N,SCL*%
X151206100Y-125318600D03*
%TO.P,R3,2*%
%TO.N,VDD*%
X143586100Y-125318600D03*
%TD*%
D17*
%TO.P,C1,1*%
%TO.N,VDD*%
X153746100Y-112618600D03*
%TO.P,C1,2*%
%TO.N,GND*%
X153746100Y-115158600D03*
%TD*%
D18*
%TO.P,IC1,1*%
%TO.N,CNT*%
X143586100Y-112618600D03*
%TO.P,IC1,2*%
%TO.N,N/C*%
X143586100Y-115158600D03*
%TO.P,IC1,3*%
%TO.N,N$2*%
X143586100Y-117698600D03*
%TO.P,IC1,4*%
%TO.N,GND*%
X143586100Y-120238600D03*
%TO.P,IC1,5*%
%TO.N,SDA*%
X151206100Y-120238600D03*
%TO.P,IC1,6*%
%TO.N,SCL*%
X151206100Y-117698600D03*
%TO.P,IC1,7*%
%TO.N,N/C*%
X151206100Y-115158600D03*
%TO.P,IC1,8*%
%TO.N,VDD*%
X151206100Y-112618600D03*
%TD*%
D19*
%TO.P,X2,1*%
%TO.N,SCL*%
X160096100Y-117698600D03*
%TO.P,X2,2*%
%TO.N,SDA*%
X160096100Y-120238600D03*
%TO.P,X2,3*%
%TO.N,GND*%
X160096100Y-122778600D03*
%TO.P,X2,4*%
%TO.N,N$1*%
X160096100Y-125318600D03*
%TD*%
D20*
%TO.P,J2,1*%
%TO.N,GND*%
X137236100Y-115158600D03*
%TO.P,J2,2*%
%TO.N,N$2*%
X137236100Y-117698600D03*
%TO.P,J2,3*%
%TO.N,VDD*%
X137236100Y-120238600D03*
%TD*%
D21*
%TO.N,GND*%
X139500000Y-86750000D03*
X139500000Y-85500000D03*
X140750000Y-85500000D03*
%TD*%
%TA.AperFunction,Conductor*%
%TO.N,GND*%
G36*
X162797831Y-80684613D02*
G01*
X162834376Y-80734913D01*
X162839300Y-80766000D01*
X162839300Y-129231200D01*
X162820087Y-129290331D01*
X162769787Y-129326876D01*
X162738700Y-129331800D01*
X134593500Y-129331800D01*
X134534369Y-129312587D01*
X134497824Y-129262287D01*
X134492900Y-129231200D01*
X134492900Y-127229936D01*
X142731300Y-127229936D01*
X142731300Y-128770063D01*
X142743118Y-128829479D01*
X142743119Y-128829480D01*
X142788140Y-128896860D01*
X142855520Y-128941881D01*
X142914936Y-128953700D01*
X142914937Y-128953700D01*
X144455063Y-128953700D01*
X144455064Y-128953700D01*
X144514480Y-128941881D01*
X144581860Y-128896860D01*
X144626881Y-128829480D01*
X144638700Y-128770064D01*
X144638700Y-128000000D01*
X150346685Y-128000000D01*
X150365099Y-128186958D01*
X150365099Y-128186960D01*
X150365100Y-128186963D01*
X150419629Y-128366726D01*
X150419632Y-128366733D01*
X150508185Y-128532404D01*
X150508190Y-128532411D01*
X150627369Y-128677631D01*
X150739998Y-128770063D01*
X150772588Y-128796809D01*
X150772595Y-128796814D01*
X150938266Y-128885367D01*
X150938273Y-128885370D01*
X151084570Y-128929747D01*
X151118042Y-128939901D01*
X151305000Y-128958315D01*
X151491958Y-128939901D01*
X151633847Y-128896860D01*
X151671726Y-128885370D01*
X151671733Y-128885367D01*
X151837404Y-128796814D01*
X151837405Y-128796812D01*
X151837411Y-128796810D01*
X151982631Y-128677631D01*
X152101810Y-128532411D01*
X152190368Y-128366731D01*
X152244901Y-128186958D01*
X152263315Y-128000000D01*
X152244901Y-127813042D01*
X152234747Y-127779570D01*
X152190370Y-127633273D01*
X152190367Y-127633266D01*
X152101814Y-127467595D01*
X152101809Y-127467588D01*
X151982631Y-127322369D01*
X151837411Y-127203190D01*
X151837404Y-127203185D01*
X151671733Y-127114632D01*
X151671726Y-127114629D01*
X151491963Y-127060100D01*
X151491960Y-127060099D01*
X151491958Y-127060099D01*
X151305000Y-127041685D01*
X151118042Y-127060099D01*
X151118040Y-127060099D01*
X151118036Y-127060100D01*
X150938273Y-127114629D01*
X150938266Y-127114632D01*
X150772595Y-127203185D01*
X150772588Y-127203190D01*
X150627369Y-127322369D01*
X150508190Y-127467588D01*
X150508185Y-127467595D01*
X150419632Y-127633266D01*
X150419629Y-127633273D01*
X150365100Y-127813036D01*
X150365099Y-127813040D01*
X150365099Y-127813042D01*
X150346685Y-128000000D01*
X144638700Y-128000000D01*
X144638700Y-127229936D01*
X144626881Y-127170520D01*
X144581860Y-127103140D01*
X144517445Y-127060100D01*
X144514479Y-127058118D01*
X144466882Y-127048650D01*
X144455064Y-127046300D01*
X142914936Y-127046300D01*
X142905078Y-127048260D01*
X142855520Y-127058118D01*
X142788140Y-127103140D01*
X142743118Y-127170520D01*
X142731300Y-127229936D01*
X134492900Y-127229936D01*
X134492900Y-125024988D01*
X142721999Y-125024988D01*
X142721999Y-125612215D01*
X142733817Y-125671625D01*
X142733817Y-125671626D01*
X142733818Y-125671627D01*
X142767475Y-125721998D01*
X143182704Y-126137226D01*
X143233073Y-126170882D01*
X143292488Y-126182700D01*
X143879712Y-126182701D01*
X143939127Y-126170882D01*
X143989498Y-126137225D01*
X144404726Y-125721996D01*
X144438382Y-125671627D01*
X144450200Y-125612212D01*
X144450201Y-125024988D01*
X150341999Y-125024988D01*
X150341999Y-125612215D01*
X150353817Y-125671625D01*
X150353817Y-125671626D01*
X150353818Y-125671627D01*
X150387475Y-125721998D01*
X150802704Y-126137226D01*
X150853073Y-126170882D01*
X150912488Y-126182700D01*
X151499712Y-126182701D01*
X151559127Y-126170882D01*
X151609498Y-126137225D01*
X152024726Y-125721996D01*
X152058382Y-125671627D01*
X152070200Y-125612212D01*
X152070201Y-125024988D01*
X152058382Y-124965573D01*
X152024725Y-124915202D01*
X151609496Y-124499974D01*
X151609494Y-124499972D01*
X151574729Y-124476743D01*
X151559127Y-124466318D01*
X151559126Y-124466317D01*
X151559125Y-124466317D01*
X151499709Y-124454499D01*
X150912484Y-124454499D01*
X150853074Y-124466317D01*
X150802705Y-124499972D01*
X150387474Y-124915204D01*
X150387472Y-124915205D01*
X150353817Y-124965574D01*
X150341999Y-125024988D01*
X144450201Y-125024988D01*
X144438382Y-124965573D01*
X144404725Y-124915202D01*
X143989496Y-124499974D01*
X143989494Y-124499972D01*
X143954729Y-124476743D01*
X143939127Y-124466318D01*
X143939126Y-124466317D01*
X143939125Y-124466317D01*
X143879709Y-124454499D01*
X143292484Y-124454499D01*
X143233074Y-124466317D01*
X143182705Y-124499972D01*
X142767474Y-124915204D01*
X142767472Y-124915205D01*
X142733817Y-124965574D01*
X142721999Y-125024988D01*
X134492900Y-125024988D01*
X134492900Y-122484988D01*
X142721999Y-122484988D01*
X142721999Y-123072215D01*
X142733817Y-123131625D01*
X142733817Y-123131626D01*
X142733818Y-123131627D01*
X142767475Y-123181998D01*
X143182704Y-123597226D01*
X143233073Y-123630882D01*
X143292488Y-123642700D01*
X143879712Y-123642701D01*
X143939127Y-123630882D01*
X143989498Y-123597225D01*
X144404726Y-123181996D01*
X144438382Y-123131627D01*
X144450200Y-123072212D01*
X144450201Y-122484988D01*
X150341999Y-122484988D01*
X150341999Y-123072215D01*
X150353817Y-123131625D01*
X150353817Y-123131626D01*
X150353818Y-123131627D01*
X150387475Y-123181998D01*
X150802704Y-123597226D01*
X150853073Y-123630882D01*
X150912488Y-123642700D01*
X151499712Y-123642701D01*
X151559127Y-123630882D01*
X151609498Y-123597225D01*
X152024726Y-123181996D01*
X152058382Y-123131627D01*
X152070200Y-123072212D01*
X152070201Y-122550400D01*
X157858937Y-122550400D01*
X159536080Y-122550400D01*
X159496100Y-122699609D01*
X159496100Y-122857591D01*
X159536080Y-123006800D01*
X157858937Y-123006800D01*
X157873100Y-123096230D01*
X157873101Y-123096233D01*
X157939074Y-123299277D01*
X158035998Y-123489499D01*
X158036005Y-123489510D01*
X158161494Y-123662233D01*
X158312466Y-123813205D01*
X158485189Y-123938694D01*
X158485200Y-123938701D01*
X158675422Y-124035625D01*
X158829770Y-124085776D01*
X158880070Y-124122321D01*
X158899283Y-124181452D01*
X158880070Y-124240583D01*
X158829771Y-124277128D01*
X158772424Y-124295761D01*
X158617634Y-124374631D01*
X158477089Y-124476743D01*
X158354243Y-124599589D01*
X158252131Y-124740134D01*
X158173260Y-124894925D01*
X158119579Y-125060140D01*
X158119576Y-125060154D01*
X158092400Y-125231732D01*
X158092400Y-125405467D01*
X158119576Y-125577045D01*
X158119579Y-125577059D01*
X158173260Y-125742274D01*
X158252131Y-125897065D01*
X158354243Y-126037610D01*
X158477089Y-126160456D01*
X158617634Y-126262568D01*
X158617633Y-126262568D01*
X158772425Y-126341439D01*
X158937640Y-126395120D01*
X158937642Y-126395120D01*
X158937650Y-126395123D01*
X159109232Y-126422299D01*
X159109234Y-126422300D01*
X159109237Y-126422300D01*
X161082966Y-126422300D01*
X161082966Y-126422299D01*
X161254550Y-126395123D01*
X161419774Y-126341439D01*
X161574565Y-126262569D01*
X161715112Y-126160455D01*
X161837955Y-126037612D01*
X161940069Y-125897065D01*
X162018939Y-125742274D01*
X162072623Y-125577050D01*
X162099800Y-125405463D01*
X162099800Y-125231737D01*
X162099800Y-125231733D01*
X162099799Y-125231732D01*
X162072623Y-125060150D01*
X162072620Y-125060140D01*
X162018939Y-124894925D01*
X161940068Y-124740134D01*
X161837956Y-124599589D01*
X161715110Y-124476743D01*
X161574565Y-124374631D01*
X161574566Y-124374631D01*
X161419774Y-124295760D01*
X161362429Y-124277128D01*
X161312129Y-124240583D01*
X161292916Y-124181452D01*
X161312129Y-124122321D01*
X161362429Y-124085776D01*
X161516777Y-124035625D01*
X161706999Y-123938701D01*
X161707010Y-123938694D01*
X161879733Y-123813205D01*
X162030705Y-123662233D01*
X162156194Y-123489510D01*
X162156201Y-123489499D01*
X162253125Y-123299277D01*
X162319098Y-123096233D01*
X162319099Y-123096230D01*
X162333263Y-123006800D01*
X160656120Y-123006800D01*
X160696100Y-122857591D01*
X160696100Y-122699609D01*
X160656120Y-122550400D01*
X162333263Y-122550400D01*
X162319099Y-122460969D01*
X162319098Y-122460966D01*
X162253125Y-122257922D01*
X162156201Y-122067700D01*
X162156194Y-122067689D01*
X162030705Y-121894966D01*
X161879733Y-121743994D01*
X161707010Y-121618505D01*
X161706999Y-121618498D01*
X161516778Y-121521575D01*
X161362428Y-121471423D01*
X161312129Y-121434878D01*
X161292916Y-121375746D01*
X161312129Y-121316615D01*
X161362428Y-121280071D01*
X161419774Y-121261439D01*
X161574565Y-121182569D01*
X161715112Y-121080455D01*
X161837955Y-120957612D01*
X161940069Y-120817065D01*
X162018939Y-120662274D01*
X162072623Y-120497050D01*
X162099800Y-120325463D01*
X162099800Y-120151737D01*
X162099800Y-120151733D01*
X162099799Y-120151732D01*
X162099286Y-120148490D01*
X162072623Y-119980150D01*
X162018939Y-119814926D01*
X162018939Y-119814925D01*
X161954149Y-119687769D01*
X161940069Y-119660135D01*
X161872700Y-119567410D01*
X161837956Y-119519589D01*
X161715110Y-119396743D01*
X161574565Y-119294631D01*
X161574566Y-119294631D01*
X161419774Y-119215760D01*
X161254559Y-119162079D01*
X161254545Y-119162076D01*
X161082967Y-119134900D01*
X161082963Y-119134900D01*
X159109237Y-119134900D01*
X159109233Y-119134900D01*
X158937654Y-119162076D01*
X158937640Y-119162079D01*
X158772425Y-119215760D01*
X158617634Y-119294631D01*
X158477089Y-119396743D01*
X158354243Y-119519589D01*
X158252131Y-119660134D01*
X158173260Y-119814925D01*
X158119579Y-119980140D01*
X158119576Y-119980154D01*
X158092400Y-120151732D01*
X158092400Y-120325467D01*
X158119576Y-120497045D01*
X158119579Y-120497059D01*
X158173260Y-120662274D01*
X158252131Y-120817065D01*
X158354243Y-120957610D01*
X158477089Y-121080456D01*
X158617634Y-121182568D01*
X158617633Y-121182568D01*
X158772421Y-121261437D01*
X158772423Y-121261437D01*
X158772426Y-121261439D01*
X158829770Y-121280071D01*
X158880070Y-121316615D01*
X158899283Y-121375746D01*
X158880071Y-121434878D01*
X158829771Y-121471423D01*
X158675421Y-121521575D01*
X158485200Y-121618498D01*
X158485189Y-121618505D01*
X158312466Y-121743994D01*
X158161494Y-121894966D01*
X158036005Y-122067689D01*
X158035998Y-122067700D01*
X157939074Y-122257922D01*
X157873101Y-122460966D01*
X157873100Y-122460969D01*
X157858937Y-122550400D01*
X152070201Y-122550400D01*
X152070201Y-122484988D01*
X152058382Y-122425573D01*
X152024725Y-122375202D01*
X151609496Y-121959974D01*
X151609494Y-121959972D01*
X151576068Y-121937637D01*
X151559127Y-121926318D01*
X151559126Y-121926317D01*
X151559125Y-121926317D01*
X151499709Y-121914499D01*
X150912484Y-121914499D01*
X150853074Y-121926317D01*
X150802705Y-121959972D01*
X150387474Y-122375204D01*
X150387472Y-122375205D01*
X150353817Y-122425574D01*
X150341999Y-122484988D01*
X144450201Y-122484988D01*
X144438382Y-122425573D01*
X144404725Y-122375202D01*
X143989496Y-121959974D01*
X143989494Y-121959972D01*
X143956068Y-121937637D01*
X143939127Y-121926318D01*
X143939126Y-121926317D01*
X143939125Y-121926317D01*
X143879709Y-121914499D01*
X143292484Y-121914499D01*
X143233074Y-121926317D01*
X143182705Y-121959972D01*
X142767474Y-122375204D01*
X142767472Y-122375205D01*
X142733817Y-122425574D01*
X142721999Y-122484988D01*
X134492900Y-122484988D01*
X134492900Y-120148490D01*
X135610000Y-120148490D01*
X135610000Y-120328709D01*
X135645159Y-120505469D01*
X135714124Y-120671964D01*
X135714126Y-120671968D01*
X135764527Y-120747398D01*
X135814249Y-120821813D01*
X135814251Y-120821815D01*
X135941685Y-120949249D01*
X136091532Y-121049374D01*
X136140101Y-121069492D01*
X136258030Y-121118340D01*
X136258031Y-121118340D01*
X136258033Y-121118341D01*
X136434790Y-121153500D01*
X136434791Y-121153500D01*
X138037409Y-121153500D01*
X138037410Y-121153500D01*
X138214167Y-121118341D01*
X138380668Y-121049374D01*
X138530515Y-120949249D01*
X138657949Y-120821815D01*
X138758074Y-120671968D01*
X138827041Y-120505467D01*
X138862200Y-120328710D01*
X138862200Y-120148490D01*
X138834732Y-120010400D01*
X141831124Y-120010400D01*
X143248581Y-120010400D01*
X143207395Y-120081735D01*
X143179700Y-120185096D01*
X143179700Y-120292104D01*
X143207395Y-120395465D01*
X143248581Y-120466800D01*
X141831124Y-120466800D01*
X141836401Y-120500124D01*
X141836402Y-120500127D01*
X141890720Y-120667301D01*
X141890721Y-120667303D01*
X141970524Y-120823927D01*
X141970527Y-120823931D01*
X142073851Y-120966144D01*
X142198155Y-121090448D01*
X142340368Y-121193772D01*
X142340372Y-121193775D01*
X142496996Y-121273578D01*
X142496998Y-121273579D01*
X142664172Y-121327897D01*
X142664186Y-121327900D01*
X142837801Y-121355399D01*
X142837803Y-121355400D01*
X143357900Y-121355400D01*
X143357900Y-120576119D01*
X143429235Y-120617305D01*
X143532596Y-120645000D01*
X143639604Y-120645000D01*
X143742965Y-120617305D01*
X143814300Y-120576119D01*
X143814300Y-121355400D01*
X144334397Y-121355400D01*
X144334398Y-121355399D01*
X144508013Y-121327900D01*
X144508027Y-121327897D01*
X144675201Y-121273579D01*
X144675203Y-121273578D01*
X144831827Y-121193775D01*
X144831831Y-121193772D01*
X144974044Y-121090448D01*
X145098348Y-120966144D01*
X145201672Y-120823931D01*
X145201675Y-120823927D01*
X145281478Y-120667303D01*
X145281479Y-120667301D01*
X145335797Y-120500127D01*
X145335798Y-120500124D01*
X145341076Y-120466800D01*
X143923619Y-120466800D01*
X143964805Y-120395465D01*
X143992500Y-120292104D01*
X143992500Y-120185096D01*
X143984032Y-120153494D01*
X149681600Y-120153494D01*
X149681600Y-120323706D01*
X149692669Y-120379353D01*
X149714807Y-120490651D01*
X149779943Y-120647900D01*
X149779947Y-120647909D01*
X149874508Y-120789430D01*
X149994869Y-120909791D01*
X150136390Y-121004352D01*
X150136391Y-121004352D01*
X150136395Y-121004355D01*
X150245080Y-121049374D01*
X150293648Y-121069492D01*
X150293649Y-121069492D01*
X150293651Y-121069493D01*
X150460594Y-121102700D01*
X150460595Y-121102700D01*
X151951605Y-121102700D01*
X151951606Y-121102700D01*
X152118549Y-121069493D01*
X152275805Y-121004355D01*
X152417332Y-120909790D01*
X152537690Y-120789432D01*
X152632255Y-120647905D01*
X152697393Y-120490649D01*
X152730600Y-120323706D01*
X152730600Y-120153494D01*
X152697393Y-119986551D01*
X152694737Y-119980140D01*
X152633458Y-119832200D01*
X152632255Y-119829295D01*
X152622653Y-119814925D01*
X152537691Y-119687769D01*
X152417330Y-119567408D01*
X152275809Y-119472847D01*
X152275800Y-119472843D01*
X152118551Y-119407707D01*
X152007253Y-119385569D01*
X151951606Y-119374500D01*
X150460594Y-119374500D01*
X150418858Y-119382801D01*
X150293648Y-119407707D01*
X150136399Y-119472843D01*
X150136390Y-119472847D01*
X149994869Y-119567408D01*
X149994868Y-119567410D01*
X149874510Y-119687768D01*
X149874508Y-119687769D01*
X149779947Y-119829290D01*
X149779943Y-119829299D01*
X149714807Y-119986548D01*
X149682595Y-120148490D01*
X149681600Y-120153494D01*
X143984032Y-120153494D01*
X143964805Y-120081735D01*
X143923619Y-120010400D01*
X145341076Y-120010400D01*
X145335798Y-119977075D01*
X145335797Y-119977072D01*
X145281479Y-119809898D01*
X145281478Y-119809896D01*
X145201675Y-119653272D01*
X145201672Y-119653268D01*
X145098348Y-119511055D01*
X144974044Y-119386751D01*
X144831831Y-119283427D01*
X144831827Y-119283424D01*
X144675203Y-119203621D01*
X144675201Y-119203620D01*
X144508027Y-119149302D01*
X144508013Y-119149299D01*
X144334398Y-119121800D01*
X143814300Y-119121800D01*
X143814300Y-119901080D01*
X143742965Y-119859895D01*
X143639604Y-119832200D01*
X143532596Y-119832200D01*
X143429235Y-119859895D01*
X143357900Y-119901080D01*
X143357900Y-119121800D01*
X142837802Y-119121800D01*
X142664186Y-119149299D01*
X142664172Y-119149302D01*
X142496998Y-119203620D01*
X142496996Y-119203621D01*
X142340372Y-119283424D01*
X142340368Y-119283427D01*
X142198155Y-119386751D01*
X142073851Y-119511055D01*
X141970527Y-119653268D01*
X141970524Y-119653272D01*
X141890721Y-119809896D01*
X141890720Y-119809898D01*
X141836402Y-119977072D01*
X141836401Y-119977075D01*
X141831124Y-120010400D01*
X138834732Y-120010400D01*
X138827041Y-119971733D01*
X138758074Y-119805232D01*
X138657949Y-119655385D01*
X138530515Y-119527951D01*
X138530513Y-119527949D01*
X138448040Y-119472843D01*
X138380668Y-119427826D01*
X138380665Y-119427824D01*
X138380664Y-119427824D01*
X138214169Y-119358859D01*
X138096329Y-119335419D01*
X138037410Y-119323700D01*
X136434790Y-119323700D01*
X136390600Y-119332489D01*
X136258030Y-119358859D01*
X136091535Y-119427824D01*
X135941686Y-119527949D01*
X135941685Y-119527951D01*
X135814251Y-119655385D01*
X135814249Y-119655386D01*
X135714124Y-119805235D01*
X135645159Y-119971730D01*
X135610000Y-120148490D01*
X134492900Y-120148490D01*
X134492900Y-117608490D01*
X135610000Y-117608490D01*
X135610000Y-117788709D01*
X135645159Y-117965469D01*
X135714124Y-118131964D01*
X135714126Y-118131968D01*
X135764527Y-118207398D01*
X135814249Y-118281813D01*
X135814251Y-118281815D01*
X135941685Y-118409249D01*
X136091532Y-118509374D01*
X136140101Y-118529492D01*
X136258030Y-118578340D01*
X136258031Y-118578340D01*
X136258033Y-118578341D01*
X136434790Y-118613500D01*
X136434791Y-118613500D01*
X138037409Y-118613500D01*
X138037410Y-118613500D01*
X138214167Y-118578341D01*
X138380668Y-118509374D01*
X138530515Y-118409249D01*
X138657949Y-118281815D01*
X138758074Y-118131968D01*
X138827041Y-117965467D01*
X138862200Y-117788710D01*
X138862200Y-117613494D01*
X142061600Y-117613494D01*
X142061600Y-117783706D01*
X142072669Y-117839353D01*
X142094807Y-117950651D01*
X142159943Y-118107900D01*
X142159947Y-118107909D01*
X142254508Y-118249430D01*
X142374869Y-118369791D01*
X142516390Y-118464352D01*
X142516391Y-118464352D01*
X142516395Y-118464355D01*
X142625080Y-118509374D01*
X142673648Y-118529492D01*
X142673649Y-118529492D01*
X142673651Y-118529493D01*
X142840594Y-118562700D01*
X142840595Y-118562700D01*
X144331605Y-118562700D01*
X144331606Y-118562700D01*
X144498549Y-118529493D01*
X144655805Y-118464355D01*
X144797332Y-118369790D01*
X144917690Y-118249432D01*
X145012255Y-118107905D01*
X145077393Y-117950649D01*
X145110600Y-117783706D01*
X145110600Y-117613494D01*
X149681600Y-117613494D01*
X149681600Y-117783706D01*
X149692669Y-117839353D01*
X149714807Y-117950651D01*
X149779943Y-118107900D01*
X149779947Y-118107909D01*
X149874508Y-118249430D01*
X149994869Y-118369791D01*
X150136390Y-118464352D01*
X150136391Y-118464352D01*
X150136395Y-118464355D01*
X150245080Y-118509374D01*
X150293648Y-118529492D01*
X150293649Y-118529492D01*
X150293651Y-118529493D01*
X150460594Y-118562700D01*
X150460595Y-118562700D01*
X151951605Y-118562700D01*
X151951606Y-118562700D01*
X152118549Y-118529493D01*
X152275805Y-118464355D01*
X152417332Y-118369790D01*
X152537690Y-118249432D01*
X152632255Y-118107905D01*
X152697393Y-117950649D01*
X152730600Y-117783706D01*
X152730600Y-117613494D01*
X152730250Y-117611732D01*
X158092400Y-117611732D01*
X158092400Y-117785467D01*
X158119576Y-117957045D01*
X158119579Y-117957059D01*
X158173260Y-118122274D01*
X158252131Y-118277065D01*
X158354243Y-118417610D01*
X158477089Y-118540456D01*
X158617634Y-118642568D01*
X158617633Y-118642568D01*
X158772425Y-118721439D01*
X158937640Y-118775120D01*
X158937642Y-118775120D01*
X158937650Y-118775123D01*
X159109232Y-118802299D01*
X159109234Y-118802300D01*
X159109237Y-118802300D01*
X161082966Y-118802300D01*
X161082966Y-118802299D01*
X161254550Y-118775123D01*
X161419774Y-118721439D01*
X161574565Y-118642569D01*
X161715112Y-118540455D01*
X161837955Y-118417612D01*
X161940069Y-118277065D01*
X162018939Y-118122274D01*
X162072623Y-117957050D01*
X162099800Y-117785463D01*
X162099800Y-117611737D01*
X162099800Y-117611733D01*
X162099799Y-117611732D01*
X162099286Y-117608490D01*
X162072623Y-117440150D01*
X162018939Y-117274926D01*
X162018939Y-117274925D01*
X161954149Y-117147769D01*
X161940069Y-117120135D01*
X161872700Y-117027410D01*
X161837956Y-116979589D01*
X161715110Y-116856743D01*
X161574565Y-116754631D01*
X161574566Y-116754631D01*
X161419774Y-116675760D01*
X161254559Y-116622079D01*
X161254545Y-116622076D01*
X161082967Y-116594900D01*
X161082963Y-116594900D01*
X159109237Y-116594900D01*
X159109233Y-116594900D01*
X158937654Y-116622076D01*
X158937640Y-116622079D01*
X158772425Y-116675760D01*
X158617634Y-116754631D01*
X158477089Y-116856743D01*
X158354243Y-116979589D01*
X158252131Y-117120134D01*
X158173260Y-117274925D01*
X158119579Y-117440140D01*
X158119576Y-117440154D01*
X158092400Y-117611732D01*
X152730250Y-117611732D01*
X152697393Y-117446551D01*
X152694737Y-117440140D01*
X152679821Y-117404129D01*
X152632255Y-117289295D01*
X152622653Y-117274925D01*
X152537691Y-117147769D01*
X152417330Y-117027408D01*
X152275809Y-116932847D01*
X152275800Y-116932843D01*
X152118551Y-116867707D01*
X152007253Y-116845569D01*
X151951606Y-116834500D01*
X150460594Y-116834500D01*
X150418858Y-116842801D01*
X150293648Y-116867707D01*
X150136399Y-116932843D01*
X150136390Y-116932847D01*
X149994869Y-117027408D01*
X149994868Y-117027410D01*
X149874510Y-117147768D01*
X149874508Y-117147769D01*
X149779947Y-117289290D01*
X149779943Y-117289299D01*
X149714807Y-117446548D01*
X149682595Y-117608490D01*
X149681600Y-117613494D01*
X145110600Y-117613494D01*
X145077393Y-117446551D01*
X145074737Y-117440140D01*
X145059821Y-117404129D01*
X145012255Y-117289295D01*
X145002653Y-117274925D01*
X144917691Y-117147769D01*
X144797330Y-117027408D01*
X144655809Y-116932847D01*
X144655800Y-116932843D01*
X144498551Y-116867707D01*
X144387253Y-116845569D01*
X144331606Y-116834500D01*
X142840594Y-116834500D01*
X142798858Y-116842801D01*
X142673648Y-116867707D01*
X142516399Y-116932843D01*
X142516390Y-116932847D01*
X142374869Y-117027408D01*
X142374868Y-117027410D01*
X142254510Y-117147768D01*
X142254508Y-117147769D01*
X142159947Y-117289290D01*
X142159943Y-117289299D01*
X142094807Y-117446548D01*
X142062595Y-117608490D01*
X142061600Y-117613494D01*
X138862200Y-117613494D01*
X138862200Y-117608490D01*
X138827041Y-117431733D01*
X138758074Y-117265232D01*
X138657949Y-117115385D01*
X138530515Y-116987951D01*
X138530513Y-116987949D01*
X138448040Y-116932843D01*
X138380668Y-116887826D01*
X138380665Y-116887824D01*
X138380664Y-116887824D01*
X138214169Y-116818859D01*
X138096329Y-116795419D01*
X138037410Y-116783700D01*
X136434790Y-116783700D01*
X136390600Y-116792489D01*
X136258030Y-116818859D01*
X136091535Y-116887824D01*
X135941686Y-116987949D01*
X135941685Y-116987951D01*
X135814251Y-117115385D01*
X135814249Y-117115386D01*
X135714124Y-117265235D01*
X135645159Y-117431730D01*
X135610000Y-117608490D01*
X134492900Y-117608490D01*
X134492900Y-114930400D01*
X135378891Y-114930400D01*
X136839923Y-114930400D01*
X136810058Y-114982127D01*
X136778900Y-115098408D01*
X136778900Y-115218792D01*
X136810058Y-115335073D01*
X136839923Y-115386800D01*
X135378891Y-115386800D01*
X135386052Y-115432020D01*
X135386053Y-115432023D01*
X135442843Y-115606805D01*
X135442844Y-115606807D01*
X135526276Y-115770552D01*
X135526279Y-115770556D01*
X135634303Y-115919238D01*
X135764261Y-116049196D01*
X135912943Y-116157220D01*
X135912947Y-116157223D01*
X136076692Y-116240655D01*
X136076694Y-116240656D01*
X136251476Y-116297446D01*
X136251490Y-116297449D01*
X136433003Y-116326199D01*
X136433005Y-116326200D01*
X137007900Y-116326200D01*
X137007900Y-115554777D01*
X137059627Y-115584642D01*
X137175908Y-115615800D01*
X137296292Y-115615800D01*
X137412573Y-115584642D01*
X137464300Y-115554777D01*
X137464300Y-116326200D01*
X138039195Y-116326200D01*
X138039196Y-116326199D01*
X138220709Y-116297449D01*
X138220723Y-116297446D01*
X138395505Y-116240656D01*
X138395507Y-116240655D01*
X138559252Y-116157223D01*
X138559256Y-116157220D01*
X138707938Y-116049196D01*
X138837896Y-115919238D01*
X138945920Y-115770556D01*
X138945923Y-115770552D01*
X139029355Y-115606807D01*
X139029356Y-115606805D01*
X139086146Y-115432023D01*
X139086147Y-115432020D01*
X139093309Y-115386800D01*
X137632277Y-115386800D01*
X137662142Y-115335073D01*
X137693300Y-115218792D01*
X137693300Y-115098408D01*
X137686624Y-115073494D01*
X142061600Y-115073494D01*
X142061600Y-115243705D01*
X142094807Y-115410651D01*
X142159943Y-115567900D01*
X142159947Y-115567909D01*
X142254508Y-115709430D01*
X142374869Y-115829791D01*
X142516390Y-115924352D01*
X142516391Y-115924352D01*
X142516395Y-115924355D01*
X142631229Y-115971921D01*
X142673648Y-115989492D01*
X142673649Y-115989492D01*
X142673651Y-115989493D01*
X142840594Y-116022700D01*
X142840595Y-116022700D01*
X144331605Y-116022700D01*
X144331606Y-116022700D01*
X144498549Y-115989493D01*
X144655805Y-115924355D01*
X144797332Y-115829790D01*
X144917690Y-115709432D01*
X145012255Y-115567905D01*
X145077393Y-115410649D01*
X145110600Y-115243706D01*
X145110600Y-115073494D01*
X149681600Y-115073494D01*
X149681600Y-115243705D01*
X149714807Y-115410651D01*
X149779943Y-115567900D01*
X149779947Y-115567909D01*
X149874508Y-115709430D01*
X149994869Y-115829791D01*
X150136390Y-115924352D01*
X150136391Y-115924352D01*
X150136395Y-115924355D01*
X150251229Y-115971921D01*
X150293648Y-115989492D01*
X150293649Y-115989492D01*
X150293651Y-115989493D01*
X150460594Y-116022700D01*
X150460595Y-116022700D01*
X151951605Y-116022700D01*
X151951606Y-116022700D01*
X152118549Y-115989493D01*
X152275805Y-115924355D01*
X152417332Y-115829790D01*
X152537690Y-115709432D01*
X152544872Y-115698681D01*
X152593693Y-115660190D01*
X152655819Y-115657745D01*
X152707518Y-115692284D01*
X152707754Y-115692585D01*
X152733134Y-115725028D01*
X152733141Y-115725036D01*
X153179675Y-116171568D01*
X153179682Y-116171574D01*
X153234343Y-116214334D01*
X153361450Y-116266983D01*
X153430346Y-116275399D01*
X153430351Y-116275400D01*
X153517900Y-116275400D01*
X153517900Y-115496119D01*
X153589235Y-115537305D01*
X153692596Y-115565000D01*
X153799604Y-115565000D01*
X153902965Y-115537305D01*
X153974300Y-115496119D01*
X153974300Y-116275400D01*
X154061847Y-116275400D01*
X154130752Y-116266982D01*
X154130754Y-116266982D01*
X154257857Y-116214334D01*
X154312528Y-116171565D01*
X154312536Y-116171558D01*
X154759068Y-115725024D01*
X154759074Y-115725017D01*
X154801834Y-115670356D01*
X154854483Y-115543249D01*
X154862899Y-115474353D01*
X154862900Y-115474348D01*
X154862900Y-115386800D01*
X154083619Y-115386800D01*
X154124805Y-115315465D01*
X154152500Y-115212104D01*
X154152500Y-115105096D01*
X154124805Y-115001735D01*
X154083619Y-114930400D01*
X154862901Y-114930400D01*
X154862901Y-114842860D01*
X154862900Y-114842857D01*
X154854482Y-114773947D01*
X154854482Y-114773945D01*
X154843818Y-114748200D01*
X157993499Y-114748200D01*
X157993499Y-114893607D01*
X158001917Y-114962517D01*
X158001917Y-114962519D01*
X158054565Y-115089622D01*
X158097334Y-115144293D01*
X158097341Y-115144301D01*
X158625710Y-115672668D01*
X158625717Y-115672674D01*
X158680378Y-115715434D01*
X158807485Y-115768083D01*
X158876381Y-115776499D01*
X158876386Y-115776500D01*
X159021800Y-115776500D01*
X159021800Y-114857519D01*
X159093135Y-114898705D01*
X159196496Y-114926400D01*
X159303504Y-114926400D01*
X159406865Y-114898705D01*
X159478200Y-114857519D01*
X159478200Y-115776500D01*
X159623612Y-115776500D01*
X159692517Y-115768082D01*
X159692519Y-115768082D01*
X159819622Y-115715434D01*
X159874293Y-115672665D01*
X159874301Y-115672658D01*
X160402668Y-115144289D01*
X160402674Y-115144282D01*
X160445434Y-115089621D01*
X160498083Y-114962514D01*
X160506499Y-114893618D01*
X160506500Y-114893613D01*
X160506500Y-114748200D01*
X159587519Y-114748200D01*
X159628705Y-114676865D01*
X159656400Y-114573504D01*
X159656400Y-114466496D01*
X159628705Y-114363135D01*
X159587519Y-114291800D01*
X160506501Y-114291800D01*
X160506501Y-114146395D01*
X160506500Y-114146392D01*
X160498082Y-114077482D01*
X160498082Y-114077480D01*
X160445434Y-113950377D01*
X160402665Y-113895706D01*
X160402658Y-113895698D01*
X159874289Y-113367331D01*
X159874282Y-113367325D01*
X159819621Y-113324565D01*
X159692514Y-113271916D01*
X159623618Y-113263500D01*
X159623613Y-113263499D01*
X159478200Y-113263499D01*
X159478200Y-114182480D01*
X159406865Y-114141295D01*
X159303504Y-114113600D01*
X159196496Y-114113600D01*
X159093135Y-114141295D01*
X159021800Y-114182480D01*
X159021800Y-113263499D01*
X158876392Y-113263499D01*
X158807482Y-113271917D01*
X158807480Y-113271917D01*
X158680377Y-113324565D01*
X158625706Y-113367334D01*
X158625698Y-113367341D01*
X158097331Y-113895710D01*
X158097325Y-113895717D01*
X158054565Y-113950378D01*
X158001916Y-114077485D01*
X157993500Y-114146381D01*
X157993500Y-114291800D01*
X158912481Y-114291800D01*
X158871295Y-114363135D01*
X158843600Y-114466496D01*
X158843600Y-114573504D01*
X158871295Y-114676865D01*
X158912481Y-114748200D01*
X157993499Y-114748200D01*
X154843818Y-114748200D01*
X154801834Y-114646842D01*
X154759065Y-114592171D01*
X154759058Y-114592163D01*
X154312524Y-114145631D01*
X154312517Y-114145625D01*
X154257856Y-114102865D01*
X154130749Y-114050216D01*
X154061854Y-114041800D01*
X154061849Y-114041799D01*
X153974300Y-114041799D01*
X153974300Y-114821080D01*
X153902965Y-114779895D01*
X153799604Y-114752200D01*
X153692596Y-114752200D01*
X153589235Y-114779895D01*
X153517900Y-114821080D01*
X153517900Y-114041799D01*
X153430357Y-114041799D01*
X153361447Y-114050217D01*
X153361445Y-114050217D01*
X153234342Y-114102865D01*
X153179671Y-114145634D01*
X153179663Y-114145641D01*
X152733131Y-114592175D01*
X152733123Y-114592184D01*
X152707754Y-114624614D01*
X152656187Y-114659349D01*
X152594053Y-114657140D01*
X152545083Y-114618832D01*
X152545009Y-114618722D01*
X152537690Y-114607768D01*
X152417332Y-114487410D01*
X152417330Y-114487408D01*
X152275809Y-114392847D01*
X152275800Y-114392843D01*
X152118551Y-114327707D01*
X152007253Y-114305569D01*
X151951606Y-114294500D01*
X150460594Y-114294500D01*
X150418858Y-114302801D01*
X150293648Y-114327707D01*
X150136399Y-114392843D01*
X150136390Y-114392847D01*
X149994869Y-114487408D01*
X149994868Y-114487410D01*
X149874510Y-114607768D01*
X149874508Y-114607769D01*
X149779947Y-114749290D01*
X149779943Y-114749299D01*
X149714807Y-114906548D01*
X149681600Y-115073494D01*
X145110600Y-115073494D01*
X145077393Y-114906551D01*
X145072031Y-114893607D01*
X145013458Y-114752200D01*
X145012255Y-114749295D01*
X145011523Y-114748200D01*
X144917691Y-114607769D01*
X144797330Y-114487408D01*
X144655809Y-114392847D01*
X144655800Y-114392843D01*
X144498551Y-114327707D01*
X144387253Y-114305569D01*
X144331606Y-114294500D01*
X142840594Y-114294500D01*
X142798858Y-114302801D01*
X142673648Y-114327707D01*
X142516399Y-114392843D01*
X142516390Y-114392847D01*
X142374869Y-114487408D01*
X142374868Y-114487410D01*
X142254510Y-114607768D01*
X142254508Y-114607769D01*
X142159947Y-114749290D01*
X142159943Y-114749299D01*
X142094807Y-114906548D01*
X142061600Y-115073494D01*
X137686624Y-115073494D01*
X137662142Y-114982127D01*
X137632277Y-114930400D01*
X139093309Y-114930400D01*
X139086147Y-114885179D01*
X139086146Y-114885176D01*
X139029356Y-114710394D01*
X139029355Y-114710392D01*
X138945923Y-114546647D01*
X138945920Y-114546643D01*
X138837896Y-114397961D01*
X138707938Y-114268003D01*
X138559256Y-114159979D01*
X138559252Y-114159976D01*
X138395507Y-114076544D01*
X138395505Y-114076543D01*
X138220723Y-114019753D01*
X138220709Y-114019750D01*
X138039196Y-113991000D01*
X137464300Y-113991000D01*
X137464300Y-114762422D01*
X137412573Y-114732558D01*
X137296292Y-114701400D01*
X137175908Y-114701400D01*
X137059627Y-114732558D01*
X137007900Y-114762422D01*
X137007900Y-113991000D01*
X136433004Y-113991000D01*
X136251490Y-114019750D01*
X136251476Y-114019753D01*
X136076694Y-114076543D01*
X136076692Y-114076544D01*
X135912947Y-114159976D01*
X135912943Y-114159979D01*
X135764261Y-114268003D01*
X135634303Y-114397961D01*
X135526279Y-114546643D01*
X135526276Y-114546647D01*
X135442844Y-114710392D01*
X135442843Y-114710394D01*
X135386053Y-114885176D01*
X135386052Y-114885179D01*
X135378891Y-114930400D01*
X134492900Y-114930400D01*
X134492900Y-112533494D01*
X142061600Y-112533494D01*
X142061600Y-112703705D01*
X142094807Y-112870651D01*
X142159943Y-113027900D01*
X142159947Y-113027909D01*
X142254508Y-113169430D01*
X142374869Y-113289791D01*
X142516390Y-113384352D01*
X142516391Y-113384352D01*
X142516395Y-113384355D01*
X142631229Y-113431921D01*
X142673648Y-113449492D01*
X142673649Y-113449492D01*
X142673651Y-113449493D01*
X142840594Y-113482700D01*
X142840595Y-113482700D01*
X144331605Y-113482700D01*
X144331606Y-113482700D01*
X144498549Y-113449493D01*
X144655805Y-113384355D01*
X144797332Y-113289790D01*
X144917690Y-113169432D01*
X145012255Y-113027905D01*
X145077393Y-112870649D01*
X145110600Y-112703706D01*
X145110600Y-112533494D01*
X149681600Y-112533494D01*
X149681600Y-112703705D01*
X149714807Y-112870651D01*
X149779943Y-113027900D01*
X149779947Y-113027909D01*
X149874508Y-113169430D01*
X149994869Y-113289791D01*
X150136390Y-113384352D01*
X150136391Y-113384352D01*
X150136395Y-113384355D01*
X150251229Y-113431921D01*
X150293648Y-113449492D01*
X150293649Y-113449492D01*
X150293651Y-113449493D01*
X150460594Y-113482700D01*
X150460595Y-113482700D01*
X151951605Y-113482700D01*
X151951606Y-113482700D01*
X152118549Y-113449493D01*
X152275805Y-113384355D01*
X152417332Y-113289790D01*
X152537690Y-113169432D01*
X152632255Y-113027905D01*
X152689612Y-112889432D01*
X152729991Y-112842155D01*
X152790447Y-112827641D01*
X152847888Y-112851434D01*
X152880374Y-112904446D01*
X152881221Y-112908303D01*
X152893817Y-112971626D01*
X152893818Y-112971627D01*
X152927475Y-113021998D01*
X153342704Y-113437226D01*
X153393073Y-113470882D01*
X153452488Y-113482700D01*
X154039712Y-113482701D01*
X154099127Y-113470882D01*
X154149498Y-113437225D01*
X154564726Y-113021996D01*
X154598382Y-112971627D01*
X154610200Y-112912212D01*
X154610201Y-112324988D01*
X154598382Y-112265573D01*
X154564725Y-112215202D01*
X154329522Y-111980000D01*
X158241343Y-111980000D01*
X158260724Y-112176779D01*
X158260724Y-112176781D01*
X158260725Y-112176784D01*
X158318119Y-112365990D01*
X158318122Y-112365998D01*
X158411327Y-112540373D01*
X158411332Y-112540380D01*
X158536772Y-112693228D01*
X158689619Y-112818667D01*
X158689626Y-112818672D01*
X158864001Y-112911877D01*
X158864009Y-112911880D01*
X159001882Y-112953702D01*
X159053221Y-112969276D01*
X159250000Y-112988657D01*
X159446779Y-112969276D01*
X159584657Y-112927451D01*
X159635990Y-112911880D01*
X159635992Y-112911879D01*
X159635996Y-112911878D01*
X159635998Y-112911877D01*
X159810373Y-112818672D01*
X159810374Y-112818670D01*
X159810380Y-112818668D01*
X159963228Y-112693228D01*
X160088668Y-112540380D01*
X160158800Y-112409173D01*
X160181877Y-112365998D01*
X160181880Y-112365990D01*
X160212341Y-112265573D01*
X160239276Y-112176779D01*
X160258657Y-111980000D01*
X160239276Y-111783221D01*
X160181878Y-111594004D01*
X160181877Y-111594001D01*
X160088672Y-111419626D01*
X160088667Y-111419619D01*
X159963228Y-111266772D01*
X159810380Y-111141332D01*
X159810373Y-111141327D01*
X159635998Y-111048122D01*
X159635990Y-111048119D01*
X159446784Y-110990725D01*
X159446781Y-110990724D01*
X159446779Y-110990724D01*
X159250000Y-110971343D01*
X159053221Y-110990724D01*
X159053219Y-110990724D01*
X159053215Y-110990725D01*
X158864009Y-111048119D01*
X158864001Y-111048122D01*
X158689626Y-111141327D01*
X158689619Y-111141332D01*
X158536773Y-111266771D01*
X158536771Y-111266773D01*
X158411332Y-111419619D01*
X158411327Y-111419626D01*
X158318122Y-111594001D01*
X158318119Y-111594009D01*
X158260725Y-111783215D01*
X158260724Y-111783219D01*
X158260724Y-111783221D01*
X158241343Y-111980000D01*
X154329522Y-111980000D01*
X154149496Y-111799974D01*
X154149494Y-111799972D01*
X154116068Y-111777637D01*
X154099127Y-111766318D01*
X154099126Y-111766317D01*
X154099125Y-111766317D01*
X154039709Y-111754499D01*
X153452484Y-111754499D01*
X153393074Y-111766317D01*
X153342705Y-111799972D01*
X152927474Y-112215204D01*
X152927472Y-112215205D01*
X152893817Y-112265574D01*
X152881222Y-112328896D01*
X152850842Y-112383143D01*
X152794379Y-112409173D01*
X152733399Y-112397043D01*
X152691196Y-112351387D01*
X152689613Y-112347768D01*
X152634703Y-112215205D01*
X152632255Y-112209295D01*
X152537690Y-112067768D01*
X152417332Y-111947410D01*
X152417330Y-111947408D01*
X152275809Y-111852847D01*
X152275800Y-111852843D01*
X152118551Y-111787707D01*
X152007253Y-111765569D01*
X151951606Y-111754500D01*
X150460594Y-111754500D01*
X150418858Y-111762801D01*
X150293648Y-111787707D01*
X150136399Y-111852843D01*
X150136390Y-111852847D01*
X149994869Y-111947408D01*
X149994868Y-111947410D01*
X149874510Y-112067768D01*
X149874508Y-112067769D01*
X149779947Y-112209290D01*
X149779943Y-112209299D01*
X149714807Y-112366548D01*
X149681600Y-112533494D01*
X145110600Y-112533494D01*
X145077393Y-112366551D01*
X145012255Y-112209295D01*
X144917690Y-112067768D01*
X144797332Y-111947410D01*
X144797330Y-111947408D01*
X144655809Y-111852847D01*
X144655800Y-111852843D01*
X144498551Y-111787707D01*
X144387253Y-111765569D01*
X144331606Y-111754500D01*
X142840594Y-111754500D01*
X142798858Y-111762801D01*
X142673648Y-111787707D01*
X142516399Y-111852843D01*
X142516390Y-111852847D01*
X142374869Y-111947408D01*
X142374868Y-111947410D01*
X142254510Y-112067768D01*
X142254508Y-112067769D01*
X142159947Y-112209290D01*
X142159943Y-112209299D01*
X142094807Y-112366548D01*
X142061600Y-112533494D01*
X134492900Y-112533494D01*
X134492900Y-109784988D01*
X142721999Y-109784988D01*
X142721999Y-110372215D01*
X142733817Y-110431625D01*
X142733817Y-110431626D01*
X142733818Y-110431627D01*
X142767475Y-110481998D01*
X143182704Y-110897226D01*
X143233073Y-110930882D01*
X143292488Y-110942700D01*
X143879712Y-110942701D01*
X143939127Y-110930882D01*
X143989498Y-110897225D01*
X144404726Y-110481996D01*
X144438382Y-110431627D01*
X144450200Y-110372212D01*
X144450201Y-109784988D01*
X150341999Y-109784988D01*
X150341999Y-110372215D01*
X150353817Y-110431625D01*
X150353817Y-110431626D01*
X150353818Y-110431627D01*
X150387475Y-110481998D01*
X150802704Y-110897226D01*
X150853073Y-110930882D01*
X150912488Y-110942700D01*
X151499712Y-110942701D01*
X151559127Y-110930882D01*
X151609498Y-110897225D01*
X152024726Y-110481996D01*
X152058382Y-110431627D01*
X152070200Y-110372212D01*
X152070201Y-109784988D01*
X152058382Y-109725573D01*
X152024725Y-109675202D01*
X151609496Y-109259974D01*
X151609494Y-109259972D01*
X151576068Y-109237637D01*
X151559127Y-109226318D01*
X151559126Y-109226317D01*
X151559125Y-109226317D01*
X151499709Y-109214499D01*
X150912484Y-109214499D01*
X150853074Y-109226317D01*
X150802705Y-109259972D01*
X150387474Y-109675204D01*
X150387472Y-109675205D01*
X150353817Y-109725574D01*
X150341999Y-109784988D01*
X144450201Y-109784988D01*
X144438382Y-109725573D01*
X144404725Y-109675202D01*
X143989496Y-109259974D01*
X143989494Y-109259972D01*
X143956068Y-109237637D01*
X143939127Y-109226318D01*
X143939126Y-109226317D01*
X143939125Y-109226317D01*
X143879709Y-109214499D01*
X143292484Y-109214499D01*
X143233074Y-109226317D01*
X143182705Y-109259972D01*
X142767474Y-109675204D01*
X142767472Y-109675205D01*
X142733817Y-109725574D01*
X142721999Y-109784988D01*
X134492900Y-109784988D01*
X134492900Y-85654988D01*
X157961999Y-85654988D01*
X157961999Y-86242215D01*
X157973817Y-86301625D01*
X157973817Y-86301626D01*
X157973818Y-86301627D01*
X158007475Y-86351998D01*
X158422704Y-86767226D01*
X158473073Y-86800882D01*
X158532488Y-86812700D01*
X159119712Y-86812701D01*
X159179127Y-86800882D01*
X159229498Y-86767225D01*
X159644726Y-86351996D01*
X159678382Y-86301627D01*
X159690200Y-86242212D01*
X159690200Y-86176800D01*
X160249299Y-86176800D01*
X160249299Y-86264342D01*
X160257717Y-86333252D01*
X160257717Y-86333254D01*
X160310365Y-86460357D01*
X160353134Y-86515028D01*
X160353141Y-86515036D01*
X160799675Y-86961568D01*
X160799682Y-86961574D01*
X160854343Y-87004334D01*
X160981450Y-87056983D01*
X161050346Y-87065399D01*
X161050351Y-87065400D01*
X161137900Y-87065400D01*
X161137900Y-86286119D01*
X161209235Y-86327305D01*
X161312596Y-86355000D01*
X161419604Y-86355000D01*
X161522965Y-86327305D01*
X161594300Y-86286119D01*
X161594300Y-87065400D01*
X161681847Y-87065400D01*
X161750752Y-87056982D01*
X161750754Y-87056982D01*
X161877857Y-87004334D01*
X161932528Y-86961565D01*
X161932536Y-86961558D01*
X162379068Y-86515024D01*
X162379074Y-86515017D01*
X162421834Y-86460356D01*
X162474483Y-86333249D01*
X162482899Y-86264353D01*
X162482900Y-86264348D01*
X162482900Y-86176800D01*
X161703619Y-86176800D01*
X161744805Y-86105465D01*
X161772500Y-86002104D01*
X161772500Y-85895096D01*
X161744805Y-85791735D01*
X161703619Y-85720400D01*
X162482901Y-85720400D01*
X162482901Y-85632860D01*
X162482900Y-85632857D01*
X162474482Y-85563947D01*
X162474482Y-85563945D01*
X162421834Y-85436842D01*
X162379065Y-85382171D01*
X162379058Y-85382163D01*
X161932524Y-84935631D01*
X161932517Y-84935625D01*
X161877856Y-84892865D01*
X161750749Y-84840216D01*
X161681854Y-84831800D01*
X161681849Y-84831799D01*
X161594300Y-84831799D01*
X161594300Y-85611080D01*
X161522965Y-85569895D01*
X161419604Y-85542200D01*
X161312596Y-85542200D01*
X161209235Y-85569895D01*
X161137900Y-85611080D01*
X161137900Y-84831799D01*
X161050357Y-84831799D01*
X160981447Y-84840217D01*
X160981445Y-84840217D01*
X160854342Y-84892865D01*
X160799671Y-84935634D01*
X160799663Y-84935641D01*
X160353131Y-85382175D01*
X160353125Y-85382182D01*
X160310365Y-85436843D01*
X160257716Y-85563950D01*
X160249300Y-85632846D01*
X160249300Y-85720400D01*
X161028581Y-85720400D01*
X160987395Y-85791735D01*
X160959700Y-85895096D01*
X160959700Y-86002104D01*
X160987395Y-86105465D01*
X161028581Y-86176800D01*
X160249299Y-86176800D01*
X159690200Y-86176800D01*
X159690201Y-85654988D01*
X159678382Y-85595573D01*
X159644725Y-85545202D01*
X159229496Y-85129974D01*
X159229494Y-85129972D01*
X159196068Y-85107637D01*
X159179127Y-85096318D01*
X159179126Y-85096317D01*
X159179125Y-85096317D01*
X159119709Y-85084499D01*
X158532484Y-85084499D01*
X158473074Y-85096317D01*
X158422705Y-85129972D01*
X158007474Y-85545204D01*
X158007472Y-85545205D01*
X157973817Y-85595574D01*
X157961999Y-85654988D01*
X134492900Y-85654988D01*
X134492900Y-82985699D01*
X143032400Y-82985699D01*
X143032400Y-83831500D01*
X143070132Y-83972316D01*
X143070134Y-83972321D01*
X143143028Y-84098577D01*
X143143030Y-84098580D01*
X143246120Y-84201670D01*
X143372380Y-84274566D01*
X143372381Y-84274566D01*
X143372383Y-84274567D01*
X143513199Y-84312299D01*
X143513201Y-84312299D01*
X143513204Y-84312300D01*
X143513206Y-84312300D01*
X143658994Y-84312300D01*
X143658996Y-84312300D01*
X143799820Y-84274566D01*
X143926080Y-84201670D01*
X143992996Y-84134753D01*
X144048391Y-84106528D01*
X144109800Y-84116253D01*
X144147775Y-84149999D01*
X144229726Y-84272648D01*
X144342051Y-84384973D01*
X144474129Y-84473224D01*
X144620872Y-84534007D01*
X144620888Y-84534012D01*
X144627899Y-84535406D01*
X144627900Y-84535405D01*
X144627900Y-83604665D01*
X144671895Y-83648660D01*
X144740304Y-83688156D01*
X144816604Y-83708600D01*
X144895596Y-83708600D01*
X144971896Y-83688156D01*
X145040305Y-83648660D01*
X145084300Y-83604665D01*
X145084300Y-84535406D01*
X145091311Y-84534012D01*
X145091327Y-84534007D01*
X145238070Y-84473224D01*
X145370148Y-84384973D01*
X145370150Y-84384972D01*
X145482472Y-84272650D01*
X145482473Y-84272648D01*
X145564424Y-84150000D01*
X145613250Y-84111508D01*
X145675377Y-84109067D01*
X145719204Y-84134755D01*
X145786116Y-84201666D01*
X145786120Y-84201670D01*
X145912380Y-84274566D01*
X145912381Y-84274566D01*
X145912383Y-84274567D01*
X146053199Y-84312299D01*
X146053201Y-84312299D01*
X146053204Y-84312300D01*
X146053206Y-84312300D01*
X146198994Y-84312300D01*
X146198996Y-84312300D01*
X146339820Y-84274566D01*
X146466080Y-84201670D01*
X146569170Y-84098580D01*
X146642066Y-83972320D01*
X146679800Y-83831496D01*
X146679800Y-82985704D01*
X146679799Y-82985699D01*
X149382400Y-82985699D01*
X149382400Y-83831500D01*
X149420132Y-83972316D01*
X149420134Y-83972321D01*
X149493028Y-84098577D01*
X149493030Y-84098580D01*
X149596120Y-84201670D01*
X149722380Y-84274566D01*
X149722381Y-84274566D01*
X149722383Y-84274567D01*
X149863199Y-84312299D01*
X149863201Y-84312299D01*
X149863204Y-84312300D01*
X149863206Y-84312300D01*
X150008994Y-84312300D01*
X150008996Y-84312300D01*
X150149820Y-84274566D01*
X150276080Y-84201670D01*
X150342996Y-84134753D01*
X150398391Y-84106528D01*
X150459800Y-84116253D01*
X150497775Y-84149999D01*
X150579726Y-84272648D01*
X150692051Y-84384973D01*
X150824129Y-84473224D01*
X150970872Y-84534007D01*
X150970888Y-84534012D01*
X150977899Y-84535406D01*
X150977900Y-84535405D01*
X150977900Y-83604665D01*
X151021895Y-83648660D01*
X151090304Y-83688156D01*
X151166604Y-83708600D01*
X151245596Y-83708600D01*
X151321896Y-83688156D01*
X151390305Y-83648660D01*
X151434300Y-83604665D01*
X151434300Y-84535406D01*
X151441311Y-84534012D01*
X151441327Y-84534007D01*
X151588070Y-84473224D01*
X151720148Y-84384973D01*
X151720150Y-84384972D01*
X151832472Y-84272650D01*
X151832473Y-84272648D01*
X151914424Y-84150000D01*
X151963250Y-84111508D01*
X152025377Y-84109067D01*
X152069204Y-84134755D01*
X152136116Y-84201666D01*
X152136120Y-84201670D01*
X152262380Y-84274566D01*
X152262381Y-84274566D01*
X152262383Y-84274567D01*
X152403199Y-84312299D01*
X152403201Y-84312299D01*
X152403204Y-84312300D01*
X152403206Y-84312300D01*
X152548994Y-84312300D01*
X152548996Y-84312300D01*
X152689820Y-84274566D01*
X152816080Y-84201670D01*
X152919170Y-84098580D01*
X152992066Y-83972320D01*
X153029800Y-83831496D01*
X153029800Y-82985704D01*
X153029799Y-82985699D01*
X155732400Y-82985699D01*
X155732400Y-83831500D01*
X155770132Y-83972316D01*
X155770134Y-83972321D01*
X155843028Y-84098577D01*
X155843030Y-84098580D01*
X155946120Y-84201670D01*
X156072380Y-84274566D01*
X156072381Y-84274566D01*
X156072383Y-84274567D01*
X156213199Y-84312299D01*
X156213201Y-84312299D01*
X156213204Y-84312300D01*
X156213206Y-84312300D01*
X156358994Y-84312300D01*
X156358996Y-84312300D01*
X156499820Y-84274566D01*
X156626080Y-84201670D01*
X156692996Y-84134753D01*
X156748391Y-84106528D01*
X156809800Y-84116253D01*
X156847775Y-84149999D01*
X156929726Y-84272648D01*
X157042051Y-84384973D01*
X157174129Y-84473224D01*
X157320872Y-84534007D01*
X157320888Y-84534012D01*
X157327899Y-84535406D01*
X157327900Y-84535405D01*
X157327900Y-83604665D01*
X157371895Y-83648660D01*
X157440304Y-83688156D01*
X157516604Y-83708600D01*
X157595596Y-83708600D01*
X157671896Y-83688156D01*
X157740305Y-83648660D01*
X157784300Y-83604665D01*
X157784300Y-84535406D01*
X157791311Y-84534012D01*
X157791327Y-84534007D01*
X157938070Y-84473224D01*
X158070148Y-84384973D01*
X158070150Y-84384972D01*
X158182472Y-84272650D01*
X158182473Y-84272648D01*
X158264424Y-84150000D01*
X158313250Y-84111508D01*
X158375377Y-84109067D01*
X158419204Y-84134755D01*
X158486116Y-84201666D01*
X158486120Y-84201670D01*
X158612380Y-84274566D01*
X158612381Y-84274566D01*
X158612383Y-84274567D01*
X158753199Y-84312299D01*
X158753201Y-84312299D01*
X158753204Y-84312300D01*
X158753206Y-84312300D01*
X158898994Y-84312300D01*
X158898996Y-84312300D01*
X159039820Y-84274566D01*
X159166080Y-84201670D01*
X159269170Y-84098580D01*
X159342066Y-83972320D01*
X159379800Y-83831496D01*
X159379800Y-82985704D01*
X159342066Y-82844880D01*
X159269170Y-82718620D01*
X159166080Y-82615530D01*
X159166077Y-82615528D01*
X159039821Y-82542634D01*
X159039816Y-82542632D01*
X158899000Y-82504900D01*
X158898996Y-82504900D01*
X158753204Y-82504900D01*
X158753199Y-82504900D01*
X158612383Y-82542632D01*
X158612378Y-82542634D01*
X158486122Y-82615528D01*
X158486120Y-82615530D01*
X158419204Y-82682445D01*
X158363806Y-82710671D01*
X158302397Y-82700944D01*
X158264424Y-82667200D01*
X158182470Y-82544548D01*
X158070148Y-82432226D01*
X157938070Y-82343975D01*
X157791320Y-82283189D01*
X157784300Y-82281792D01*
X157784300Y-83212535D01*
X157740305Y-83168540D01*
X157671896Y-83129044D01*
X157595596Y-83108600D01*
X157516604Y-83108600D01*
X157440304Y-83129044D01*
X157371895Y-83168540D01*
X157327900Y-83212535D01*
X157327900Y-82281792D01*
X157320879Y-82283189D01*
X157174129Y-82343975D01*
X157042051Y-82432226D01*
X157042050Y-82432228D01*
X156929729Y-82544548D01*
X156847775Y-82667201D01*
X156798948Y-82705692D01*
X156736822Y-82708133D01*
X156692996Y-82682446D01*
X156626080Y-82615530D01*
X156626077Y-82615528D01*
X156499821Y-82542634D01*
X156499816Y-82542632D01*
X156359000Y-82504900D01*
X156358996Y-82504900D01*
X156213204Y-82504900D01*
X156213199Y-82504900D01*
X156072383Y-82542632D01*
X156072378Y-82542634D01*
X155946122Y-82615528D01*
X155946121Y-82615529D01*
X155946120Y-82615530D01*
X155843030Y-82718620D01*
X155843029Y-82718621D01*
X155843028Y-82718622D01*
X155770134Y-82844878D01*
X155770132Y-82844883D01*
X155732400Y-82985699D01*
X153029799Y-82985699D01*
X152992066Y-82844880D01*
X152919170Y-82718620D01*
X152816080Y-82615530D01*
X152816077Y-82615528D01*
X152689821Y-82542634D01*
X152689816Y-82542632D01*
X152549000Y-82504900D01*
X152548996Y-82504900D01*
X152403204Y-82504900D01*
X152403199Y-82504900D01*
X152262383Y-82542632D01*
X152262378Y-82542634D01*
X152136122Y-82615528D01*
X152136120Y-82615530D01*
X152069204Y-82682445D01*
X152013806Y-82710671D01*
X151952397Y-82700944D01*
X151914424Y-82667200D01*
X151832470Y-82544548D01*
X151720148Y-82432226D01*
X151588070Y-82343975D01*
X151441320Y-82283189D01*
X151434300Y-82281792D01*
X151434300Y-83212535D01*
X151390305Y-83168540D01*
X151321896Y-83129044D01*
X151245596Y-83108600D01*
X151166604Y-83108600D01*
X151090304Y-83129044D01*
X151021895Y-83168540D01*
X150977900Y-83212535D01*
X150977900Y-82281792D01*
X150970879Y-82283189D01*
X150824129Y-82343975D01*
X150692051Y-82432226D01*
X150692050Y-82432228D01*
X150579729Y-82544548D01*
X150497775Y-82667201D01*
X150448948Y-82705692D01*
X150386822Y-82708133D01*
X150342996Y-82682446D01*
X150276080Y-82615530D01*
X150276077Y-82615528D01*
X150149821Y-82542634D01*
X150149816Y-82542632D01*
X150009000Y-82504900D01*
X150008996Y-82504900D01*
X149863204Y-82504900D01*
X149863199Y-82504900D01*
X149722383Y-82542632D01*
X149722378Y-82542634D01*
X149596122Y-82615528D01*
X149596121Y-82615529D01*
X149596120Y-82615530D01*
X149493030Y-82718620D01*
X149493029Y-82718621D01*
X149493028Y-82718622D01*
X149420134Y-82844878D01*
X149420132Y-82844883D01*
X149382400Y-82985699D01*
X146679799Y-82985699D01*
X146642066Y-82844880D01*
X146569170Y-82718620D01*
X146466080Y-82615530D01*
X146466077Y-82615528D01*
X146339821Y-82542634D01*
X146339816Y-82542632D01*
X146199000Y-82504900D01*
X146198996Y-82504900D01*
X146053204Y-82504900D01*
X146053199Y-82504900D01*
X145912383Y-82542632D01*
X145912378Y-82542634D01*
X145786122Y-82615528D01*
X145786120Y-82615530D01*
X145719204Y-82682445D01*
X145663806Y-82710671D01*
X145602397Y-82700944D01*
X145564424Y-82667200D01*
X145482470Y-82544548D01*
X145370148Y-82432226D01*
X145238070Y-82343975D01*
X145091320Y-82283189D01*
X145084300Y-82281792D01*
X145084300Y-83212535D01*
X145040305Y-83168540D01*
X144971896Y-83129044D01*
X144895596Y-83108600D01*
X144816604Y-83108600D01*
X144740304Y-83129044D01*
X144671895Y-83168540D01*
X144627900Y-83212535D01*
X144627900Y-82281792D01*
X144620879Y-82283189D01*
X144474129Y-82343975D01*
X144342051Y-82432226D01*
X144342050Y-82432228D01*
X144229729Y-82544548D01*
X144147775Y-82667201D01*
X144098948Y-82705692D01*
X144036822Y-82708133D01*
X143992996Y-82682446D01*
X143926080Y-82615530D01*
X143926077Y-82615528D01*
X143799821Y-82542634D01*
X143799816Y-82542632D01*
X143659000Y-82504900D01*
X143658996Y-82504900D01*
X143513204Y-82504900D01*
X143513199Y-82504900D01*
X143372383Y-82542632D01*
X143372378Y-82542634D01*
X143246122Y-82615528D01*
X143246121Y-82615529D01*
X143246120Y-82615530D01*
X143143030Y-82718620D01*
X143143029Y-82718621D01*
X143143028Y-82718622D01*
X143070134Y-82844878D01*
X143070132Y-82844883D01*
X143032400Y-82985699D01*
X134492900Y-82985699D01*
X134492900Y-80766000D01*
X134512113Y-80706869D01*
X134562413Y-80670324D01*
X134593500Y-80665400D01*
X162738700Y-80665400D01*
X162797831Y-80684613D01*
G37*
%TD.AperFunction*%
%TD*%
M02*
