%TF.GenerationSoftware,KiCad,Pcbnew,8.0.6*%
%TF.CreationDate,2025-07-11T22:44:48+02:00*%
%TF.ProjectId,PCF8583 1v4,50434638-3538-4332-9031-76342e6b6963,rev?*%
%TF.SameCoordinates,Original*%
%TF.FileFunction,Soldermask,Top*%
%TF.FilePolarity,Negative*%
%FSLAX46Y46*%
G04 Gerber Fmt 4.6, Leading zero omitted, Abs format (unit mm)*
G04 Created by KiCad (PCBNEW 8.0.6) date 2025-07-11 22:44:48*
%MOMM*%
%LPD*%
G01*
G04 APERTURE LIST*
G04 Aperture macros list*
%AMRoundRect*
0 Rectangle with rounded corners*
0 $1 Rounding radius*
0 $2 $3 $4 $5 $6 $7 $8 $9 X,Y pos of 4 corners*
0 Add a 4 corners polygon primitive as box body*
4,1,4,$2,$3,$4,$5,$6,$7,$8,$9,$2,$3,0*
0 Add four circle primitives for the rounded corners*
1,1,$1+$1,$2,$3*
1,1,$1+$1,$4,$5*
1,1,$1+$1,$6,$7*
1,1,$1+$1,$8,$9*
0 Add four rect primitives between the rounded corners*
20,1,$1+$1,$2,$3,$4,$5,0*
20,1,$1+$1,$4,$5,$6,$7,0*
20,1,$1+$1,$6,$7,$8,$9,0*
20,1,$1+$1,$8,$9,$2,$3,0*%
%AMRotRect*
0 Rectangle, with rotation*
0 The origin of the aperture is its center*
0 $1 length*
0 $2 width*
0 $3 Rotation angle, in degrees counterclockwise*
0 Add horizontal line*
21,1,$1,$2,0,0,$3*%
%AMFreePoly0*
4,1,25,0.333266,0.742596,0.345389,0.732242,0.732242,0.345389,0.760749,0.289441,0.762000,0.273547,0.762000,-0.273547,0.742596,-0.333266,0.732242,-0.345389,0.345389,-0.732242,0.289441,-0.760749,0.273547,-0.762000,-0.273547,-0.762000,-0.333266,-0.742596,-0.345389,-0.732242,-0.732242,-0.345389,-0.760749,-0.289441,-0.762000,-0.273547,-0.762000,0.273547,-0.742596,0.333266,-0.732242,0.345389,
-0.345389,0.732242,-0.289441,0.760749,-0.273547,0.762000,0.273547,0.762000,0.333266,0.742596,0.333266,0.742596,$1*%
%AMFreePoly1*
4,1,25,0.391131,0.882296,0.403254,0.871942,0.871942,0.403254,0.900449,0.347306,0.901700,0.331412,0.901700,-0.331412,0.882296,-0.391131,0.871942,-0.403254,0.403254,-0.871942,0.347306,-0.900449,0.331412,-0.901700,-0.331412,-0.901700,-0.391131,-0.882296,-0.403254,-0.871942,-0.871942,-0.403254,-0.900449,-0.347306,-0.901700,-0.331412,-0.901700,0.331412,-0.882296,0.391131,-0.871942,0.403254,
-0.403254,0.871942,-0.347306,0.900449,-0.331412,0.901700,0.331412,0.901700,0.391131,0.882296,0.391131,0.882296,$1*%
G04 Aperture macros list end*
%ADD10RotRect,2.600000X3.600000X315.000000*%
%ADD11R,1.500000X1.500000*%
%ADD12O,1.500000X1.500000*%
%ADD13O,0.903200X1.603200*%
%ADD14FreePoly0,0.000000*%
%ADD15FreePoly0,180.000000*%
%ADD16C,1.803400*%
%ADD17FreePoly1,270.000000*%
%ADD18FreePoly0,270.000000*%
%ADD19O,2.844800X1.524000*%
%ADD20RoundRect,0.243750X0.243750X0.456250X-0.243750X0.456250X-0.243750X-0.456250X0.243750X-0.456250X0*%
%ADD21O,3.803200X2.003200*%
%ADD22O,3.048000X1.625600*%
G04 APERTURE END LIST*
D10*
%TO.C,CR2032*%
X160609114Y-106609114D03*
X139890886Y-85890886D03*
%TD*%
D11*
%TO.C,D1*%
X143685000Y-128000000D03*
D12*
X151305000Y-128000000D03*
%TD*%
D13*
%TO.C,IC4*%
X158826100Y-83408600D03*
X157556100Y-83408600D03*
X156286100Y-83408600D03*
%TD*%
D14*
%TO.C,R1*%
X143586100Y-110078600D03*
X151206100Y-110078600D03*
%TD*%
D13*
%TO.C,IC3*%
X152476100Y-83408600D03*
X151206100Y-83408600D03*
X149936100Y-83408600D03*
%TD*%
D14*
%TO.C,C2*%
X158826100Y-85948600D03*
X161366100Y-85948600D03*
%TD*%
D13*
%TO.C,IC2*%
X146126100Y-83408600D03*
X144856100Y-83408600D03*
X143586100Y-83408600D03*
%TD*%
D15*
%TO.C,R2*%
X151206100Y-122778600D03*
X143586100Y-122778600D03*
%TD*%
D16*
%TO.C,C3*%
X159250000Y-111980000D03*
D17*
X159250000Y-114520000D03*
%TD*%
D15*
%TO.C,R3*%
X151206100Y-125318600D03*
X143586100Y-125318600D03*
%TD*%
D18*
%TO.C,C1*%
X153746100Y-112618600D03*
X153746100Y-115158600D03*
%TD*%
D19*
%TO.C,IC1*%
X143586100Y-112618600D03*
X143586100Y-115158600D03*
X143586100Y-117698600D03*
X143586100Y-120238600D03*
X151206100Y-120238600D03*
X151206100Y-117698600D03*
X151206100Y-115158600D03*
X151206100Y-112618600D03*
%TD*%
D20*
%TO.C,D2*%
X154375000Y-110250000D03*
X156250000Y-110250000D03*
%TD*%
D21*
%TO.C,X2*%
X160096100Y-117698600D03*
X160096100Y-120238600D03*
X160096100Y-122778600D03*
X160096100Y-125318600D03*
%TD*%
D22*
%TO.C,J2*%
X137236100Y-115158600D03*
X137236100Y-117698600D03*
X137236100Y-120238600D03*
%TD*%
M02*
