%TF.GenerationSoftware,KiCad,Pcbnew,8.0.6*%
%TF.CreationDate,2025-07-11T22:44:48+02:00*%
%TF.ProjectId,PCF8583 1v4,50434638-3538-4332-9031-76342e6b6963,rev?*%
%TF.SameCoordinates,Original*%
%TF.FileFunction,Legend,Top*%
%TF.FilePolarity,Positive*%
%FSLAX46Y46*%
G04 Gerber Fmt 4.6, Leading zero omitted, Abs format (unit mm)*
G04 Created by KiCad (PCBNEW 8.0.6) date 2025-07-11 22:44:48*
%MOMM*%
%LPD*%
G01*
G04 APERTURE LIST*
%ADD10C,0.300000*%
%ADD11C,0.062500*%
%ADD12C,0.125000*%
%ADD13C,0.100000*%
%ADD14C,0.142240*%
%ADD15C,0.150000*%
%ADD16C,0.099060*%
%ADD17C,0.101600*%
%ADD18C,0.127000*%
%ADD19C,0.118872*%
%ADD20C,0.120000*%
%ADD21C,0.203200*%
%ADD22C,0.152400*%
%ADD23C,0.000000*%
%ADD24C,0.304800*%
%ADD25C,0.254000*%
G04 APERTURE END LIST*
D10*
X139320542Y-112621679D02*
X139258638Y-112683584D01*
X139258638Y-112683584D02*
X139072923Y-112807393D01*
X139072923Y-112807393D02*
X138949114Y-112869298D01*
X138949114Y-112869298D02*
X138763400Y-112931203D01*
X138763400Y-112931203D02*
X138453876Y-112993108D01*
X138453876Y-112993108D02*
X138206257Y-112993108D01*
X138206257Y-112993108D02*
X137896733Y-112931203D01*
X137896733Y-112931203D02*
X137711019Y-112869298D01*
X137711019Y-112869298D02*
X137587209Y-112807393D01*
X137587209Y-112807393D02*
X137401495Y-112683584D01*
X137401495Y-112683584D02*
X137339590Y-112621679D01*
X138701495Y-111383584D02*
X138763400Y-111445488D01*
X138763400Y-111445488D02*
X138825304Y-111631203D01*
X138825304Y-111631203D02*
X138825304Y-111755012D01*
X138825304Y-111755012D02*
X138763400Y-111940726D01*
X138763400Y-111940726D02*
X138639590Y-112064536D01*
X138639590Y-112064536D02*
X138515780Y-112126441D01*
X138515780Y-112126441D02*
X138268161Y-112188345D01*
X138268161Y-112188345D02*
X138082447Y-112188345D01*
X138082447Y-112188345D02*
X137834828Y-112126441D01*
X137834828Y-112126441D02*
X137711019Y-112064536D01*
X137711019Y-112064536D02*
X137587209Y-111940726D01*
X137587209Y-111940726D02*
X137525304Y-111755012D01*
X137525304Y-111755012D02*
X137525304Y-111631203D01*
X137525304Y-111631203D02*
X137587209Y-111445488D01*
X137587209Y-111445488D02*
X137649114Y-111383584D01*
X139320542Y-110950250D02*
X139258638Y-110888345D01*
X139258638Y-110888345D02*
X139072923Y-110764536D01*
X139072923Y-110764536D02*
X138949114Y-110702631D01*
X138949114Y-110702631D02*
X138763400Y-110640726D01*
X138763400Y-110640726D02*
X138453876Y-110578822D01*
X138453876Y-110578822D02*
X138206257Y-110578822D01*
X138206257Y-110578822D02*
X137896733Y-110640726D01*
X137896733Y-110640726D02*
X137711019Y-110702631D01*
X137711019Y-110702631D02*
X137587209Y-110764536D01*
X137587209Y-110764536D02*
X137401495Y-110888345D01*
X137401495Y-110888345D02*
X137339590Y-110950250D01*
X138825304Y-108969298D02*
X137525304Y-108969298D01*
X138144352Y-108969298D02*
X138144352Y-108226441D01*
X138825304Y-108226441D02*
X137525304Y-108226441D01*
X138825304Y-107050250D02*
X138144352Y-107050250D01*
X138144352Y-107050250D02*
X138020542Y-107112155D01*
X138020542Y-107112155D02*
X137958638Y-107235964D01*
X137958638Y-107235964D02*
X137958638Y-107483583D01*
X137958638Y-107483583D02*
X138020542Y-107607393D01*
X138763400Y-107050250D02*
X138825304Y-107174059D01*
X138825304Y-107174059D02*
X138825304Y-107483583D01*
X138825304Y-107483583D02*
X138763400Y-107607393D01*
X138763400Y-107607393D02*
X138639590Y-107669297D01*
X138639590Y-107669297D02*
X138515780Y-107669297D01*
X138515780Y-107669297D02*
X138391971Y-107607393D01*
X138391971Y-107607393D02*
X138330066Y-107483583D01*
X138330066Y-107483583D02*
X138330066Y-107174059D01*
X138330066Y-107174059D02*
X138268161Y-107050250D01*
X138763400Y-106493107D02*
X138825304Y-106307393D01*
X138825304Y-106307393D02*
X138825304Y-105997869D01*
X138825304Y-105997869D02*
X138763400Y-105874060D01*
X138763400Y-105874060D02*
X138701495Y-105812155D01*
X138701495Y-105812155D02*
X138577685Y-105750250D01*
X138577685Y-105750250D02*
X138453876Y-105750250D01*
X138453876Y-105750250D02*
X138330066Y-105812155D01*
X138330066Y-105812155D02*
X138268161Y-105874060D01*
X138268161Y-105874060D02*
X138206257Y-105997869D01*
X138206257Y-105997869D02*
X138144352Y-106245488D01*
X138144352Y-106245488D02*
X138082447Y-106369298D01*
X138082447Y-106369298D02*
X138020542Y-106431203D01*
X138020542Y-106431203D02*
X137896733Y-106493107D01*
X137896733Y-106493107D02*
X137772923Y-106493107D01*
X137772923Y-106493107D02*
X137649114Y-106431203D01*
X137649114Y-106431203D02*
X137587209Y-106369298D01*
X137587209Y-106369298D02*
X137525304Y-106245488D01*
X137525304Y-106245488D02*
X137525304Y-105935965D01*
X137525304Y-105935965D02*
X137587209Y-105750250D01*
X138763400Y-104635965D02*
X138825304Y-104759774D01*
X138825304Y-104759774D02*
X138825304Y-105007393D01*
X138825304Y-105007393D02*
X138763400Y-105131203D01*
X138763400Y-105131203D02*
X138701495Y-105193108D01*
X138701495Y-105193108D02*
X138577685Y-105255012D01*
X138577685Y-105255012D02*
X138206257Y-105255012D01*
X138206257Y-105255012D02*
X138082447Y-105193108D01*
X138082447Y-105193108D02*
X138020542Y-105131203D01*
X138020542Y-105131203D02*
X137958638Y-105007393D01*
X137958638Y-105007393D02*
X137958638Y-104759774D01*
X137958638Y-104759774D02*
X138020542Y-104635965D01*
X138825304Y-104078822D02*
X137525304Y-104078822D01*
X138825304Y-103521679D02*
X138144352Y-103521679D01*
X138144352Y-103521679D02*
X138020542Y-103583584D01*
X138020542Y-103583584D02*
X137958638Y-103707393D01*
X137958638Y-103707393D02*
X137958638Y-103893107D01*
X137958638Y-103893107D02*
X138020542Y-104016917D01*
X138020542Y-104016917D02*
X138082447Y-104078822D01*
X137649114Y-101974060D02*
X137587209Y-101912156D01*
X137587209Y-101912156D02*
X137525304Y-101788346D01*
X137525304Y-101788346D02*
X137525304Y-101478822D01*
X137525304Y-101478822D02*
X137587209Y-101355013D01*
X137587209Y-101355013D02*
X137649114Y-101293108D01*
X137649114Y-101293108D02*
X137772923Y-101231203D01*
X137772923Y-101231203D02*
X137896733Y-101231203D01*
X137896733Y-101231203D02*
X138082447Y-101293108D01*
X138082447Y-101293108D02*
X138825304Y-102035965D01*
X138825304Y-102035965D02*
X138825304Y-101231203D01*
X137525304Y-100426442D02*
X137525304Y-100302632D01*
X137525304Y-100302632D02*
X137587209Y-100178823D01*
X137587209Y-100178823D02*
X137649114Y-100116918D01*
X137649114Y-100116918D02*
X137772923Y-100055013D01*
X137772923Y-100055013D02*
X138020542Y-99993108D01*
X138020542Y-99993108D02*
X138330066Y-99993108D01*
X138330066Y-99993108D02*
X138577685Y-100055013D01*
X138577685Y-100055013D02*
X138701495Y-100116918D01*
X138701495Y-100116918D02*
X138763400Y-100178823D01*
X138763400Y-100178823D02*
X138825304Y-100302632D01*
X138825304Y-100302632D02*
X138825304Y-100426442D01*
X138825304Y-100426442D02*
X138763400Y-100550251D01*
X138763400Y-100550251D02*
X138701495Y-100612156D01*
X138701495Y-100612156D02*
X138577685Y-100674061D01*
X138577685Y-100674061D02*
X138330066Y-100735965D01*
X138330066Y-100735965D02*
X138020542Y-100735965D01*
X138020542Y-100735965D02*
X137772923Y-100674061D01*
X137772923Y-100674061D02*
X137649114Y-100612156D01*
X137649114Y-100612156D02*
X137587209Y-100550251D01*
X137587209Y-100550251D02*
X137525304Y-100426442D01*
X137649114Y-99497870D02*
X137587209Y-99435966D01*
X137587209Y-99435966D02*
X137525304Y-99312156D01*
X137525304Y-99312156D02*
X137525304Y-99002632D01*
X137525304Y-99002632D02*
X137587209Y-98878823D01*
X137587209Y-98878823D02*
X137649114Y-98816918D01*
X137649114Y-98816918D02*
X137772923Y-98755013D01*
X137772923Y-98755013D02*
X137896733Y-98755013D01*
X137896733Y-98755013D02*
X138082447Y-98816918D01*
X138082447Y-98816918D02*
X138825304Y-99559775D01*
X138825304Y-99559775D02*
X138825304Y-98755013D01*
X137525304Y-97578823D02*
X137525304Y-98197871D01*
X137525304Y-98197871D02*
X138144352Y-98259775D01*
X138144352Y-98259775D02*
X138082447Y-98197871D01*
X138082447Y-98197871D02*
X138020542Y-98074061D01*
X138020542Y-98074061D02*
X138020542Y-97764537D01*
X138020542Y-97764537D02*
X138082447Y-97640728D01*
X138082447Y-97640728D02*
X138144352Y-97578823D01*
X138144352Y-97578823D02*
X138268161Y-97516918D01*
X138268161Y-97516918D02*
X138577685Y-97516918D01*
X138577685Y-97516918D02*
X138701495Y-97578823D01*
X138701495Y-97578823D02*
X138763400Y-97640728D01*
X138763400Y-97640728D02*
X138825304Y-97764537D01*
X138825304Y-97764537D02*
X138825304Y-98074061D01*
X138825304Y-98074061D02*
X138763400Y-98197871D01*
X138763400Y-98197871D02*
X138701495Y-98259775D01*
D11*
X157660165Y-126685559D02*
X157660165Y-126352226D01*
X157660165Y-126185559D02*
X157636356Y-126209369D01*
X157636356Y-126209369D02*
X157660165Y-126233178D01*
X157660165Y-126233178D02*
X157683975Y-126209369D01*
X157683975Y-126209369D02*
X157660165Y-126185559D01*
X157660165Y-126185559D02*
X157660165Y-126233178D01*
X157898260Y-126352226D02*
X157898260Y-126685559D01*
X157898260Y-126399845D02*
X157922070Y-126376035D01*
X157922070Y-126376035D02*
X157969689Y-126352226D01*
X157969689Y-126352226D02*
X158041117Y-126352226D01*
X158041117Y-126352226D02*
X158088736Y-126376035D01*
X158088736Y-126376035D02*
X158112546Y-126423654D01*
X158112546Y-126423654D02*
X158112546Y-126685559D01*
D12*
X154975093Y-125371119D02*
X155594140Y-125371119D01*
X155594140Y-125371119D02*
X155260807Y-125752071D01*
X155260807Y-125752071D02*
X155403664Y-125752071D01*
X155403664Y-125752071D02*
X155498902Y-125799690D01*
X155498902Y-125799690D02*
X155546521Y-125847309D01*
X155546521Y-125847309D02*
X155594140Y-125942547D01*
X155594140Y-125942547D02*
X155594140Y-126180642D01*
X155594140Y-126180642D02*
X155546521Y-126275880D01*
X155546521Y-126275880D02*
X155498902Y-126323500D01*
X155498902Y-126323500D02*
X155403664Y-126371119D01*
X155403664Y-126371119D02*
X155117950Y-126371119D01*
X155117950Y-126371119D02*
X155022712Y-126323500D01*
X155022712Y-126323500D02*
X154975093Y-126275880D01*
X155879855Y-125371119D02*
X156213188Y-126371119D01*
X156213188Y-126371119D02*
X156546521Y-125371119D01*
X156784617Y-125371119D02*
X157403664Y-125371119D01*
X157403664Y-125371119D02*
X157070331Y-125752071D01*
X157070331Y-125752071D02*
X157213188Y-125752071D01*
X157213188Y-125752071D02*
X157308426Y-125799690D01*
X157308426Y-125799690D02*
X157356045Y-125847309D01*
X157356045Y-125847309D02*
X157403664Y-125942547D01*
X157403664Y-125942547D02*
X157403664Y-126180642D01*
X157403664Y-126180642D02*
X157356045Y-126275880D01*
X157356045Y-126275880D02*
X157308426Y-126323500D01*
X157308426Y-126323500D02*
X157213188Y-126371119D01*
X157213188Y-126371119D02*
X156927474Y-126371119D01*
X156927474Y-126371119D02*
X156832236Y-126323500D01*
X156832236Y-126323500D02*
X156784617Y-126275880D01*
D13*
X153006265Y-111396895D02*
X153006265Y-110596895D01*
X153463408Y-111396895D02*
X153120550Y-110939752D01*
X153463408Y-110596895D02*
X153006265Y-111054038D01*
D14*
X155855482Y-122917841D02*
X155760244Y-122870222D01*
X155760244Y-122870222D02*
X155617387Y-122870222D01*
X155617387Y-122870222D02*
X155474530Y-122917841D01*
X155474530Y-122917841D02*
X155379292Y-123013079D01*
X155379292Y-123013079D02*
X155331673Y-123108317D01*
X155331673Y-123108317D02*
X155284054Y-123298793D01*
X155284054Y-123298793D02*
X155284054Y-123441650D01*
X155284054Y-123441650D02*
X155331673Y-123632126D01*
X155331673Y-123632126D02*
X155379292Y-123727364D01*
X155379292Y-123727364D02*
X155474530Y-123822603D01*
X155474530Y-123822603D02*
X155617387Y-123870222D01*
X155617387Y-123870222D02*
X155712625Y-123870222D01*
X155712625Y-123870222D02*
X155855482Y-123822603D01*
X155855482Y-123822603D02*
X155903101Y-123774983D01*
X155903101Y-123774983D02*
X155903101Y-123441650D01*
X155903101Y-123441650D02*
X155712625Y-123441650D01*
X156331673Y-123870222D02*
X156331673Y-122870222D01*
X156331673Y-122870222D02*
X156903101Y-123870222D01*
X156903101Y-123870222D02*
X156903101Y-122870222D01*
X157379292Y-123870222D02*
X157379292Y-122870222D01*
X157379292Y-122870222D02*
X157617387Y-122870222D01*
X157617387Y-122870222D02*
X157760244Y-122917841D01*
X157760244Y-122917841D02*
X157855482Y-123013079D01*
X157855482Y-123013079D02*
X157903101Y-123108317D01*
X157903101Y-123108317D02*
X157950720Y-123298793D01*
X157950720Y-123298793D02*
X157950720Y-123441650D01*
X157950720Y-123441650D02*
X157903101Y-123632126D01*
X157903101Y-123632126D02*
X157855482Y-123727364D01*
X157855482Y-123727364D02*
X157760244Y-123822603D01*
X157760244Y-123822603D02*
X157617387Y-123870222D01*
X157617387Y-123870222D02*
X157379292Y-123870222D01*
X155534054Y-118572603D02*
X155676911Y-118620222D01*
X155676911Y-118620222D02*
X155915006Y-118620222D01*
X155915006Y-118620222D02*
X156010244Y-118572603D01*
X156010244Y-118572603D02*
X156057863Y-118524983D01*
X156057863Y-118524983D02*
X156105482Y-118429745D01*
X156105482Y-118429745D02*
X156105482Y-118334507D01*
X156105482Y-118334507D02*
X156057863Y-118239269D01*
X156057863Y-118239269D02*
X156010244Y-118191650D01*
X156010244Y-118191650D02*
X155915006Y-118144031D01*
X155915006Y-118144031D02*
X155724530Y-118096412D01*
X155724530Y-118096412D02*
X155629292Y-118048793D01*
X155629292Y-118048793D02*
X155581673Y-118001174D01*
X155581673Y-118001174D02*
X155534054Y-117905936D01*
X155534054Y-117905936D02*
X155534054Y-117810698D01*
X155534054Y-117810698D02*
X155581673Y-117715460D01*
X155581673Y-117715460D02*
X155629292Y-117667841D01*
X155629292Y-117667841D02*
X155724530Y-117620222D01*
X155724530Y-117620222D02*
X155962625Y-117620222D01*
X155962625Y-117620222D02*
X156105482Y-117667841D01*
X157105482Y-118524983D02*
X157057863Y-118572603D01*
X157057863Y-118572603D02*
X156915006Y-118620222D01*
X156915006Y-118620222D02*
X156819768Y-118620222D01*
X156819768Y-118620222D02*
X156676911Y-118572603D01*
X156676911Y-118572603D02*
X156581673Y-118477364D01*
X156581673Y-118477364D02*
X156534054Y-118382126D01*
X156534054Y-118382126D02*
X156486435Y-118191650D01*
X156486435Y-118191650D02*
X156486435Y-118048793D01*
X156486435Y-118048793D02*
X156534054Y-117858317D01*
X156534054Y-117858317D02*
X156581673Y-117763079D01*
X156581673Y-117763079D02*
X156676911Y-117667841D01*
X156676911Y-117667841D02*
X156819768Y-117620222D01*
X156819768Y-117620222D02*
X156915006Y-117620222D01*
X156915006Y-117620222D02*
X157057863Y-117667841D01*
X157057863Y-117667841D02*
X157105482Y-117715460D01*
X158010244Y-118620222D02*
X157534054Y-118620222D01*
X157534054Y-118620222D02*
X157534054Y-117620222D01*
X155534054Y-121322603D02*
X155676911Y-121370222D01*
X155676911Y-121370222D02*
X155915006Y-121370222D01*
X155915006Y-121370222D02*
X156010244Y-121322603D01*
X156010244Y-121322603D02*
X156057863Y-121274983D01*
X156057863Y-121274983D02*
X156105482Y-121179745D01*
X156105482Y-121179745D02*
X156105482Y-121084507D01*
X156105482Y-121084507D02*
X156057863Y-120989269D01*
X156057863Y-120989269D02*
X156010244Y-120941650D01*
X156010244Y-120941650D02*
X155915006Y-120894031D01*
X155915006Y-120894031D02*
X155724530Y-120846412D01*
X155724530Y-120846412D02*
X155629292Y-120798793D01*
X155629292Y-120798793D02*
X155581673Y-120751174D01*
X155581673Y-120751174D02*
X155534054Y-120655936D01*
X155534054Y-120655936D02*
X155534054Y-120560698D01*
X155534054Y-120560698D02*
X155581673Y-120465460D01*
X155581673Y-120465460D02*
X155629292Y-120417841D01*
X155629292Y-120417841D02*
X155724530Y-120370222D01*
X155724530Y-120370222D02*
X155962625Y-120370222D01*
X155962625Y-120370222D02*
X156105482Y-120417841D01*
X156534054Y-121370222D02*
X156534054Y-120370222D01*
X156534054Y-120370222D02*
X156772149Y-120370222D01*
X156772149Y-120370222D02*
X156915006Y-120417841D01*
X156915006Y-120417841D02*
X157010244Y-120513079D01*
X157010244Y-120513079D02*
X157057863Y-120608317D01*
X157057863Y-120608317D02*
X157105482Y-120798793D01*
X157105482Y-120798793D02*
X157105482Y-120941650D01*
X157105482Y-120941650D02*
X157057863Y-121132126D01*
X157057863Y-121132126D02*
X157010244Y-121227364D01*
X157010244Y-121227364D02*
X156915006Y-121322603D01*
X156915006Y-121322603D02*
X156772149Y-121370222D01*
X156772149Y-121370222D02*
X156534054Y-121370222D01*
X157486435Y-121084507D02*
X157962625Y-121084507D01*
X157391197Y-121370222D02*
X157724530Y-120370222D01*
X157724530Y-120370222D02*
X158057863Y-121370222D01*
D15*
X140014180Y-102772704D02*
X139946837Y-102772704D01*
X139946837Y-102772704D02*
X139812150Y-102705361D01*
X139812150Y-102705361D02*
X139744806Y-102638017D01*
X139744806Y-102638017D02*
X139677463Y-102503330D01*
X139677463Y-102503330D02*
X139677463Y-102368643D01*
X139677463Y-102368643D02*
X139711134Y-102267628D01*
X139711134Y-102267628D02*
X139812150Y-102099269D01*
X139812150Y-102099269D02*
X139913165Y-101998254D01*
X139913165Y-101998254D02*
X140081524Y-101897239D01*
X140081524Y-101897239D02*
X140182539Y-101863567D01*
X140182539Y-101863567D02*
X140317226Y-101863567D01*
X140317226Y-101863567D02*
X140451913Y-101930911D01*
X140451913Y-101930911D02*
X140519257Y-101998254D01*
X140519257Y-101998254D02*
X140586600Y-102132941D01*
X140586600Y-102132941D02*
X140586600Y-102200285D01*
X140653944Y-103547155D02*
X140754959Y-102974735D01*
X140249882Y-103143094D02*
X140956989Y-102435987D01*
X140956989Y-102435987D02*
X141226363Y-102705361D01*
X141226363Y-102705361D02*
X141260035Y-102806376D01*
X141260035Y-102806376D02*
X141260035Y-102873720D01*
X141260035Y-102873720D02*
X141226363Y-102974735D01*
X141226363Y-102974735D02*
X141125348Y-103075750D01*
X141125348Y-103075750D02*
X141024333Y-103109422D01*
X141024333Y-103109422D02*
X140956989Y-103109422D01*
X140956989Y-103109422D02*
X140855974Y-103075750D01*
X140855974Y-103075750D02*
X140586600Y-102806376D01*
X141563081Y-103176766D02*
X141630424Y-103176766D01*
X141630424Y-103176766D02*
X141731440Y-103210437D01*
X141731440Y-103210437D02*
X141899798Y-103378796D01*
X141899798Y-103378796D02*
X141933470Y-103479811D01*
X141933470Y-103479811D02*
X141933470Y-103547155D01*
X141933470Y-103547155D02*
X141899798Y-103648170D01*
X141899798Y-103648170D02*
X141832455Y-103715514D01*
X141832455Y-103715514D02*
X141697768Y-103782857D01*
X141697768Y-103782857D02*
X140889646Y-103782857D01*
X140889646Y-103782857D02*
X141327379Y-104220590D01*
X142472218Y-103951216D02*
X142539562Y-104018559D01*
X142539562Y-104018559D02*
X142573233Y-104119575D01*
X142573233Y-104119575D02*
X142573233Y-104186918D01*
X142573233Y-104186918D02*
X142539562Y-104287933D01*
X142539562Y-104287933D02*
X142438546Y-104456292D01*
X142438546Y-104456292D02*
X142270188Y-104624651D01*
X142270188Y-104624651D02*
X142101829Y-104725666D01*
X142101829Y-104725666D02*
X142000814Y-104759338D01*
X142000814Y-104759338D02*
X141933470Y-104759338D01*
X141933470Y-104759338D02*
X141832455Y-104725666D01*
X141832455Y-104725666D02*
X141765111Y-104658323D01*
X141765111Y-104658323D02*
X141731440Y-104557307D01*
X141731440Y-104557307D02*
X141731440Y-104489964D01*
X141731440Y-104489964D02*
X141765111Y-104388949D01*
X141765111Y-104388949D02*
X141866127Y-104220590D01*
X141866127Y-104220590D02*
X142034485Y-104052231D01*
X142034485Y-104052231D02*
X142202844Y-103951216D01*
X142202844Y-103951216D02*
X142303859Y-103917544D01*
X142303859Y-103917544D02*
X142371203Y-103917544D01*
X142371203Y-103917544D02*
X142472218Y-103951216D01*
X142943623Y-104422620D02*
X143381355Y-104860353D01*
X143381355Y-104860353D02*
X142876279Y-104894025D01*
X142876279Y-104894025D02*
X142977294Y-104995040D01*
X142977294Y-104995040D02*
X143010966Y-105096055D01*
X143010966Y-105096055D02*
X143010966Y-105163399D01*
X143010966Y-105163399D02*
X142977294Y-105264414D01*
X142977294Y-105264414D02*
X142808936Y-105432773D01*
X142808936Y-105432773D02*
X142707920Y-105466445D01*
X142707920Y-105466445D02*
X142640577Y-105466445D01*
X142640577Y-105466445D02*
X142539562Y-105432773D01*
X142539562Y-105432773D02*
X142337531Y-105230742D01*
X142337531Y-105230742D02*
X142303859Y-105129727D01*
X142303859Y-105129727D02*
X142303859Y-105062384D01*
X143583386Y-105197071D02*
X143650729Y-105197071D01*
X143650729Y-105197071D02*
X143751745Y-105230742D01*
X143751745Y-105230742D02*
X143920104Y-105399101D01*
X143920104Y-105399101D02*
X143953775Y-105500116D01*
X143953775Y-105500116D02*
X143953775Y-105567460D01*
X143953775Y-105567460D02*
X143920104Y-105668475D01*
X143920104Y-105668475D02*
X143852760Y-105735819D01*
X143852760Y-105735819D02*
X143718073Y-105803162D01*
X143718073Y-105803162D02*
X142909951Y-105803162D01*
X142909951Y-105803162D02*
X143347684Y-106240895D01*
X158718489Y-109111892D02*
X159480394Y-109111892D01*
X159099441Y-109492845D02*
X159099441Y-108730940D01*
X144751666Y-129066033D02*
X144751666Y-128366033D01*
X145151666Y-129066033D02*
X144851666Y-128666033D01*
X145151666Y-128366033D02*
X144751666Y-128766033D01*
D16*
X140983333Y-128318681D02*
X140983333Y-127618681D01*
X140983333Y-127618681D02*
X141150000Y-127618681D01*
X141150000Y-127618681D02*
X141250000Y-127652014D01*
X141250000Y-127652014D02*
X141316667Y-127718681D01*
X141316667Y-127718681D02*
X141350000Y-127785348D01*
X141350000Y-127785348D02*
X141383333Y-127918681D01*
X141383333Y-127918681D02*
X141383333Y-128018681D01*
X141383333Y-128018681D02*
X141350000Y-128152014D01*
X141350000Y-128152014D02*
X141316667Y-128218681D01*
X141316667Y-128218681D02*
X141250000Y-128285348D01*
X141250000Y-128285348D02*
X141150000Y-128318681D01*
X141150000Y-128318681D02*
X140983333Y-128318681D01*
X142050000Y-128318681D02*
X141650000Y-128318681D01*
X141850000Y-128318681D02*
X141850000Y-127618681D01*
X141850000Y-127618681D02*
X141783333Y-127718681D01*
X141783333Y-127718681D02*
X141716667Y-127785348D01*
X141716667Y-127785348D02*
X141650000Y-127818681D01*
D17*
X157233508Y-82159049D02*
X157233508Y-81459049D01*
X157966841Y-82092382D02*
X157933508Y-82125716D01*
X157933508Y-82125716D02*
X157833508Y-82159049D01*
X157833508Y-82159049D02*
X157766841Y-82159049D01*
X157766841Y-82159049D02*
X157666841Y-82125716D01*
X157666841Y-82125716D02*
X157600175Y-82059049D01*
X157600175Y-82059049D02*
X157566841Y-81992382D01*
X157566841Y-81992382D02*
X157533508Y-81859049D01*
X157533508Y-81859049D02*
X157533508Y-81759049D01*
X157533508Y-81759049D02*
X157566841Y-81625716D01*
X157566841Y-81625716D02*
X157600175Y-81559049D01*
X157600175Y-81559049D02*
X157666841Y-81492382D01*
X157666841Y-81492382D02*
X157766841Y-81459049D01*
X157766841Y-81459049D02*
X157833508Y-81459049D01*
X157833508Y-81459049D02*
X157933508Y-81492382D01*
X157933508Y-81492382D02*
X157966841Y-81525716D01*
X158566841Y-81692382D02*
X158566841Y-82159049D01*
X158400175Y-81425716D02*
X158233508Y-81925716D01*
X158233508Y-81925716D02*
X158666841Y-81925716D01*
D16*
X141631837Y-110659181D02*
X141398504Y-110325848D01*
X141231837Y-110659181D02*
X141231837Y-109959181D01*
X141231837Y-109959181D02*
X141498504Y-109959181D01*
X141498504Y-109959181D02*
X141565171Y-109992514D01*
X141565171Y-109992514D02*
X141598504Y-110025848D01*
X141598504Y-110025848D02*
X141631837Y-110092514D01*
X141631837Y-110092514D02*
X141631837Y-110192514D01*
X141631837Y-110192514D02*
X141598504Y-110259181D01*
X141598504Y-110259181D02*
X141565171Y-110292514D01*
X141565171Y-110292514D02*
X141498504Y-110325848D01*
X141498504Y-110325848D02*
X141231837Y-110325848D01*
X142298504Y-110659181D02*
X141898504Y-110659181D01*
X142098504Y-110659181D02*
X142098504Y-109959181D01*
X142098504Y-109959181D02*
X142031837Y-110059181D01*
X142031837Y-110059181D02*
X141965171Y-110125848D01*
X141965171Y-110125848D02*
X141898504Y-110159181D01*
X146531837Y-110003714D02*
X146531837Y-110470381D01*
X146365171Y-109737048D02*
X146198504Y-110237048D01*
X146198504Y-110237048D02*
X146631837Y-110237048D01*
X146831838Y-109770381D02*
X147298504Y-109770381D01*
X147298504Y-109770381D02*
X146998504Y-110470381D01*
X147698505Y-109770381D02*
X147765171Y-109770381D01*
X147765171Y-109770381D02*
X147831838Y-109803714D01*
X147831838Y-109803714D02*
X147865171Y-109837048D01*
X147865171Y-109837048D02*
X147898505Y-109903714D01*
X147898505Y-109903714D02*
X147931838Y-110037048D01*
X147931838Y-110037048D02*
X147931838Y-110203714D01*
X147931838Y-110203714D02*
X147898505Y-110337048D01*
X147898505Y-110337048D02*
X147865171Y-110403714D01*
X147865171Y-110403714D02*
X147831838Y-110437048D01*
X147831838Y-110437048D02*
X147765171Y-110470381D01*
X147765171Y-110470381D02*
X147698505Y-110470381D01*
X147698505Y-110470381D02*
X147631838Y-110437048D01*
X147631838Y-110437048D02*
X147598505Y-110403714D01*
X147598505Y-110403714D02*
X147565171Y-110337048D01*
X147565171Y-110337048D02*
X147531838Y-110203714D01*
X147531838Y-110203714D02*
X147531838Y-110037048D01*
X147531838Y-110037048D02*
X147565171Y-109903714D01*
X147565171Y-109903714D02*
X147598505Y-109837048D01*
X147598505Y-109837048D02*
X147631838Y-109803714D01*
X147631838Y-109803714D02*
X147698505Y-109770381D01*
X148231838Y-110470381D02*
X148231838Y-109770381D01*
X148298505Y-110203714D02*
X148498505Y-110470381D01*
X148498505Y-110003714D02*
X148231838Y-110270381D01*
D17*
X150983508Y-82159049D02*
X150983508Y-81459049D01*
X151716841Y-82092382D02*
X151683508Y-82125716D01*
X151683508Y-82125716D02*
X151583508Y-82159049D01*
X151583508Y-82159049D02*
X151516841Y-82159049D01*
X151516841Y-82159049D02*
X151416841Y-82125716D01*
X151416841Y-82125716D02*
X151350175Y-82059049D01*
X151350175Y-82059049D02*
X151316841Y-81992382D01*
X151316841Y-81992382D02*
X151283508Y-81859049D01*
X151283508Y-81859049D02*
X151283508Y-81759049D01*
X151283508Y-81759049D02*
X151316841Y-81625716D01*
X151316841Y-81625716D02*
X151350175Y-81559049D01*
X151350175Y-81559049D02*
X151416841Y-81492382D01*
X151416841Y-81492382D02*
X151516841Y-81459049D01*
X151516841Y-81459049D02*
X151583508Y-81459049D01*
X151583508Y-81459049D02*
X151683508Y-81492382D01*
X151683508Y-81492382D02*
X151716841Y-81525716D01*
X151950175Y-81459049D02*
X152383508Y-81459049D01*
X152383508Y-81459049D02*
X152150175Y-81725716D01*
X152150175Y-81725716D02*
X152250175Y-81725716D01*
X152250175Y-81725716D02*
X152316841Y-81759049D01*
X152316841Y-81759049D02*
X152350175Y-81792382D01*
X152350175Y-81792382D02*
X152383508Y-81859049D01*
X152383508Y-81859049D02*
X152383508Y-82025716D01*
X152383508Y-82025716D02*
X152350175Y-82092382D01*
X152350175Y-82092382D02*
X152316841Y-82125716D01*
X152316841Y-82125716D02*
X152250175Y-82159049D01*
X152250175Y-82159049D02*
X152050175Y-82159049D01*
X152050175Y-82159049D02*
X151983508Y-82125716D01*
X151983508Y-82125716D02*
X151950175Y-82092382D01*
D18*
X161150218Y-84341062D02*
X161116885Y-84374396D01*
X161116885Y-84374396D02*
X161016885Y-84407729D01*
X161016885Y-84407729D02*
X160950218Y-84407729D01*
X160950218Y-84407729D02*
X160850218Y-84374396D01*
X160850218Y-84374396D02*
X160783552Y-84307729D01*
X160783552Y-84307729D02*
X160750218Y-84241062D01*
X160750218Y-84241062D02*
X160716885Y-84107729D01*
X160716885Y-84107729D02*
X160716885Y-84007729D01*
X160716885Y-84007729D02*
X160750218Y-83874396D01*
X160750218Y-83874396D02*
X160783552Y-83807729D01*
X160783552Y-83807729D02*
X160850218Y-83741062D01*
X160850218Y-83741062D02*
X160950218Y-83707729D01*
X160950218Y-83707729D02*
X161016885Y-83707729D01*
X161016885Y-83707729D02*
X161116885Y-83741062D01*
X161116885Y-83741062D02*
X161150218Y-83774396D01*
X161416885Y-83774396D02*
X161450218Y-83741062D01*
X161450218Y-83741062D02*
X161516885Y-83707729D01*
X161516885Y-83707729D02*
X161683552Y-83707729D01*
X161683552Y-83707729D02*
X161750218Y-83741062D01*
X161750218Y-83741062D02*
X161783552Y-83774396D01*
X161783552Y-83774396D02*
X161816885Y-83841062D01*
X161816885Y-83841062D02*
X161816885Y-83907729D01*
X161816885Y-83907729D02*
X161783552Y-84007729D01*
X161783552Y-84007729D02*
X161383552Y-84407729D01*
X161383552Y-84407729D02*
X161816885Y-84407729D01*
X159366885Y-88157729D02*
X158966885Y-88157729D01*
X159166885Y-88157729D02*
X159166885Y-87457729D01*
X159166885Y-87457729D02*
X159100218Y-87557729D01*
X159100218Y-87557729D02*
X159033552Y-87624396D01*
X159033552Y-87624396D02*
X158966885Y-87657729D01*
X159800219Y-87457729D02*
X159866885Y-87457729D01*
X159866885Y-87457729D02*
X159933552Y-87491062D01*
X159933552Y-87491062D02*
X159966885Y-87524396D01*
X159966885Y-87524396D02*
X160000219Y-87591062D01*
X160000219Y-87591062D02*
X160033552Y-87724396D01*
X160033552Y-87724396D02*
X160033552Y-87891062D01*
X160033552Y-87891062D02*
X160000219Y-88024396D01*
X160000219Y-88024396D02*
X159966885Y-88091062D01*
X159966885Y-88091062D02*
X159933552Y-88124396D01*
X159933552Y-88124396D02*
X159866885Y-88157729D01*
X159866885Y-88157729D02*
X159800219Y-88157729D01*
X159800219Y-88157729D02*
X159733552Y-88124396D01*
X159733552Y-88124396D02*
X159700219Y-88091062D01*
X159700219Y-88091062D02*
X159666885Y-88024396D01*
X159666885Y-88024396D02*
X159633552Y-87891062D01*
X159633552Y-87891062D02*
X159633552Y-87724396D01*
X159633552Y-87724396D02*
X159666885Y-87591062D01*
X159666885Y-87591062D02*
X159700219Y-87524396D01*
X159700219Y-87524396D02*
X159733552Y-87491062D01*
X159733552Y-87491062D02*
X159800219Y-87457729D01*
X160333552Y-87691062D02*
X160333552Y-88157729D01*
X160333552Y-87757729D02*
X160366886Y-87724396D01*
X160366886Y-87724396D02*
X160433552Y-87691062D01*
X160433552Y-87691062D02*
X160533552Y-87691062D01*
X160533552Y-87691062D02*
X160600219Y-87724396D01*
X160600219Y-87724396D02*
X160633552Y-87791062D01*
X160633552Y-87791062D02*
X160633552Y-88157729D01*
X161200219Y-87791062D02*
X160966885Y-87791062D01*
X160966885Y-88157729D02*
X160966885Y-87457729D01*
X160966885Y-87457729D02*
X161300219Y-87457729D01*
D17*
X144733508Y-82159049D02*
X144733508Y-81459049D01*
X145466841Y-82092382D02*
X145433508Y-82125716D01*
X145433508Y-82125716D02*
X145333508Y-82159049D01*
X145333508Y-82159049D02*
X145266841Y-82159049D01*
X145266841Y-82159049D02*
X145166841Y-82125716D01*
X145166841Y-82125716D02*
X145100175Y-82059049D01*
X145100175Y-82059049D02*
X145066841Y-81992382D01*
X145066841Y-81992382D02*
X145033508Y-81859049D01*
X145033508Y-81859049D02*
X145033508Y-81759049D01*
X145033508Y-81759049D02*
X145066841Y-81625716D01*
X145066841Y-81625716D02*
X145100175Y-81559049D01*
X145100175Y-81559049D02*
X145166841Y-81492382D01*
X145166841Y-81492382D02*
X145266841Y-81459049D01*
X145266841Y-81459049D02*
X145333508Y-81459049D01*
X145333508Y-81459049D02*
X145433508Y-81492382D01*
X145433508Y-81492382D02*
X145466841Y-81525716D01*
X145733508Y-81525716D02*
X145766841Y-81492382D01*
X145766841Y-81492382D02*
X145833508Y-81459049D01*
X145833508Y-81459049D02*
X146000175Y-81459049D01*
X146000175Y-81459049D02*
X146066841Y-81492382D01*
X146066841Y-81492382D02*
X146100175Y-81525716D01*
X146100175Y-81525716D02*
X146133508Y-81592382D01*
X146133508Y-81592382D02*
X146133508Y-81659049D01*
X146133508Y-81659049D02*
X146100175Y-81759049D01*
X146100175Y-81759049D02*
X145700175Y-82159049D01*
X145700175Y-82159049D02*
X146133508Y-82159049D01*
D16*
X141381837Y-123659181D02*
X141148504Y-123325848D01*
X140981837Y-123659181D02*
X140981837Y-122959181D01*
X140981837Y-122959181D02*
X141248504Y-122959181D01*
X141248504Y-122959181D02*
X141315171Y-122992514D01*
X141315171Y-122992514D02*
X141348504Y-123025848D01*
X141348504Y-123025848D02*
X141381837Y-123092514D01*
X141381837Y-123092514D02*
X141381837Y-123192514D01*
X141381837Y-123192514D02*
X141348504Y-123259181D01*
X141348504Y-123259181D02*
X141315171Y-123292514D01*
X141315171Y-123292514D02*
X141248504Y-123325848D01*
X141248504Y-123325848D02*
X140981837Y-123325848D01*
X141648504Y-123025848D02*
X141681837Y-122992514D01*
X141681837Y-122992514D02*
X141748504Y-122959181D01*
X141748504Y-122959181D02*
X141915171Y-122959181D01*
X141915171Y-122959181D02*
X141981837Y-122992514D01*
X141981837Y-122992514D02*
X142015171Y-123025848D01*
X142015171Y-123025848D02*
X142048504Y-123092514D01*
X142048504Y-123092514D02*
X142048504Y-123159181D01*
X142048504Y-123159181D02*
X142015171Y-123259181D01*
X142015171Y-123259181D02*
X141615171Y-123659181D01*
X141615171Y-123659181D02*
X142048504Y-123659181D01*
X146198504Y-122525848D02*
X146231837Y-122492514D01*
X146231837Y-122492514D02*
X146298504Y-122459181D01*
X146298504Y-122459181D02*
X146465171Y-122459181D01*
X146465171Y-122459181D02*
X146531837Y-122492514D01*
X146531837Y-122492514D02*
X146565171Y-122525848D01*
X146565171Y-122525848D02*
X146598504Y-122592514D01*
X146598504Y-122592514D02*
X146598504Y-122659181D01*
X146598504Y-122659181D02*
X146565171Y-122759181D01*
X146565171Y-122759181D02*
X146165171Y-123159181D01*
X146165171Y-123159181D02*
X146598504Y-123159181D01*
X146865171Y-122525848D02*
X146898504Y-122492514D01*
X146898504Y-122492514D02*
X146965171Y-122459181D01*
X146965171Y-122459181D02*
X147131838Y-122459181D01*
X147131838Y-122459181D02*
X147198504Y-122492514D01*
X147198504Y-122492514D02*
X147231838Y-122525848D01*
X147231838Y-122525848D02*
X147265171Y-122592514D01*
X147265171Y-122592514D02*
X147265171Y-122659181D01*
X147265171Y-122659181D02*
X147231838Y-122759181D01*
X147231838Y-122759181D02*
X146831838Y-123159181D01*
X146831838Y-123159181D02*
X147265171Y-123159181D01*
X147698505Y-122459181D02*
X147765171Y-122459181D01*
X147765171Y-122459181D02*
X147831838Y-122492514D01*
X147831838Y-122492514D02*
X147865171Y-122525848D01*
X147865171Y-122525848D02*
X147898505Y-122592514D01*
X147898505Y-122592514D02*
X147931838Y-122725848D01*
X147931838Y-122725848D02*
X147931838Y-122892514D01*
X147931838Y-122892514D02*
X147898505Y-123025848D01*
X147898505Y-123025848D02*
X147865171Y-123092514D01*
X147865171Y-123092514D02*
X147831838Y-123125848D01*
X147831838Y-123125848D02*
X147765171Y-123159181D01*
X147765171Y-123159181D02*
X147698505Y-123159181D01*
X147698505Y-123159181D02*
X147631838Y-123125848D01*
X147631838Y-123125848D02*
X147598505Y-123092514D01*
X147598505Y-123092514D02*
X147565171Y-123025848D01*
X147565171Y-123025848D02*
X147531838Y-122892514D01*
X147531838Y-122892514D02*
X147531838Y-122725848D01*
X147531838Y-122725848D02*
X147565171Y-122592514D01*
X147565171Y-122592514D02*
X147598505Y-122525848D01*
X147598505Y-122525848D02*
X147631838Y-122492514D01*
X147631838Y-122492514D02*
X147698505Y-122459181D01*
X148231838Y-123159181D02*
X148231838Y-122459181D01*
X148298505Y-122892514D02*
X148498505Y-123159181D01*
X148498505Y-122692514D02*
X148231838Y-122959181D01*
D18*
X161616447Y-111410062D02*
X161583114Y-111443396D01*
X161583114Y-111443396D02*
X161483114Y-111476729D01*
X161483114Y-111476729D02*
X161416447Y-111476729D01*
X161416447Y-111476729D02*
X161316447Y-111443396D01*
X161316447Y-111443396D02*
X161249781Y-111376729D01*
X161249781Y-111376729D02*
X161216447Y-111310062D01*
X161216447Y-111310062D02*
X161183114Y-111176729D01*
X161183114Y-111176729D02*
X161183114Y-111076729D01*
X161183114Y-111076729D02*
X161216447Y-110943396D01*
X161216447Y-110943396D02*
X161249781Y-110876729D01*
X161249781Y-110876729D02*
X161316447Y-110810062D01*
X161316447Y-110810062D02*
X161416447Y-110776729D01*
X161416447Y-110776729D02*
X161483114Y-110776729D01*
X161483114Y-110776729D02*
X161583114Y-110810062D01*
X161583114Y-110810062D02*
X161616447Y-110843396D01*
X161849781Y-110776729D02*
X162283114Y-110776729D01*
X162283114Y-110776729D02*
X162049781Y-111043396D01*
X162049781Y-111043396D02*
X162149781Y-111043396D01*
X162149781Y-111043396D02*
X162216447Y-111076729D01*
X162216447Y-111076729D02*
X162249781Y-111110062D01*
X162249781Y-111110062D02*
X162283114Y-111176729D01*
X162283114Y-111176729D02*
X162283114Y-111343396D01*
X162283114Y-111343396D02*
X162249781Y-111410062D01*
X162249781Y-111410062D02*
X162216447Y-111443396D01*
X162216447Y-111443396D02*
X162149781Y-111476729D01*
X162149781Y-111476729D02*
X161949781Y-111476729D01*
X161949781Y-111476729D02*
X161883114Y-111443396D01*
X161883114Y-111443396D02*
X161849781Y-111410062D01*
X155716447Y-115510062D02*
X155716447Y-115976729D01*
X155549781Y-115243396D02*
X155383114Y-115743396D01*
X155383114Y-115743396D02*
X155816447Y-115743396D01*
X156016448Y-115276729D02*
X156483114Y-115276729D01*
X156483114Y-115276729D02*
X156183114Y-115976729D01*
X156749781Y-115510062D02*
X156749781Y-116210062D01*
X157083115Y-115876729D02*
X157116448Y-115943396D01*
X157116448Y-115943396D02*
X157183115Y-115976729D01*
X156749781Y-115876729D02*
X156783115Y-115943396D01*
X156783115Y-115943396D02*
X156849781Y-115976729D01*
X156849781Y-115976729D02*
X156983115Y-115976729D01*
X156983115Y-115976729D02*
X157049781Y-115943396D01*
X157049781Y-115943396D02*
X157083115Y-115876729D01*
X157083115Y-115876729D02*
X157083115Y-115510062D01*
X157716448Y-115610062D02*
X157483114Y-115610062D01*
X157483114Y-115976729D02*
X157483114Y-115276729D01*
X157483114Y-115276729D02*
X157816448Y-115276729D01*
D16*
X141381837Y-125659181D02*
X141148504Y-125325848D01*
X140981837Y-125659181D02*
X140981837Y-124959181D01*
X140981837Y-124959181D02*
X141248504Y-124959181D01*
X141248504Y-124959181D02*
X141315171Y-124992514D01*
X141315171Y-124992514D02*
X141348504Y-125025848D01*
X141348504Y-125025848D02*
X141381837Y-125092514D01*
X141381837Y-125092514D02*
X141381837Y-125192514D01*
X141381837Y-125192514D02*
X141348504Y-125259181D01*
X141348504Y-125259181D02*
X141315171Y-125292514D01*
X141315171Y-125292514D02*
X141248504Y-125325848D01*
X141248504Y-125325848D02*
X140981837Y-125325848D01*
X141615171Y-124959181D02*
X142048504Y-124959181D01*
X142048504Y-124959181D02*
X141815171Y-125225848D01*
X141815171Y-125225848D02*
X141915171Y-125225848D01*
X141915171Y-125225848D02*
X141981837Y-125259181D01*
X141981837Y-125259181D02*
X142015171Y-125292514D01*
X142015171Y-125292514D02*
X142048504Y-125359181D01*
X142048504Y-125359181D02*
X142048504Y-125525848D01*
X142048504Y-125525848D02*
X142015171Y-125592514D01*
X142015171Y-125592514D02*
X141981837Y-125625848D01*
X141981837Y-125625848D02*
X141915171Y-125659181D01*
X141915171Y-125659181D02*
X141715171Y-125659181D01*
X141715171Y-125659181D02*
X141648504Y-125625848D01*
X141648504Y-125625848D02*
X141615171Y-125592514D01*
X146198504Y-125025848D02*
X146231837Y-124992514D01*
X146231837Y-124992514D02*
X146298504Y-124959181D01*
X146298504Y-124959181D02*
X146465171Y-124959181D01*
X146465171Y-124959181D02*
X146531837Y-124992514D01*
X146531837Y-124992514D02*
X146565171Y-125025848D01*
X146565171Y-125025848D02*
X146598504Y-125092514D01*
X146598504Y-125092514D02*
X146598504Y-125159181D01*
X146598504Y-125159181D02*
X146565171Y-125259181D01*
X146565171Y-125259181D02*
X146165171Y-125659181D01*
X146165171Y-125659181D02*
X146598504Y-125659181D01*
X146865171Y-125025848D02*
X146898504Y-124992514D01*
X146898504Y-124992514D02*
X146965171Y-124959181D01*
X146965171Y-124959181D02*
X147131838Y-124959181D01*
X147131838Y-124959181D02*
X147198504Y-124992514D01*
X147198504Y-124992514D02*
X147231838Y-125025848D01*
X147231838Y-125025848D02*
X147265171Y-125092514D01*
X147265171Y-125092514D02*
X147265171Y-125159181D01*
X147265171Y-125159181D02*
X147231838Y-125259181D01*
X147231838Y-125259181D02*
X146831838Y-125659181D01*
X146831838Y-125659181D02*
X147265171Y-125659181D01*
X147698505Y-124959181D02*
X147765171Y-124959181D01*
X147765171Y-124959181D02*
X147831838Y-124992514D01*
X147831838Y-124992514D02*
X147865171Y-125025848D01*
X147865171Y-125025848D02*
X147898505Y-125092514D01*
X147898505Y-125092514D02*
X147931838Y-125225848D01*
X147931838Y-125225848D02*
X147931838Y-125392514D01*
X147931838Y-125392514D02*
X147898505Y-125525848D01*
X147898505Y-125525848D02*
X147865171Y-125592514D01*
X147865171Y-125592514D02*
X147831838Y-125625848D01*
X147831838Y-125625848D02*
X147765171Y-125659181D01*
X147765171Y-125659181D02*
X147698505Y-125659181D01*
X147698505Y-125659181D02*
X147631838Y-125625848D01*
X147631838Y-125625848D02*
X147598505Y-125592514D01*
X147598505Y-125592514D02*
X147565171Y-125525848D01*
X147565171Y-125525848D02*
X147531838Y-125392514D01*
X147531838Y-125392514D02*
X147531838Y-125225848D01*
X147531838Y-125225848D02*
X147565171Y-125092514D01*
X147565171Y-125092514D02*
X147598505Y-125025848D01*
X147598505Y-125025848D02*
X147631838Y-124992514D01*
X147631838Y-124992514D02*
X147698505Y-124959181D01*
X148231838Y-125659181D02*
X148231838Y-124959181D01*
X148298505Y-125392514D02*
X148498505Y-125659181D01*
X148498505Y-125192514D02*
X148231838Y-125459181D01*
D18*
X155366447Y-113410062D02*
X155333114Y-113443396D01*
X155333114Y-113443396D02*
X155233114Y-113476729D01*
X155233114Y-113476729D02*
X155166447Y-113476729D01*
X155166447Y-113476729D02*
X155066447Y-113443396D01*
X155066447Y-113443396D02*
X154999781Y-113376729D01*
X154999781Y-113376729D02*
X154966447Y-113310062D01*
X154966447Y-113310062D02*
X154933114Y-113176729D01*
X154933114Y-113176729D02*
X154933114Y-113076729D01*
X154933114Y-113076729D02*
X154966447Y-112943396D01*
X154966447Y-112943396D02*
X154999781Y-112876729D01*
X154999781Y-112876729D02*
X155066447Y-112810062D01*
X155066447Y-112810062D02*
X155166447Y-112776729D01*
X155166447Y-112776729D02*
X155233114Y-112776729D01*
X155233114Y-112776729D02*
X155333114Y-112810062D01*
X155333114Y-112810062D02*
X155366447Y-112843396D01*
X156033114Y-113476729D02*
X155633114Y-113476729D01*
X155833114Y-113476729D02*
X155833114Y-112776729D01*
X155833114Y-112776729D02*
X155766447Y-112876729D01*
X155766447Y-112876729D02*
X155699781Y-112943396D01*
X155699781Y-112943396D02*
X155633114Y-112976729D01*
X152883114Y-116976729D02*
X152483114Y-116976729D01*
X152683114Y-116976729D02*
X152683114Y-116276729D01*
X152683114Y-116276729D02*
X152616447Y-116376729D01*
X152616447Y-116376729D02*
X152549781Y-116443396D01*
X152549781Y-116443396D02*
X152483114Y-116476729D01*
X153316448Y-116276729D02*
X153383114Y-116276729D01*
X153383114Y-116276729D02*
X153449781Y-116310062D01*
X153449781Y-116310062D02*
X153483114Y-116343396D01*
X153483114Y-116343396D02*
X153516448Y-116410062D01*
X153516448Y-116410062D02*
X153549781Y-116543396D01*
X153549781Y-116543396D02*
X153549781Y-116710062D01*
X153549781Y-116710062D02*
X153516448Y-116843396D01*
X153516448Y-116843396D02*
X153483114Y-116910062D01*
X153483114Y-116910062D02*
X153449781Y-116943396D01*
X153449781Y-116943396D02*
X153383114Y-116976729D01*
X153383114Y-116976729D02*
X153316448Y-116976729D01*
X153316448Y-116976729D02*
X153249781Y-116943396D01*
X153249781Y-116943396D02*
X153216448Y-116910062D01*
X153216448Y-116910062D02*
X153183114Y-116843396D01*
X153183114Y-116843396D02*
X153149781Y-116710062D01*
X153149781Y-116710062D02*
X153149781Y-116543396D01*
X153149781Y-116543396D02*
X153183114Y-116410062D01*
X153183114Y-116410062D02*
X153216448Y-116343396D01*
X153216448Y-116343396D02*
X153249781Y-116310062D01*
X153249781Y-116310062D02*
X153316448Y-116276729D01*
X153849781Y-116510062D02*
X153849781Y-116976729D01*
X153849781Y-116576729D02*
X153883115Y-116543396D01*
X153883115Y-116543396D02*
X153949781Y-116510062D01*
X153949781Y-116510062D02*
X154049781Y-116510062D01*
X154049781Y-116510062D02*
X154116448Y-116543396D01*
X154116448Y-116543396D02*
X154149781Y-116610062D01*
X154149781Y-116610062D02*
X154149781Y-116976729D01*
X154716448Y-116610062D02*
X154483114Y-116610062D01*
X154483114Y-116976729D02*
X154483114Y-116276729D01*
X154483114Y-116276729D02*
X154816448Y-116276729D01*
X141250218Y-114207729D02*
X141250218Y-113507729D01*
X141983551Y-114141062D02*
X141950218Y-114174396D01*
X141950218Y-114174396D02*
X141850218Y-114207729D01*
X141850218Y-114207729D02*
X141783551Y-114207729D01*
X141783551Y-114207729D02*
X141683551Y-114174396D01*
X141683551Y-114174396D02*
X141616885Y-114107729D01*
X141616885Y-114107729D02*
X141583551Y-114041062D01*
X141583551Y-114041062D02*
X141550218Y-113907729D01*
X141550218Y-113907729D02*
X141550218Y-113807729D01*
X141550218Y-113807729D02*
X141583551Y-113674396D01*
X141583551Y-113674396D02*
X141616885Y-113607729D01*
X141616885Y-113607729D02*
X141683551Y-113541062D01*
X141683551Y-113541062D02*
X141783551Y-113507729D01*
X141783551Y-113507729D02*
X141850218Y-113507729D01*
X141850218Y-113507729D02*
X141950218Y-113541062D01*
X141950218Y-113541062D02*
X141983551Y-113574396D01*
X142650218Y-114207729D02*
X142250218Y-114207729D01*
X142450218Y-114207729D02*
X142450218Y-113507729D01*
X142450218Y-113507729D02*
X142383551Y-113607729D01*
X142383551Y-113607729D02*
X142316885Y-113674396D01*
X142316885Y-113674396D02*
X142250218Y-113707729D01*
X147657729Y-119499781D02*
X146957729Y-119499781D01*
X146957729Y-119499781D02*
X146957729Y-119233114D01*
X146957729Y-119233114D02*
X146991062Y-119166448D01*
X146991062Y-119166448D02*
X147024396Y-119133114D01*
X147024396Y-119133114D02*
X147091062Y-119099781D01*
X147091062Y-119099781D02*
X147191062Y-119099781D01*
X147191062Y-119099781D02*
X147257729Y-119133114D01*
X147257729Y-119133114D02*
X147291062Y-119166448D01*
X147291062Y-119166448D02*
X147324396Y-119233114D01*
X147324396Y-119233114D02*
X147324396Y-119499781D01*
X147591062Y-118399781D02*
X147624396Y-118433114D01*
X147624396Y-118433114D02*
X147657729Y-118533114D01*
X147657729Y-118533114D02*
X147657729Y-118599781D01*
X147657729Y-118599781D02*
X147624396Y-118699781D01*
X147624396Y-118699781D02*
X147557729Y-118766448D01*
X147557729Y-118766448D02*
X147491062Y-118799781D01*
X147491062Y-118799781D02*
X147357729Y-118833114D01*
X147357729Y-118833114D02*
X147257729Y-118833114D01*
X147257729Y-118833114D02*
X147124396Y-118799781D01*
X147124396Y-118799781D02*
X147057729Y-118766448D01*
X147057729Y-118766448D02*
X146991062Y-118699781D01*
X146991062Y-118699781D02*
X146957729Y-118599781D01*
X146957729Y-118599781D02*
X146957729Y-118533114D01*
X146957729Y-118533114D02*
X146991062Y-118433114D01*
X146991062Y-118433114D02*
X147024396Y-118399781D01*
X147291062Y-117866448D02*
X147291062Y-118099781D01*
X147657729Y-118099781D02*
X146957729Y-118099781D01*
X146957729Y-118099781D02*
X146957729Y-117766448D01*
X147257729Y-117399781D02*
X147224396Y-117466448D01*
X147224396Y-117466448D02*
X147191062Y-117499781D01*
X147191062Y-117499781D02*
X147124396Y-117533114D01*
X147124396Y-117533114D02*
X147091062Y-117533114D01*
X147091062Y-117533114D02*
X147024396Y-117499781D01*
X147024396Y-117499781D02*
X146991062Y-117466448D01*
X146991062Y-117466448D02*
X146957729Y-117399781D01*
X146957729Y-117399781D02*
X146957729Y-117266448D01*
X146957729Y-117266448D02*
X146991062Y-117199781D01*
X146991062Y-117199781D02*
X147024396Y-117166448D01*
X147024396Y-117166448D02*
X147091062Y-117133114D01*
X147091062Y-117133114D02*
X147124396Y-117133114D01*
X147124396Y-117133114D02*
X147191062Y-117166448D01*
X147191062Y-117166448D02*
X147224396Y-117199781D01*
X147224396Y-117199781D02*
X147257729Y-117266448D01*
X147257729Y-117266448D02*
X147257729Y-117399781D01*
X147257729Y-117399781D02*
X147291062Y-117466448D01*
X147291062Y-117466448D02*
X147324396Y-117499781D01*
X147324396Y-117499781D02*
X147391062Y-117533114D01*
X147391062Y-117533114D02*
X147524396Y-117533114D01*
X147524396Y-117533114D02*
X147591062Y-117499781D01*
X147591062Y-117499781D02*
X147624396Y-117466448D01*
X147624396Y-117466448D02*
X147657729Y-117399781D01*
X147657729Y-117399781D02*
X147657729Y-117266448D01*
X147657729Y-117266448D02*
X147624396Y-117199781D01*
X147624396Y-117199781D02*
X147591062Y-117166448D01*
X147591062Y-117166448D02*
X147524396Y-117133114D01*
X147524396Y-117133114D02*
X147391062Y-117133114D01*
X147391062Y-117133114D02*
X147324396Y-117166448D01*
X147324396Y-117166448D02*
X147291062Y-117199781D01*
X147291062Y-117199781D02*
X147257729Y-117266448D01*
X146957729Y-116499781D02*
X146957729Y-116833114D01*
X146957729Y-116833114D02*
X147291062Y-116866447D01*
X147291062Y-116866447D02*
X147257729Y-116833114D01*
X147257729Y-116833114D02*
X147224396Y-116766447D01*
X147224396Y-116766447D02*
X147224396Y-116599781D01*
X147224396Y-116599781D02*
X147257729Y-116533114D01*
X147257729Y-116533114D02*
X147291062Y-116499781D01*
X147291062Y-116499781D02*
X147357729Y-116466447D01*
X147357729Y-116466447D02*
X147524396Y-116466447D01*
X147524396Y-116466447D02*
X147591062Y-116499781D01*
X147591062Y-116499781D02*
X147624396Y-116533114D01*
X147624396Y-116533114D02*
X147657729Y-116599781D01*
X147657729Y-116599781D02*
X147657729Y-116766447D01*
X147657729Y-116766447D02*
X147624396Y-116833114D01*
X147624396Y-116833114D02*
X147591062Y-116866447D01*
X147257729Y-116066447D02*
X147224396Y-116133114D01*
X147224396Y-116133114D02*
X147191062Y-116166447D01*
X147191062Y-116166447D02*
X147124396Y-116199780D01*
X147124396Y-116199780D02*
X147091062Y-116199780D01*
X147091062Y-116199780D02*
X147024396Y-116166447D01*
X147024396Y-116166447D02*
X146991062Y-116133114D01*
X146991062Y-116133114D02*
X146957729Y-116066447D01*
X146957729Y-116066447D02*
X146957729Y-115933114D01*
X146957729Y-115933114D02*
X146991062Y-115866447D01*
X146991062Y-115866447D02*
X147024396Y-115833114D01*
X147024396Y-115833114D02*
X147091062Y-115799780D01*
X147091062Y-115799780D02*
X147124396Y-115799780D01*
X147124396Y-115799780D02*
X147191062Y-115833114D01*
X147191062Y-115833114D02*
X147224396Y-115866447D01*
X147224396Y-115866447D02*
X147257729Y-115933114D01*
X147257729Y-115933114D02*
X147257729Y-116066447D01*
X147257729Y-116066447D02*
X147291062Y-116133114D01*
X147291062Y-116133114D02*
X147324396Y-116166447D01*
X147324396Y-116166447D02*
X147391062Y-116199780D01*
X147391062Y-116199780D02*
X147524396Y-116199780D01*
X147524396Y-116199780D02*
X147591062Y-116166447D01*
X147591062Y-116166447D02*
X147624396Y-116133114D01*
X147624396Y-116133114D02*
X147657729Y-116066447D01*
X147657729Y-116066447D02*
X147657729Y-115933114D01*
X147657729Y-115933114D02*
X147624396Y-115866447D01*
X147624396Y-115866447D02*
X147591062Y-115833114D01*
X147591062Y-115833114D02*
X147524396Y-115799780D01*
X147524396Y-115799780D02*
X147391062Y-115799780D01*
X147391062Y-115799780D02*
X147324396Y-115833114D01*
X147324396Y-115833114D02*
X147291062Y-115866447D01*
X147291062Y-115866447D02*
X147257729Y-115933114D01*
X146957729Y-115566447D02*
X146957729Y-115133113D01*
X146957729Y-115133113D02*
X147224396Y-115366447D01*
X147224396Y-115366447D02*
X147224396Y-115266447D01*
X147224396Y-115266447D02*
X147257729Y-115199780D01*
X147257729Y-115199780D02*
X147291062Y-115166447D01*
X147291062Y-115166447D02*
X147357729Y-115133113D01*
X147357729Y-115133113D02*
X147524396Y-115133113D01*
X147524396Y-115133113D02*
X147591062Y-115166447D01*
X147591062Y-115166447D02*
X147624396Y-115199780D01*
X147624396Y-115199780D02*
X147657729Y-115266447D01*
X147657729Y-115266447D02*
X147657729Y-115466447D01*
X147657729Y-115466447D02*
X147624396Y-115533113D01*
X147624396Y-115533113D02*
X147591062Y-115566447D01*
X147657729Y-114833113D02*
X146957729Y-114833113D01*
X146957729Y-114833113D02*
X146957729Y-114566446D01*
X146957729Y-114566446D02*
X146991062Y-114499780D01*
X146991062Y-114499780D02*
X147024396Y-114466446D01*
X147024396Y-114466446D02*
X147091062Y-114433113D01*
X147091062Y-114433113D02*
X147191062Y-114433113D01*
X147191062Y-114433113D02*
X147257729Y-114466446D01*
X147257729Y-114466446D02*
X147291062Y-114499780D01*
X147291062Y-114499780D02*
X147324396Y-114566446D01*
X147324396Y-114566446D02*
X147324396Y-114833113D01*
D15*
X155045833Y-111816033D02*
X155045833Y-111116033D01*
X155045833Y-111116033D02*
X155212500Y-111116033D01*
X155212500Y-111116033D02*
X155312500Y-111149366D01*
X155312500Y-111149366D02*
X155379167Y-111216033D01*
X155379167Y-111216033D02*
X155412500Y-111282700D01*
X155412500Y-111282700D02*
X155445833Y-111416033D01*
X155445833Y-111416033D02*
X155445833Y-111516033D01*
X155445833Y-111516033D02*
X155412500Y-111649366D01*
X155412500Y-111649366D02*
X155379167Y-111716033D01*
X155379167Y-111716033D02*
X155312500Y-111782700D01*
X155312500Y-111782700D02*
X155212500Y-111816033D01*
X155212500Y-111816033D02*
X155045833Y-111816033D01*
X155712500Y-111182700D02*
X155745833Y-111149366D01*
X155745833Y-111149366D02*
X155812500Y-111116033D01*
X155812500Y-111116033D02*
X155979167Y-111116033D01*
X155979167Y-111116033D02*
X156045833Y-111149366D01*
X156045833Y-111149366D02*
X156079167Y-111182700D01*
X156079167Y-111182700D02*
X156112500Y-111249366D01*
X156112500Y-111249366D02*
X156112500Y-111316033D01*
X156112500Y-111316033D02*
X156079167Y-111416033D01*
X156079167Y-111416033D02*
X155679167Y-111816033D01*
X155679167Y-111816033D02*
X156112500Y-111816033D01*
X157149999Y-110532700D02*
X157249999Y-110566033D01*
X157249999Y-110566033D02*
X157416666Y-110566033D01*
X157416666Y-110566033D02*
X157483332Y-110532700D01*
X157483332Y-110532700D02*
X157516666Y-110499366D01*
X157516666Y-110499366D02*
X157549999Y-110432700D01*
X157549999Y-110432700D02*
X157549999Y-110366033D01*
X157549999Y-110366033D02*
X157516666Y-110299366D01*
X157516666Y-110299366D02*
X157483332Y-110266033D01*
X157483332Y-110266033D02*
X157416666Y-110232700D01*
X157416666Y-110232700D02*
X157283332Y-110199366D01*
X157283332Y-110199366D02*
X157216666Y-110166033D01*
X157216666Y-110166033D02*
X157183332Y-110132700D01*
X157183332Y-110132700D02*
X157149999Y-110066033D01*
X157149999Y-110066033D02*
X157149999Y-109999366D01*
X157149999Y-109999366D02*
X157183332Y-109932700D01*
X157183332Y-109932700D02*
X157216666Y-109899366D01*
X157216666Y-109899366D02*
X157283332Y-109866033D01*
X157283332Y-109866033D02*
X157449999Y-109866033D01*
X157449999Y-109866033D02*
X157549999Y-109899366D01*
X157816666Y-110532700D02*
X157916666Y-110566033D01*
X157916666Y-110566033D02*
X158083333Y-110566033D01*
X158083333Y-110566033D02*
X158149999Y-110532700D01*
X158149999Y-110532700D02*
X158183333Y-110499366D01*
X158183333Y-110499366D02*
X158216666Y-110432700D01*
X158216666Y-110432700D02*
X158216666Y-110366033D01*
X158216666Y-110366033D02*
X158183333Y-110299366D01*
X158183333Y-110299366D02*
X158149999Y-110266033D01*
X158149999Y-110266033D02*
X158083333Y-110232700D01*
X158083333Y-110232700D02*
X157949999Y-110199366D01*
X157949999Y-110199366D02*
X157883333Y-110166033D01*
X157883333Y-110166033D02*
X157849999Y-110132700D01*
X157849999Y-110132700D02*
X157816666Y-110066033D01*
X157816666Y-110066033D02*
X157816666Y-109999366D01*
X157816666Y-109999366D02*
X157849999Y-109932700D01*
X157849999Y-109932700D02*
X157883333Y-109899366D01*
X157883333Y-109899366D02*
X157949999Y-109866033D01*
X157949999Y-109866033D02*
X158116666Y-109866033D01*
X158116666Y-109866033D02*
X158216666Y-109899366D01*
X158883333Y-110566033D02*
X158483333Y-110566033D01*
X158683333Y-110566033D02*
X158683333Y-109866033D01*
X158683333Y-109866033D02*
X158616666Y-109966033D01*
X158616666Y-109966033D02*
X158550000Y-110032700D01*
X158550000Y-110032700D02*
X158483333Y-110066033D01*
X159483333Y-110099366D02*
X159483333Y-110566033D01*
X159316667Y-109832700D02*
X159150000Y-110332700D01*
X159150000Y-110332700D02*
X159583333Y-110332700D01*
X159850000Y-110566033D02*
X159850000Y-109866033D01*
X159850000Y-109866033D02*
X160083334Y-110366033D01*
X160083334Y-110366033D02*
X160316667Y-109866033D01*
X160316667Y-109866033D02*
X160316667Y-110566033D01*
D17*
X161721950Y-127449824D02*
X161021950Y-127916490D01*
X161721950Y-127916490D02*
X161021950Y-127449824D01*
X161655284Y-128149824D02*
X161688617Y-128183157D01*
X161688617Y-128183157D02*
X161721950Y-128249824D01*
X161721950Y-128249824D02*
X161721950Y-128416491D01*
X161721950Y-128416491D02*
X161688617Y-128483157D01*
X161688617Y-128483157D02*
X161655284Y-128516491D01*
X161655284Y-128516491D02*
X161588617Y-128549824D01*
X161588617Y-128549824D02*
X161521950Y-128549824D01*
X161521950Y-128549824D02*
X161421950Y-128516491D01*
X161421950Y-128516491D02*
X161021950Y-128116491D01*
X161021950Y-128116491D02*
X161021950Y-128549824D01*
D18*
X136973270Y-122583114D02*
X136473270Y-122583114D01*
X136473270Y-122583114D02*
X136373270Y-122549781D01*
X136373270Y-122549781D02*
X136306604Y-122483114D01*
X136306604Y-122483114D02*
X136273270Y-122383114D01*
X136273270Y-122383114D02*
X136273270Y-122316448D01*
X136906604Y-122883114D02*
X136939937Y-122916447D01*
X136939937Y-122916447D02*
X136973270Y-122983114D01*
X136973270Y-122983114D02*
X136973270Y-123149781D01*
X136973270Y-123149781D02*
X136939937Y-123216447D01*
X136939937Y-123216447D02*
X136906604Y-123249781D01*
X136906604Y-123249781D02*
X136839937Y-123283114D01*
X136839937Y-123283114D02*
X136773270Y-123283114D01*
X136773270Y-123283114D02*
X136673270Y-123249781D01*
X136673270Y-123249781D02*
X136273270Y-122849781D01*
X136273270Y-122849781D02*
X136273270Y-123283114D01*
D19*
X135470670Y-117942848D02*
X135512181Y-117984359D01*
X135512181Y-117984359D02*
X135553692Y-118067381D01*
X135553692Y-118067381D02*
X135553692Y-118274935D01*
X135553692Y-118274935D02*
X135512181Y-118357957D01*
X135512181Y-118357957D02*
X135470670Y-118399467D01*
X135470670Y-118399467D02*
X135387648Y-118440978D01*
X135387648Y-118440978D02*
X135304627Y-118440978D01*
X135304627Y-118440978D02*
X135180094Y-118399467D01*
X135180094Y-118399467D02*
X134681964Y-117901337D01*
X134681964Y-117901337D02*
X134681964Y-118440978D01*
X134681964Y-115900978D02*
X134681964Y-115402848D01*
X134681964Y-115651913D02*
X135553692Y-115651913D01*
X135553692Y-115651913D02*
X135429159Y-115568891D01*
X135429159Y-115568891D02*
X135346137Y-115485870D01*
X135346137Y-115485870D02*
X135304627Y-115402848D01*
X135553692Y-120441337D02*
X135553692Y-120980978D01*
X135553692Y-120980978D02*
X135221605Y-120690402D01*
X135221605Y-120690402D02*
X135221605Y-120814935D01*
X135221605Y-120814935D02*
X135180094Y-120897957D01*
X135180094Y-120897957D02*
X135138583Y-120939467D01*
X135138583Y-120939467D02*
X135055561Y-120980978D01*
X135055561Y-120980978D02*
X134848007Y-120980978D01*
X134848007Y-120980978D02*
X134764985Y-120939467D01*
X134764985Y-120939467D02*
X134723475Y-120897957D01*
X134723475Y-120897957D02*
X134681964Y-120814935D01*
X134681964Y-120814935D02*
X134681964Y-120565870D01*
X134681964Y-120565870D02*
X134723475Y-120482848D01*
X134723475Y-120482848D02*
X134764985Y-120441337D01*
D20*
%TO.C,CR2032*%
X157816043Y-109260765D02*
X158912058Y-108164749D01*
X163260765Y-103816043D02*
X162164749Y-104912058D01*
X162977922Y-101906854D02*
X164392136Y-100492641D01*
X162977922Y-100492641D02*
X164392136Y-101906854D01*
X152371320Y-110180004D02*
X155553301Y-106998023D01*
X152371320Y-110180004D02*
X136319996Y-94128680D01*
X155553301Y-106998023D02*
X157816043Y-109260765D01*
X160998023Y-101553301D02*
X163260765Y-103816043D01*
X162907211Y-99644113D02*
X160998023Y-101553301D01*
X162907211Y-97098528D02*
X162907211Y-99644113D01*
X136319996Y-94128680D02*
X139501977Y-90946699D01*
X139501977Y-90946699D02*
X137239235Y-88683957D01*
X144946699Y-85501977D02*
X142683957Y-83239235D01*
X148128680Y-82319996D02*
X162907211Y-97098528D01*
X148128680Y-82319996D02*
X144946699Y-85501977D01*
X137239235Y-88683957D02*
X138335251Y-87587942D01*
X142683957Y-83239235D02*
X141587942Y-84335251D01*
%TO.C,D1*%
X144675000Y-128000000D02*
X145855000Y-128000000D01*
X145855000Y-127080000D02*
X145855000Y-128920000D01*
X145855000Y-128920000D02*
X149135000Y-128920000D01*
X146311000Y-127080000D02*
X146311000Y-128920000D01*
X146431000Y-127080000D02*
X146431000Y-128920000D01*
X146551000Y-127080000D02*
X146551000Y-128920000D01*
X149135000Y-127080000D02*
X145855000Y-127080000D01*
X149135000Y-128920000D02*
X149135000Y-127080000D01*
X150315000Y-128000000D02*
X149135000Y-128000000D01*
D21*
%TO.C,IC4*%
X155606100Y-83298600D02*
X155606100Y-83833600D01*
X158716100Y-82508600D02*
X156396100Y-82508600D01*
X159506100Y-83833600D02*
X159506100Y-83298600D01*
D22*
%TO.C,R1*%
X144856100Y-110840600D02*
X144856100Y-109316600D01*
X145110100Y-109062600D02*
X145491100Y-109062600D01*
X145110100Y-111094600D02*
X145491100Y-111094600D01*
X145618100Y-109189600D02*
X145491100Y-109062600D01*
X145618100Y-110967600D02*
X145491100Y-111094600D01*
X149174100Y-109189600D02*
X145618100Y-109189600D01*
X149174100Y-109189600D02*
X149301100Y-109062600D01*
X149174100Y-110967600D02*
X145618100Y-110967600D01*
X149174100Y-110967600D02*
X149301100Y-111094600D01*
X149682100Y-109062600D02*
X149301100Y-109062600D01*
X149682100Y-111094600D02*
X149301100Y-111094600D01*
X149936100Y-110840600D02*
X149936100Y-109316600D01*
X144856100Y-109316600D02*
G75*
G02*
X145110100Y-109062600I254000J0D01*
G01*
X145110100Y-111094600D02*
G75*
G02*
X144856100Y-110840600I0J254000D01*
G01*
X149682100Y-109062600D02*
G75*
G02*
X149936100Y-109316600I0J-254000D01*
G01*
X149936100Y-110840600D02*
G75*
G02*
X149682100Y-111094600I-254000J0D01*
G01*
D23*
G36*
X144856100Y-110332600D02*
G01*
X144475100Y-110332600D01*
X144475100Y-109824600D01*
X144856100Y-109824600D01*
X144856100Y-110332600D01*
G37*
G36*
X150317100Y-110332600D02*
G01*
X149936100Y-110332600D01*
X149936100Y-109824600D01*
X150317100Y-109824600D01*
X150317100Y-110332600D01*
G37*
D21*
%TO.C,IC3*%
X149256100Y-83298600D02*
X149256100Y-83833600D01*
X152366100Y-82508600D02*
X150046100Y-82508600D01*
X153156100Y-83833600D02*
X153156100Y-83298600D01*
D22*
%TO.C,C2*%
X157937100Y-86583600D02*
X157937100Y-85313600D01*
D24*
X159791300Y-85186600D02*
X159791300Y-86710600D01*
X160426300Y-85186600D02*
X160426300Y-86710600D01*
D22*
X161747100Y-84805600D02*
X158445100Y-84805600D01*
X161747100Y-87091600D02*
X158445100Y-87091600D01*
X162255100Y-86583600D02*
X162255100Y-85313600D01*
X157937100Y-85313600D02*
G75*
G02*
X158445100Y-84805600I508001J-1D01*
G01*
X158445100Y-87091600D02*
G75*
G02*
X157937100Y-86583600I1J508001D01*
G01*
X161747100Y-84805600D02*
G75*
G02*
X162255100Y-85313600I0J-508000D01*
G01*
X162255100Y-86583600D02*
G75*
G02*
X161747100Y-87091600I-508000J0D01*
G01*
D21*
%TO.C,IC2*%
X142906100Y-83298600D02*
X142906100Y-83833600D01*
X146016100Y-82508600D02*
X143696100Y-82508600D01*
X146806100Y-83833600D02*
X146806100Y-83298600D01*
D22*
%TO.C,R2*%
X144856100Y-122016600D02*
X144856100Y-123540600D01*
X145110100Y-121762600D02*
X145491100Y-121762600D01*
X145110100Y-123794600D02*
X145491100Y-123794600D01*
X145618100Y-121889600D02*
X145491100Y-121762600D01*
X145618100Y-121889600D02*
X149174100Y-121889600D01*
X145618100Y-123667600D02*
X145491100Y-123794600D01*
X145618100Y-123667600D02*
X149174100Y-123667600D01*
X149174100Y-121889600D02*
X149301100Y-121762600D01*
X149174100Y-123667600D02*
X149301100Y-123794600D01*
X149682100Y-121762600D02*
X149301100Y-121762600D01*
X149682100Y-123794600D02*
X149301100Y-123794600D01*
X149936100Y-122016600D02*
X149936100Y-123540600D01*
X144856100Y-122016600D02*
G75*
G02*
X145110100Y-121762600I254000J0D01*
G01*
X145110100Y-123794600D02*
G75*
G02*
X144856100Y-123540600I0J254000D01*
G01*
X149682100Y-121762600D02*
G75*
G02*
X149936100Y-122016600I0J-254000D01*
G01*
X149936100Y-123540600D02*
G75*
G02*
X149682100Y-123794600I-254000J0D01*
G01*
D23*
G36*
X144856100Y-123032600D02*
G01*
X144475100Y-123032600D01*
X144475100Y-122524600D01*
X144856100Y-122524600D01*
X144856100Y-123032600D01*
G37*
G36*
X150317100Y-123032600D02*
G01*
X149936100Y-123032600D01*
X149936100Y-122524600D01*
X150317100Y-122524600D01*
X150317100Y-123032600D01*
G37*
D22*
%TO.C,C3*%
X160266000Y-111853000D02*
X160520000Y-111853000D01*
X160520000Y-111599000D02*
X160520000Y-111853000D01*
X160520000Y-111853000D02*
X160520000Y-112107000D01*
X160520000Y-111853000D02*
X160774000Y-111853000D01*
X161790000Y-113250000D02*
G75*
G02*
X156710000Y-113250000I-2540000J0D01*
G01*
X156710000Y-113250000D02*
G75*
G02*
X161790000Y-113250000I2540000J0D01*
G01*
%TO.C,R3*%
X144856100Y-124556600D02*
X144856100Y-126080600D01*
X145110100Y-124302600D02*
X145491100Y-124302600D01*
X145110100Y-126334600D02*
X145491100Y-126334600D01*
X145618100Y-124429600D02*
X145491100Y-124302600D01*
X145618100Y-124429600D02*
X149174100Y-124429600D01*
X145618100Y-126207600D02*
X145491100Y-126334600D01*
X145618100Y-126207600D02*
X149174100Y-126207600D01*
X149174100Y-124429600D02*
X149301100Y-124302600D01*
X149174100Y-126207600D02*
X149301100Y-126334600D01*
X149682100Y-124302600D02*
X149301100Y-124302600D01*
X149682100Y-126334600D02*
X149301100Y-126334600D01*
X149936100Y-124556600D02*
X149936100Y-126080600D01*
X144856100Y-124556600D02*
G75*
G02*
X145110100Y-124302600I254000J0D01*
G01*
X145110100Y-126334600D02*
G75*
G02*
X144856100Y-126080600I0J254000D01*
G01*
X149682100Y-124302600D02*
G75*
G02*
X149936100Y-124556600I0J-254000D01*
G01*
X149936100Y-126080600D02*
G75*
G02*
X149682100Y-126334600I-254000J0D01*
G01*
D23*
G36*
X144856100Y-125572600D02*
G01*
X144475100Y-125572600D01*
X144475100Y-125064600D01*
X144856100Y-125064600D01*
X144856100Y-125572600D01*
G37*
G36*
X150317100Y-125572600D02*
G01*
X149936100Y-125572600D01*
X149936100Y-125064600D01*
X150317100Y-125064600D01*
X150317100Y-125572600D01*
G37*
D22*
%TO.C,C1*%
X152603100Y-115539600D02*
X152603100Y-112237600D01*
X153111100Y-111729600D02*
X154381100Y-111729600D01*
X153111100Y-116047600D02*
X154381100Y-116047600D01*
D24*
X154508100Y-113583800D02*
X152984100Y-113583800D01*
X154508100Y-114218800D02*
X152984100Y-114218800D01*
D22*
X154889100Y-115539600D02*
X154889100Y-112237600D01*
X152603100Y-112237600D02*
G75*
G02*
X153111100Y-111729600I508001J-1D01*
G01*
X153111100Y-116047600D02*
G75*
G02*
X152603100Y-115539600I0J508000D01*
G01*
X154381100Y-111729600D02*
G75*
G02*
X154889100Y-112237600I-1J-508001D01*
G01*
X154889100Y-115539600D02*
G75*
G02*
X154381100Y-116047600I-508000J0D01*
G01*
%TO.C,IC1*%
X144602100Y-111348600D02*
X144602100Y-121508600D01*
X144602100Y-121508600D02*
X150190100Y-121508600D01*
X146761100Y-111348600D02*
X144602100Y-111348600D01*
X150190100Y-111348600D02*
X148031100Y-111348600D01*
X150190100Y-121508600D02*
X150190100Y-111348600D01*
X148031100Y-111348600D02*
G75*
G02*
X146761100Y-111348600I-635000J0D01*
G01*
D20*
%TO.C,D2*%
X154312500Y-111210000D02*
X156997500Y-111210000D01*
X156997500Y-109290000D02*
X154312500Y-109290000D01*
X156997500Y-111210000D02*
X156997500Y-109290000D01*
D25*
%TO.C,X2*%
X158646100Y-116298600D02*
X158646100Y-126718600D01*
X158646100Y-126718600D02*
X161546100Y-126718600D01*
D22*
X161196100Y-116408600D02*
X161196100Y-126608600D01*
D25*
X161546100Y-116298600D02*
X158646100Y-116298600D01*
X161546100Y-126718600D02*
X161546100Y-116298600D01*
D22*
%TO.C,J2*%
X135966100Y-116174600D02*
X135966100Y-114142600D01*
X135966100Y-116174600D02*
X136220100Y-116428600D01*
X135966100Y-118714600D02*
X135966100Y-116682600D01*
X135966100Y-118714600D02*
X136220100Y-118968600D01*
X135966100Y-121254600D02*
X135966100Y-119222600D01*
X135966100Y-121254600D02*
X136220100Y-121508600D01*
X136220100Y-113888600D02*
X135966100Y-114142600D01*
X136220100Y-113888600D02*
X138252100Y-113888600D01*
X136220100Y-116428600D02*
X135966100Y-116682600D01*
X136220100Y-118968600D02*
X135966100Y-119222600D01*
X138252100Y-113888600D02*
X138506100Y-114142600D01*
X138252100Y-116428600D02*
X138506100Y-116682600D01*
X138252100Y-118968600D02*
X138506100Y-119222600D01*
X138252100Y-121508600D02*
X136220100Y-121508600D01*
X138506100Y-116174600D02*
X138252100Y-116428600D01*
X138506100Y-116174600D02*
X138506100Y-114142600D01*
X138506100Y-118714600D02*
X138252100Y-118968600D01*
X138506100Y-118714600D02*
X138506100Y-116682600D01*
X138506100Y-121254600D02*
X138252100Y-121508600D01*
X138506100Y-121254600D02*
X138506100Y-119222600D01*
%TD*%
M02*
